<?xml version="1.0"?>
<svg xmlns="http://www.w3.org/2000/svg" viewBox="0 0 512 512" width="512" height="512"><g id="Filled_outline" data-name="Filled outline"><path d="M24,96l16-8H208V56H79.267a24,24,0,0,1-13.313-4.031l-4.641-3.094a24,24,0,0,0-26.626,0h0A24,24,0,0,0,24,68.844Z" style="fill:#ffa912"/><path d="M488,408H311.6A95.619,95.619,0,0,1,216,312.4V245.67a24.119,24.119,0,0,1,2.53-10.74L264,144V88H208V56a57.9,57.9,0,0,1,51.78-32A44.223,44.223,0,0,1,304,68.22v94.11a24.119,24.119,0,0,1-2.53,10.74L264,248v32H415.53l47.04,57.12A111.494,111.494,0,0,1,488,408Z" style="fill:#e0e0de"/><path d="M488,408H311.6a95.549,95.549,0,0,1-83.66-49.35A418.667,418.667,0,0,0,288.83,280h126.7l47.04,57.12A111.494,111.494,0,0,1,488,408Z" style="fill:#d6d6d4"/><path d="M295.771,264.458,294.2,267.6a58.713,58.713,0,0,0-6.2,26.259h0a77.174,77.174,0,0,0,25.26,57.1h0A219.318,219.318,0,0,0,460.79,408H488a111.493,111.493,0,0,0-25.428-70.877L393.616,253.39A58.719,58.719,0,0,0,348.29,232h0A58.718,58.718,0,0,0,295.771,264.458Z" style="fill:#4d5e78"/><path d="M248,440v32a16,16,0,0,1-16,16H152a31.872,31.872,0,0,1-27.56-16H104V440h20.44A31.872,31.872,0,0,1,152,424h80A16,16,0,0,1,248,440Z" style="fill:#4db7e5"/><path d="M248,448v24a16,16,0,0,1-16,16H152a31.872,31.872,0,0,1-27.56-16H104V448h20.44A31.872,31.872,0,0,0,152,464h80A16,16,0,0,0,248,448Z" style="fill:#48add9"/><path d="M56,488H32a8,8,0,0,1-8-8V456H64v24A8,8,0,0,1,56,488Z" style="fill:#d6d6d4"/><path d="M264,88v56l-48,96-22.06,22.06c-.63.63-1.28,1.26-1.93,1.87a88.67,88.67,0,0,1-26.8,17.33c-1.71.71-3.45,1.36-5.2,1.96A88.357,88.357,0,0,1,144,287.09a89.274,89.274,0,0,1-12.68.91c-1.11,0-2.21-.02-3.31-.07a88.682,88.682,0,0,1-66.6-34.12L36.98,222.4,32,216l-2.01-8.02L24,184l56-29.22,16-8.35,80-41.73,16-8.35L208,88Z" style="fill:#ffa912"/><path d="M192.01,263.93a88.67,88.67,0,0,1-26.8,17.33c-1.71.71-3.45,1.36-5.2,1.96V256h-32v31.93a88.283,88.283,0,0,1-32-7.29L96,189.83v-43.4l80-41.73,16-8.35v40.52Z" style="fill:#f7a116"/><polygon points="176 104.7 176 328 144 328 144 256 112 256 112 328 80 328 80 154.78 96 146.43 176 104.7" style="fill:#60d1e0"/><rect x="240" y="48" width="16" height="16"/><path d="M468.747,332.038l-68.956-83.733a66.718,66.718,0,0,0-111.177,12.577l-1.57,3.142A66.344,66.344,0,0,0,283.7,272H272V249.887l36.562-73.2A31.657,31.657,0,0,0,312,162.32V68.24A52.3,52.3,0,0,0,259.76,16a65.98,65.98,0,0,0-34.64,9.856A67.1,67.1,0,0,0,203.307,48H79.267a15.94,15.94,0,0,1-8.875-2.688L65.75,42.218A32,32,0,0,0,16,68.844V96a8,8,0,0,0,11.578,7.155L41.889,96H175.415L172.6,97.469c-.1.047-.205.083-.3.134l-96,50.087c-.064.033-.119.076-.182.111L20.3,176.906a8,8,0,0,0-4.062,9.034l8,32a8,8,0,0,0,1.447,2.973l29.408,37.8A92.313,92.313,0,0,0,72,275.631V328a8,8,0,0,0,8,8h32a8,8,0,0,0,8-8V295.33a95.71,95.71,0,0,0,11.28.67c1.558,0,3.133-.053,4.72-.13V328a8,8,0,0,0,8,8h32a8,8,0,0,0,8-8V280.344a97.647,97.647,0,0,0,15.577-12.607L208,259.314V312.4a103.593,103.593,0,0,0,97.711,103.43l6.124,24.5L305.223,480H272v16H384V480H369.444l6.448-38.685a8.026,8.026,0,0,0-.131-3.255L370.246,416H488a8,8,0,0,0,8-8A119.774,119.774,0,0,0,468.747,332.038ZM184,109.566,209.964,96h22.98L184,123.008ZM40,80a7.994,7.994,0,0,0-3.578.845L32,83.056V68.844A15.99,15.99,0,0,1,56.875,55.532l4.642,3.093A31.887,31.887,0,0,0,79.267,64H200V80Zm32,87.993v16.8L37.24,203.973l-3.949-15.8Zm-4.245,80.934L44.066,218.48,72,203.07v50.908C70.519,252.357,69.1,250.678,67.755,248.927ZM131.28,280a79.453,79.453,0,0,1-11.28-.8V264h16v15.85C134.4,279.943,132.829,280,131.28,280ZM152,320V256a8,8,0,0,0-8-8H112a8,8,0,0,0-8,8v64H88V159.65l80-41.733V320Zm36.263-63.577c-1.361,1.362-2.788,2.674-4.263,3.947V141.283l72-39.731v40.561l-44.573,89.224-1.984,3.906Zm171.572,183.9L353.223,480H321.444l6.448-38.685a8.026,8.026,0,0,0-.131-3.255L322.246,416h31.508ZM311.6,400A87.6,87.6,0,0,1,224,312.4V245.68a15.667,15.667,0,0,1,1.716-7.145l45.44-90.96A7.994,7.994,0,0,0,272,144V88a8,8,0,0,0-8-8H216V57.99a51.054,51.054,0,0,1,17.557-18.539A49.944,49.944,0,0,1,259.76,32,36.281,36.281,0,0,1,296,68.24v94.08a15.656,15.656,0,0,1-1.717,7.145l-37.44,74.96A8.006,8.006,0,0,0,256,248v32a8,8,0,0,0,8,8h16.262q-.26,2.923-.262,5.861a85.345,85.345,0,0,0,27.879,63.023A227.214,227.214,0,0,0,376.964,400Zm149.19,0q-7.368,0-14.671-.507L431.761,342.06l-15.522,3.88,12.92,51.679a211.009,211.009,0,0,1-21.872-4.482l-7.336-66.02-15.9,1.766,6.572,59.146A210.341,210.341,0,0,1,368,378.557V312H352v57.851a211.831,211.831,0,0,1-33.358-24.807A69.308,69.308,0,0,1,296,293.861a50.976,50.976,0,0,1,5.355-22.682l1.571-3.143a50.717,50.717,0,0,1,84.513-9.56L456.4,342.209A103.772,103.772,0,0,1,479.688,400Z"/><path d="M232,416H152a40.036,40.036,0,0,0-31.835,16H104a8,8,0,0,0-8,8v32a8,8,0,0,0,8,8h16.165A40.036,40.036,0,0,0,152,496h80a24.027,24.027,0,0,0,24-24V440A24.027,24.027,0,0,0,232,416Zm8,56a8.009,8.009,0,0,1-8,8h-8V456H208v24H192V456H176v24H152a23.732,23.732,0,0,1-20.647-12.024A8,8,0,0,0,124.438,464H112V448h12.438a8,8,0,0,0,6.914-3.976A23.735,23.735,0,0,1,152,432h80a8.009,8.009,0,0,1,8,8Z"/><path d="M64,448H24a8,8,0,0,0-8,8v24a16.019,16.019,0,0,0,16,16H56a16.019,16.019,0,0,0,16-16V456A8,8,0,0,0,64,448Zm-8,32H32V464H56l.007,16Z"/></g></svg>
