<svg width="64" height="93" viewBox="0 0 64 93" fill="none" xmlns="http://www.w3.org/2000/svg">
<path d="M36.9242 45.0796H36.9242C42.3575 47.3194 47.03 51.2715 50.3256 56.4147C53.6213 61.558 55.3854 67.6509 55.3854 73.8904V78.7559C55.3854 81.935 54.2071 84.9838 52.1099 87.2317C50.0126 89.4796 47.1681 90.7424 44.2022 90.7424H12.6052C9.63922 90.7424 6.79473 89.4796 4.69748 87.2317C2.60022 84.9838 1.422 81.935 1.422 78.7559V73.8904C1.42199 67.6509 3.1861 61.558 6.48175 56.4147C9.77739 51.2715 14.4498 47.3194 19.8831 45.0796H19.8831H36.9242Z" fill="#2F4054"/>
<path d="M26.9836 13.1156V7.02722C26.9836 5.81617 27.4324 4.65472 28.2314 3.79837C29.0303 2.94203 30.114 2.46094 31.2438 2.46094H36.9242V13.1156H26.9836Z" fill="#262D43"/>
<path d="M45.4447 38.9913L39.7644 45.0797H19.8831C19.1299 45.0797 18.4075 44.759 17.8748 44.1881C17.3422 43.6172 17.043 42.8429 17.043 42.0355V26.8146C17.043 26.0072 17.3422 25.2329 17.8748 24.662C18.4075 24.0911 19.1299 23.7704 19.8831 23.7704H32.6639V19.2041H39.7644C41.2709 19.2041 42.7157 19.8456 43.781 20.9873C44.8463 22.1291 45.4447 23.6777 45.4447 25.2925H63.9059V38.9913H45.4447Z" fill="#F5CFB0"/>
<path d="M34.084 17.6821H22.7233C21.1547 17.6821 19.8831 19.045 19.8831 20.7263V20.7263C19.8831 22.4075 21.1547 23.7704 22.7233 23.7704H34.084C35.6526 23.7704 36.9242 22.4075 36.9242 20.7263C36.9242 19.045 35.6526 17.6821 34.084 17.6821Z" fill="#AE7D4D"/>
<path d="M19.1731 2.46094C20.1147 2.46094 21.0177 2.86185 21.6835 3.57547C22.3493 4.28909 22.7233 5.25696 22.7233 6.26617C22.7233 7.67907 23.247 9.0341 24.1791 10.0332C25.1112 11.0322 26.3754 11.5935 27.6936 11.5935H29.1137C30.4319 11.5935 31.6961 11.0322 32.6282 10.0332C33.5604 9.0341 34.084 7.67907 34.084 6.26617C34.084 5.25696 34.458 4.28909 35.1238 3.57547C35.7896 2.86185 36.6927 2.46094 37.6342 2.46094C38.5758 2.46094 39.4788 2.86185 40.1446 3.57547C40.8104 4.28909 41.1845 5.25696 41.1845 6.26617V10.0714C41.1845 12.0898 40.4364 14.0256 39.1048 15.4528C37.7732 16.8801 35.9672 17.6819 34.084 17.6819H22.7233C20.8402 17.6819 19.0341 16.8801 17.7025 15.4528C16.3709 14.0256 15.6229 12.0898 15.6229 10.0714V6.26617C15.6229 5.25696 15.9969 4.28909 16.6627 3.57547C17.3285 2.86185 18.2315 2.46094 19.1731 2.46094Z" fill="#2F4054"/>
<path d="M19.8831 25.2925H36.9242C37.3008 25.2925 37.662 25.1322 37.9283 24.8467C38.1946 24.5613 38.3443 24.1741 38.3443 23.7704V20.7263H39.7644C40.8939 20.7276 41.9767 21.2092 42.7754 22.0652C43.5741 22.9213 44.0233 24.0819 44.0246 25.2925C44.0246 25.6962 44.1743 26.0834 44.4406 26.3688C44.7069 26.6543 45.0681 26.8146 45.4447 26.8146H63.9059V23.7704H46.7221C46.3926 22.0527 45.5207 20.5093 44.2533 19.4002C42.9859 18.2912 41.4005 17.6844 39.7644 17.6821H38.7869C39.9601 16.85 40.9227 15.7195 41.5888 14.3915C42.255 13.0635 42.604 11.5793 42.6045 10.0716V6.26631C42.605 5.50226 42.4521 4.74703 42.1561 4.05196C41.8601 3.35689 41.428 2.73826 40.8891 2.2381C40.3502 1.73793 39.7172 1.36797 39.033 1.15333C38.3489 0.938695 37.6296 0.884421 36.9242 0.994197V0.938968H31.2438C29.7378 0.940814 28.294 1.58286 27.2291 2.72426C26.1642 3.86565 25.5652 5.41319 25.5635 7.02736V9.30331C25.1231 8.95 24.7654 8.49162 24.519 7.96449C24.2725 7.43735 24.1439 6.85595 24.1434 6.26631C24.1434 4.85341 23.6197 3.49838 22.6876 2.49931C21.7555 1.50024 20.4913 0.938968 19.1731 0.938968C17.8549 0.938968 16.5907 1.50024 15.6585 2.49931C14.7264 3.49838 14.2028 4.85341 14.2028 6.26631V10.0716C14.2044 11.8042 14.6652 13.5007 15.5317 14.9634C16.3981 16.4261 17.6345 17.5948 19.0968 18.3334C18.7485 18.9378 18.5369 19.6213 18.4792 20.329C18.4214 21.0368 18.5191 21.7492 18.7642 22.4093C17.8628 22.6736 17.0672 23.2477 16.4997 24.0436C15.9322 24.8394 15.6242 25.813 15.6229 26.8146V42.0356C15.6221 43.1093 15.976 44.1486 16.6218 44.9694C11.6242 47.6671 7.42393 51.7998 4.48933 56.9064C1.55474 62.0131 0.00117922 67.893 0.00189234 73.8906V78.7563C0.00567772 82.3377 1.33474 85.7713 3.69749 88.3038C6.06024 90.8363 9.26374 92.2608 12.6052 92.2649H44.2021C47.5436 92.2608 50.7471 90.8363 53.1098 88.3038C55.4726 85.7713 56.8016 82.3377 56.8054 78.7563V73.8906C56.8057 68.1206 55.3677 62.4553 52.6402 57.4807C49.9127 52.5061 45.9948 48.4029 41.2916 45.5955L46.0329 40.5135H63.9059V37.4693H45.4447C45.0681 37.4693 44.7069 37.6297 44.4405 37.9151L39.1762 43.5577H19.8831C19.5066 43.5573 19.1457 43.3968 18.8794 43.1114C18.6132 42.8261 18.4635 42.4392 18.463 42.0356V26.8146C18.4635 26.4111 18.6132 26.0242 18.8794 25.7389C19.1457 25.4535 19.5066 25.293 19.8831 25.2925ZM31.2438 3.98317H33.1444C32.8274 4.69627 32.6632 5.47637 32.6639 6.26631C32.6629 7.27518 32.2885 8.24241 31.6229 8.95579C30.9574 9.66917 30.055 10.0704 29.1137 10.0716H28.4037V7.02736C28.4045 6.22027 28.704 5.44651 29.2365 4.87581C29.7689 4.30511 30.4908 3.98409 31.2438 3.98317ZM17.0429 10.0716V6.26631C17.0429 5.66078 17.2674 5.08006 17.6669 4.65188C18.0663 4.22371 18.6081 3.98317 19.1731 3.98317C19.738 3.98317 20.2798 4.22371 20.6793 4.65188C21.0788 5.08006 21.3032 5.66078 21.3032 6.26631C21.3051 8.08227 21.979 9.82327 23.177 11.1073C24.375 12.3914 25.9994 13.1137 27.6936 13.1158H29.1137C30.808 13.1137 32.4323 12.3914 33.6303 11.1073C34.8283 9.82327 35.5022 8.08227 35.5041 6.26631C35.5041 5.66078 35.7285 5.08006 36.128 4.65188C36.5275 4.22371 37.0693 3.98317 37.6342 3.98317C38.1992 3.98317 38.741 4.22371 39.1405 4.65188C39.5399 5.08006 39.7644 5.66078 39.7644 6.26631V10.0716C39.7626 11.6857 39.1636 13.2333 38.0987 14.3747C37.0338 15.5161 35.59 16.1581 34.084 16.16H22.7233C21.2173 16.1581 19.7735 15.5161 18.7086 14.3747C17.6437 13.2333 17.0447 11.6857 17.0429 10.0716ZM35.5041 19.2042V22.2484H22.7233C22.3467 22.2484 21.9855 22.088 21.7191 21.8025C21.4528 21.5171 21.3032 21.1299 21.3032 20.7263C21.3032 20.3226 21.4528 19.9354 21.7191 19.65C21.9855 19.3645 22.3467 19.2042 22.7233 19.2042H35.5041ZM49.1549 57.2767C52.2947 62.1629 53.9725 67.9577 53.9652 73.8906V78.7563C53.9623 81.5306 52.9328 84.1905 51.1025 86.1523C49.2722 88.1141 46.7906 89.2176 44.2021 89.2207H12.6052C10.0167 89.2176 7.53515 88.1141 5.70485 86.1523C3.87454 84.1905 2.84499 81.5306 2.84207 78.7563V73.8906C2.84145 68.0049 4.49267 62.255 7.58112 57.3884C10.6696 52.5218 15.0524 48.7635 20.16 46.6019H22.1374C19.1607 49.8026 16.8022 53.6011 15.197 57.7801C13.5918 61.959 12.7714 66.4363 12.7827 70.9555H15.6229C15.6123 66.8106 16.3689 62.7047 17.8488 58.8753C19.3287 55.0459 21.5025 51.5692 24.2445 48.6463L26.1518 46.6019H30.6555L32.5629 48.6463C34.6986 50.9343 36.4925 53.5613 37.8816 56.435L40.4032 55.034C38.9015 51.9285 36.9686 49.0854 34.6705 46.6019H36.6473C41.7183 48.7402 46.0749 52.4585 49.1549 57.2767Z" fill="black"/>
<path d="M41.1844 70.9553H44.0246C44.0243 68.2748 43.7337 65.6033 43.1586 62.9946L40.3947 63.6951C40.9191 66.0743 41.1842 68.5106 41.1844 70.9553Z" fill="black"/>
</svg>
