<svg width="139" height="138" viewBox="0 0 139 138" fill="none" xmlns="http://www.w3.org/2000/svg">
<path d="M124.647 106.838L122.259 111.615C120.901 114.328 120.196 117.322 120.196 120.356C120.196 124.585 121.567 128.7 124.104 132.084L126.873 135.774H91.2598L94.0287 132.084C96.5662 128.7 97.9373 124.585 97.9373 120.356C97.9373 117.322 97.2317 114.328 95.8739 111.615L93.4856 106.838C95.5823 106.838 97.5255 106.237 99.1926 105.222L106.841 117.967L120.97 106.193V106.195C122.119 106.609 123.354 106.838 124.647 106.838Z" fill="#C18E59"/>
<path d="M26.7106 51.1926L33.3881 44.5151L44.5173 42.2892V33.3859L51.1948 26.7084L44.5173 20.0309V11.1276L33.3881 8.90174L26.7106 2.22424L20.0331 8.90174L8.90394 11.1276V20.0309L2.22644 26.7084L8.90394 33.3859V42.2892L20.0331 44.5151L26.7106 51.1926Z" fill="#F7D881"/>
<path d="M26.7106 40.0635C34.0864 40.0635 40.0656 34.0843 40.0656 26.7085C40.0656 19.3328 34.0864 13.3535 26.7106 13.3535C19.3348 13.3535 13.3556 19.3328 13.3556 26.7085C13.3556 34.0843 19.3348 40.0635 26.7106 40.0635Z" fill="#C16B3F"/>
<path d="M2.22644 135.774L5.75661 132.244C7.77099 130.23 10.5043 129.097 13.3556 129.097C16.2069 129.097 18.9402 130.23 20.9546 132.244L21.3375 132.627C23.3518 134.641 26.0852 135.774 28.9364 135.774C31.7877 135.774 34.5211 134.641 36.5354 132.627L36.9183 132.244C38.9327 130.23 41.666 129.097 44.5173 129.097C47.3686 129.097 50.1019 130.23 52.1163 132.244L55.6464 135.774V102.387L52.1163 98.8567C50.1019 96.8423 47.3686 95.7094 44.5173 95.7094C41.666 95.7094 38.9327 96.8423 36.9183 98.8567L36.5354 99.2395C34.5211 101.254 31.7877 102.387 28.9364 102.387C26.0852 102.387 23.3518 101.254 21.3375 99.2395L20.9546 98.8567C18.9402 96.8423 16.2069 95.7094 13.3556 95.7094C10.5043 95.7094 7.77099 96.8423 5.75661 98.8567L2.22644 102.387V135.774Z" fill="#C7E2FC"/>
<path d="M2.22644 135.774L5.75661 132.244C7.77099 130.23 10.5043 129.097 13.3556 129.097C16.2069 129.097 18.9402 130.23 20.9546 132.244L21.3375 132.627C23.3518 134.641 26.0852 135.774 28.9364 135.774C31.7877 135.774 34.5211 134.641 36.5354 132.627L36.9183 132.244C38.9327 130.23 41.666 129.097 44.5173 129.097C47.3686 129.097 50.1019 130.23 52.1163 132.244L55.6464 135.774V102.387L52.1163 98.8567C50.1019 96.8423 47.3686 95.7094 44.5173 95.7094C41.666 95.7094 38.9327 96.8423 36.9183 98.8567L36.5354 99.2395C34.5211 101.254 31.7877 102.387 28.9364 102.387C26.0852 102.387 23.3518 101.254 21.3375 99.2395L20.9546 98.8567C18.9402 96.8423 16.2069 95.7094 13.3556 95.7094C10.5043 95.7094 7.77099 96.8423 5.75661 98.8567L2.22644 102.387V135.774Z" fill="#C7E2FC"/>
<path d="M53.6899 110.635C51.237 108.185 47.9806 106.836 44.5128 106.836C41.0494 106.836 37.7908 108.185 35.3401 110.635L34.9595 111.016C34.3496 111.626 33.6552 112.138 32.8939 112.539L30.2296 112.49L30.145 116.939L33.3458 116.999C33.7798 117.032 34.0091 116.937 34.3118 116.799C35.7296 116.153 37.0073 115.267 38.109 114.166L38.4897 113.785C41.7104 110.569 47.3151 110.562 50.5426 113.785L54.0727 117.313C54.4912 117.731 55.0543 117.963 55.6464 117.963V112.592L53.6899 110.635Z" fill="#EBF7FE"/>
<path d="M24.4848 115.742L20.9546 119.272C18.9402 121.286 16.2069 122.419 13.3556 122.419C10.5043 122.419 7.77099 121.286 5.75661 119.272L2.22644 115.742L5.75661 112.212C7.77099 110.197 10.5043 109.064 13.3556 109.064C16.2069 109.064 18.9402 110.197 20.9546 112.212L24.4848 115.742Z" fill="#E39854"/>
<path d="M24.4847 115.742L26.468 112.768C28.0105 110.453 30.608 109.064 33.3881 109.064V122.419C30.608 122.419 28.0105 121.03 26.468 118.715L24.4847 115.742Z" fill="#EFBE9A"/>
<path d="M60.0981 129.097L56.5679 132.627C54.5535 134.641 51.8202 135.774 48.9689 135.774C46.1176 135.774 43.3843 134.641 41.3699 132.627L37.8397 129.097L41.3699 125.567C43.3843 123.552 46.1176 122.419 48.9689 122.419C51.8202 122.419 54.5535 123.552 56.5679 125.567L60.0981 129.097Z" fill="#E39854"/>
<path d="M60.0981 129.097L62.0814 126.123C63.6239 123.808 66.2214 122.419 69.0015 122.419V135.774C66.2214 135.774 63.6239 134.385 62.0814 132.07L60.0981 129.097Z" fill="#EFBE9A"/>
<path d="M126.003 84.7159C124.877 82.0404 122.733 79.8969 120.058 78.7707C119.383 73.2729 114.749 68.9993 109.066 68.9993C103.384 68.9993 98.7497 73.2729 98.0731 78.7729C95.3976 79.8992 93.2541 82.0427 92.1279 84.7181C86.63 85.3925 82.3564 90.0267 82.3564 95.7093C82.3564 101.855 87.3401 106.838 93.4856 106.838C96.0053 106.838 98.3023 105.97 100.168 104.557C102.198 107.279 105.412 109.064 109.066 109.064C112.721 109.064 115.935 107.279 117.965 104.557C119.831 105.97 122.128 106.838 124.647 106.838C130.793 106.838 135.776 101.855 135.776 95.7093C135.776 90.0267 131.503 85.3925 126.003 84.7159Z" fill="#78B75B"/>
<path d="M124.645 102.382V97.9326C125.871 97.9326 126.871 96.9332 126.871 95.7068H131.32C131.32 99.3861 128.324 102.382 124.645 102.382Z" fill="#96CC7F"/>
<path d="M115.739 80.1239H111.29C111.29 78.8974 110.291 77.9003 109.064 77.9003V73.4486C112.743 73.4486 115.739 76.4446 115.739 80.1239Z" fill="#96CC7F"/>
<path d="M129.099 6.67603L123.757 13.7987C122.891 14.9539 122.421 16.3606 122.421 17.8052C122.421 21.4934 125.411 24.4827 129.099 24.4827C132.787 24.4827 135.776 21.4934 135.776 17.8052C135.776 16.3606 135.307 14.9539 134.441 13.7987L129.099 6.67603Z" fill="#C7E2FC"/>
<path d="M102.389 6.67603L97.0469 13.7987C96.1811 14.9539 95.7114 16.3606 95.7114 17.8052C95.7114 21.4934 98.7007 24.4827 102.389 24.4827C106.077 24.4827 109.066 21.4934 109.066 17.8052C109.066 16.3606 108.597 14.9539 107.731 13.7987L102.389 6.67603Z" fill="#C7E2FC"/>
<path d="M115.744 24.4827L110.402 31.6053C109.536 32.7605 109.066 34.1673 109.066 35.6118C109.066 39.3 112.056 42.2893 115.744 42.2893C119.432 42.2893 122.421 39.3 122.421 35.6118C122.421 34.1673 121.952 32.7605 121.086 31.6053L115.744 24.4827Z" fill="#C7E2FC"/>
<path d="M57.8722 22.2544H62.3216V26.7038H57.8722V22.2544Z" fill="#C1C8D1"/>
<path d="M66.7755 22.2544H71.225V26.7038H66.7755V22.2544Z" fill="#C1C8D1"/>
<path d="M75.6788 22.2544H80.1283V26.7038H75.6788V22.2544Z" fill="#C1C8D1"/>
<path d="M84.5823 22.2544H89.0317V26.7038H84.5823V22.2544Z" fill="#C1C8D1"/>
<path d="M111.29 48.9645H115.739V53.4139H111.29V48.9645Z" fill="#C1C8D1"/>
<path d="M111.29 57.8678H115.739V62.3172H111.29V57.8678Z" fill="#C1C8D1"/>
<path d="M71.2272 111.288H75.6766V115.737H71.2272V111.288Z" fill="#C1C8D1"/>
<path d="M80.1305 111.288H84.5799V115.737H80.1305V111.288Z" fill="#C1C8D1"/>
<path d="M62.3239 111.288H66.7733V115.737H62.3239V111.288Z" fill="#C1C8D1"/>
<path d="M22.2567 60.0936H26.7062V64.5431H22.2567V60.0936Z" fill="#C1C8D1"/>
<path d="M22.2567 68.9969H26.7062V73.4464H22.2567V68.9969Z" fill="#C1C8D1"/>
<path d="M22.2567 77.9003H26.7062V82.3497H22.2567V77.9003Z" fill="#C1C8D1"/>
<path d="M22.2567 86.8036H26.7062V91.253H22.2567V86.8036Z" fill="#C1C8D1"/>
<path d="M68.9969 53.4185C75.9771 53.4185 81.9001 58.0304 83.8744 64.3673L81.3614 62.6913L78.8908 66.3973L85.5683 70.849C85.9422 71.096 86.3718 71.2207 86.8058 71.2207C87.2354 71.2207 87.6672 71.096 88.0412 70.849L94.7187 66.3973L92.248 62.6913L88.6421 65.0974C86.8214 55.9136 78.7082 48.9668 68.9969 48.9668C59.7998 48.9668 51.809 55.1902 49.5676 64.1025L53.8857 65.1864C55.6286 58.2574 61.8431 53.4185 68.9969 53.4185Z" fill="#96CC7F"/>
<path d="M68.9991 84.5756C62.0189 84.5756 56.0938 79.9614 54.1194 73.6222L56.6346 75.2983L59.1053 71.5967L52.43 67.1451C51.6822 66.6443 50.7095 66.6465 49.9616 67.1428L43.2819 71.5945L45.7481 75.3005L49.3539 72.8966C51.1747 82.0804 59.2878 89.0272 68.9991 89.0272C78.1384 89.0272 86.1158 82.8572 88.3973 74.0162L84.0858 72.9055C82.3119 79.7767 76.1085 84.5756 68.9991 84.5756Z" fill="#78B75B"/>
<path d="M13.3556 26.7085C13.3556 29.6132 14.2927 32.2931 15.8686 34.4856C24.2266 31.6632 30.2519 23.7749 30.2519 14.4642C30.2519 14.2505 30.2274 14.0458 30.2207 13.8343C29.0989 13.5294 27.9259 13.3535 26.7106 13.3535C19.3342 13.3535 13.3556 19.3321 13.3556 26.7085Z" fill="#E39854"/>
<path d="M26.7106 42.2894C35.3001 42.2894 42.2914 35.298 42.2914 26.7085C42.2914 18.119 35.3001 11.1277 26.7106 11.1277C18.1211 11.1277 11.1298 18.119 11.1298 26.7085C11.1298 35.298 18.1211 42.2894 26.7106 42.2894ZM26.7106 15.5794C32.8472 15.5794 37.8398 20.5719 37.8398 26.7085C37.8398 32.8451 32.8472 37.8377 26.7106 37.8377C20.574 37.8377 15.5814 32.8451 15.5814 26.7085C15.5814 20.5719 20.574 15.5794 26.7106 15.5794Z" fill="black"/>
<path d="M6.67806 34.3073V42.2892C6.67806 43.3509 7.42816 44.2635 8.46763 44.4705L18.9357 46.5628L25.1369 52.7639C25.5709 53.2002 26.1407 53.4183 26.7106 53.4183C27.2804 53.4183 27.8502 53.2002 28.2842 52.7662L34.4854 46.565L44.9535 44.4727C45.993 44.2635 46.7431 43.3509 46.7431 42.2892V34.3073L52.7684 28.282C53.6387 27.4117 53.6387 26.005 52.7684 25.1347L46.7431 19.1093V11.1275C46.7431 10.0658 45.993 9.15318 44.9535 8.94618L34.4854 6.8539L28.2842 0.652726C27.4139 -0.217575 26.0072 -0.217575 25.1369 0.652726L18.9357 6.85167L8.46763 8.94618C7.42816 9.15318 6.67806 10.0658 6.67806 11.1275V19.1093L0.652726 25.1347C-0.217575 26.005 -0.217575 27.4117 0.652726 28.282L6.67806 34.3073ZM10.4776 21.6045C10.896 21.1883 11.1297 20.6229 11.1297 20.0308V12.9505L20.4693 11.083C20.8989 10.9962 21.2951 10.7847 21.6067 10.4753L26.7106 5.37149L31.8144 10.4753C32.126 10.7869 32.52 10.9962 32.9518 11.083L42.2914 12.9505V20.0308C42.2914 20.6229 42.5251 21.1883 42.9436 21.6045L48.0474 26.7083L42.9436 31.8122C42.5251 32.2284 42.2914 32.7938 42.2914 33.3858V40.4662L32.9518 42.3337C32.5222 42.4205 32.126 42.6319 31.8144 42.9413L26.7106 48.0452L21.6067 42.9413C21.2951 42.6297 20.9011 42.4205 20.4693 42.3337L11.1297 40.4662V33.3858C11.1297 32.7938 10.896 32.2284 10.4776 31.8122L5.37372 26.7083L10.4776 21.6045Z" fill="black"/>
<path d="M4.183 97.283L0.652832 100.813L3.80016 103.961L7.33033 100.43C8.91735 98.8433 11.112 97.9352 13.3557 97.9352C15.5993 97.9352 17.794 98.8433 19.381 100.43L19.7638 100.813C22.1789 103.228 25.5221 104.613 28.9365 104.613C32.3509 104.613 35.6941 103.228 38.1092 100.813L38.492 100.43C40.079 98.8433 42.2737 97.9352 44.5173 97.9352C46.761 97.9352 48.9557 98.8433 50.5427 100.43L54.0728 103.961L57.2202 100.813L53.69 97.283C51.275 94.868 47.9318 93.4835 44.5173 93.4835C41.1029 93.4835 37.7597 94.868 35.3447 97.283L34.9618 97.6659C33.3748 99.2529 31.1801 100.161 28.9365 100.161C26.6929 100.161 24.4982 99.2529 22.9112 97.6659L22.5283 97.283C20.1133 94.868 16.7701 93.4835 13.3557 93.4835C9.94124 93.4835 6.59803 94.868 4.183 97.283Z" fill="black"/>
<path d="M4.1829 120.846C6.59793 123.261 9.94113 124.645 13.3556 124.645C16.77 124.645 20.1132 123.261 22.5282 120.846L24.1375 119.236L24.6138 119.951C26.5748 122.891 29.8534 124.645 33.3881 124.645C34.6189 124.645 35.6139 123.65 35.6139 122.419V116.062C36.5109 115.521 37.3634 114.916 38.1091 114.168L38.4919 113.785C40.0789 112.198 42.2736 111.29 44.5172 111.29C46.7609 111.29 48.9555 112.198 50.5426 113.785L54.0727 117.315L57.2201 114.168L53.6899 110.638C51.2749 108.223 47.9317 106.838 44.5172 106.838C41.223 106.838 38.0067 108.136 35.6139 110.395V109.064C35.6139 107.833 34.6189 106.838 33.3881 106.838C29.8534 106.838 26.5748 108.592 24.6161 111.533L24.1397 112.247L22.5304 110.638C20.1132 108.223 16.77 106.838 13.3556 106.838C9.94113 106.838 6.59793 108.223 4.1829 110.638L0.652726 114.168C-0.217575 115.038 -0.217575 116.445 0.652726 117.315L4.1829 120.846ZM28.3198 114.003C29.021 112.948 30.0204 112.158 31.1622 111.711V119.775C30.0181 119.328 29.021 118.535 28.3198 117.482L27.1602 115.742L28.3198 114.003ZM7.33023 113.785C8.91725 112.198 11.1119 111.29 13.3556 111.29C15.5992 111.29 17.7939 112.198 19.3809 113.785L21.3374 115.742L19.3809 117.698C17.7939 119.285 15.5992 120.193 13.3556 120.193C11.1119 120.193 8.91725 119.285 7.33023 117.698L5.37372 115.742L7.33023 113.785Z" fill="black"/>
<path d="M69.0015 120.193C65.4669 120.193 62.1882 121.947 60.2295 124.888L59.7532 125.602L58.1439 123.993C55.7266 121.578 52.3834 120.193 48.969 120.193C45.5546 120.193 42.2114 121.578 39.7963 123.993L36.2662 127.523C35.5472 128.242 35.4582 129.315 35.9278 130.161C35.7342 130.332 35.5272 130.488 35.3447 130.67L34.9618 131.053C33.3748 132.64 31.1801 133.548 28.9365 133.548C26.6929 133.548 24.4982 132.64 22.9112 131.053L22.5283 130.67C20.1133 128.255 16.7701 126.871 13.3557 126.871C9.94124 126.871 6.59803 128.255 4.183 130.67L0.652832 134.201L3.80016 137.348L7.33033 133.818C8.91735 132.231 11.112 131.323 13.3557 131.323C15.5993 131.323 17.794 132.231 19.381 133.818L19.7638 134.201C22.1789 136.616 25.5221 138 28.9365 138C32.3509 138 35.6941 136.616 38.1092 134.201L38.492 133.818C38.6456 133.664 38.8192 133.531 38.9839 133.388L39.7963 134.201C42.2114 136.616 45.5546 138 48.969 138C52.3834 138 55.7266 136.616 58.1417 134.201L59.7509 132.591L60.2273 133.306C62.1882 136.246 65.4669 138 69.0015 138C70.2324 138 71.2273 137.005 71.2273 135.774V122.419C71.2273 121.188 70.2324 120.193 69.0015 120.193ZM54.9943 131.053C53.4073 132.64 51.2126 133.548 48.969 133.548C46.7254 133.548 44.5307 132.64 42.9437 131.053L40.9872 129.097L42.9437 127.14C44.5307 125.553 46.7254 124.645 48.969 124.645C51.2126 124.645 53.4073 125.553 54.9943 127.14L56.9508 129.097L54.9943 131.053ZM66.7757 133.13C65.6316 132.683 64.6344 131.89 63.9333 130.837L62.7736 129.097L63.9333 127.358C64.6344 126.303 65.6338 125.513 66.7757 125.066V133.13Z" fill="black"/>
<path d="M127.512 82.7193C126.27 80.42 124.356 78.5036 122.056 77.2638C120.73 71.2028 115.35 66.7734 109.066 66.7734C102.783 66.7734 97.4031 71.2028 96.0765 77.2638C93.7772 78.5058 91.8608 80.42 90.621 82.7193C84.56 84.0459 80.1306 89.4257 80.1306 95.7093C80.1306 102.596 85.3702 108.279 92.0722 108.989L93.884 112.61C95.0793 115.003 95.7115 117.68 95.7115 120.356C95.7115 124.078 94.4806 127.768 92.2481 130.746L89.4791 134.437C88.9716 135.113 88.8915 136.015 89.2677 136.769C89.6461 137.524 90.4162 138 91.2598 138H126.873C127.717 138 128.487 137.524 128.865 136.769C129.241 136.015 129.161 135.113 128.654 134.437L125.885 130.748C123.652 127.768 122.421 124.078 122.421 120.356C122.421 117.68 123.054 115.003 124.249 112.61L126.061 108.989C132.763 108.279 138.002 102.596 138.002 95.7093C138.002 89.4257 133.573 84.0459 127.512 82.7193ZM95.7115 133.548L95.8094 133.417C98.6184 129.673 100.163 125.035 100.163 120.356C100.163 116.993 99.3707 113.627 97.8661 110.618L96.8622 108.612C97.363 108.479 97.8549 108.319 98.3379 108.125L104.931 119.112C105.265 119.668 105.826 120.053 106.467 120.162C106.594 120.182 106.716 120.193 106.841 120.193C107.357 120.193 107.862 120.013 108.267 119.679L121.075 109.004L120.267 110.618C118.762 113.627 117.97 116.993 117.97 120.356C117.97 125.035 119.515 129.673 122.324 133.419L122.421 133.548H95.7115ZM105.056 110.667C106.333 111.072 107.682 111.29 109.066 111.29C109.959 111.29 110.834 111.201 111.686 111.032L107.413 114.595L105.056 110.667ZM124.647 104.613C122.738 104.613 120.89 103.98 119.31 102.783C118.836 102.425 118.239 102.267 117.654 102.356C117.066 102.438 116.539 102.754 116.182 103.228C114.469 105.521 111.875 106.838 109.066 106.838C106.257 106.838 103.664 105.521 101.953 103.226C101.597 102.752 101.069 102.438 100.481 102.353C100.377 102.338 100.272 102.331 100.168 102.331C99.6846 102.331 99.2127 102.487 98.8232 102.781C97.2406 103.98 95.3954 104.613 93.4856 104.613C88.5754 104.613 84.5823 100.619 84.5823 95.7093C84.5823 91.2509 87.9433 87.4737 92.4016 86.9261C93.1918 86.8304 93.8729 86.3163 94.1823 85.5817C95.0771 83.4538 96.811 81.7221 98.9389 80.8251C99.6734 80.5157 100.19 79.8369 100.283 79.0445C100.831 74.5861 104.608 71.2251 109.066 71.2251C113.525 71.2251 117.302 74.5861 117.85 79.0445C117.945 79.8346 118.459 80.5157 119.194 80.8251C121.322 81.7199 123.054 83.4538 123.951 85.5817C124.26 86.3163 124.939 86.8326 125.731 86.9261C130.19 87.4737 133.551 91.2509 133.551 95.7093C133.551 100.619 129.557 104.613 124.647 104.613Z" fill="black"/>
<path d="M124.647 97.9352V102.387C128.329 102.387 131.325 99.3909 131.325 95.7094H126.873C126.873 96.938 125.876 97.9352 124.647 97.9352Z" fill="black"/>
<path d="M109.066 73.4509V77.9026C110.295 77.9026 111.292 78.8998 111.292 80.1284H115.744C115.744 76.4469 112.748 73.4509 109.066 73.4509Z" fill="black"/>
<path d="M129.099 26.7084C134.009 26.7084 138.002 22.7152 138.002 17.805C138.002 15.8953 137.37 13.9989 136.222 12.4653L130.88 5.34259C130.04 4.22077 128.157 4.22077 127.318 5.34259L121.974 12.4675C120.828 13.9989 120.196 15.8953 120.196 17.805C120.196 22.7152 124.189 26.7084 129.099 26.7084ZM125.535 15.134L129.099 10.3863L132.66 15.1318C133.232 15.9019 133.551 16.8479 133.551 17.805C133.551 20.2601 131.554 22.2567 129.099 22.2567C126.644 22.2567 124.647 20.2601 124.647 17.805C124.647 16.8479 124.966 15.9019 125.535 15.134Z" fill="black"/>
<path d="M102.389 26.7084C107.299 26.7084 111.292 22.7152 111.292 17.805C111.292 15.8953 110.66 13.9989 109.512 12.4653L104.17 5.34259C103.33 4.22077 101.447 4.22077 100.608 5.34259L95.264 12.4675C94.1177 13.9989 93.4856 15.8953 93.4856 17.805C93.4856 22.7152 97.4787 26.7084 102.389 26.7084ZM98.8254 15.134L102.389 10.3863L105.95 15.1318C106.522 15.9019 106.841 16.8479 106.841 17.805C106.841 20.2601 104.844 22.2567 102.389 22.2567C99.9338 22.2567 97.9373 20.2601 97.9373 17.805C97.9373 16.8479 98.2556 15.9019 98.8254 15.134Z" fill="black"/>
<path d="M106.841 35.6118C106.841 40.522 110.834 44.5151 115.744 44.5151C120.654 44.5151 124.647 40.522 124.647 35.6118C124.647 33.702 124.015 31.8056 122.867 30.272L117.525 23.1493C116.685 22.0275 114.802 22.0275 113.963 23.1493L108.619 30.2742C107.473 31.8056 106.841 33.702 106.841 35.6118ZM112.18 32.9408L115.744 28.1931L119.305 32.9386C119.877 33.7087 120.196 34.6547 120.196 35.6118C120.196 38.0669 118.199 40.0634 115.744 40.0634C113.289 40.0634 111.292 38.0669 111.292 35.6118C111.292 34.6547 111.611 33.7087 112.18 32.9408Z" fill="black"/>
<path d="M57.8723 22.2568H62.324V26.7085H57.8723V22.2568Z" fill="black"/>
<path d="M66.7756 22.2568H71.2273V26.7085H66.7756V22.2568Z" fill="black"/>
<path d="M75.679 22.2568H80.1306V26.7085H75.679V22.2568Z" fill="black"/>
<path d="M84.5823 22.2568H89.0339V26.7085H84.5823V22.2568Z" fill="black"/>
<path d="M111.292 48.9668H115.744V53.4185H111.292V48.9668Z" fill="black"/>
<path d="M111.292 57.8701H115.744V62.3218H111.292V57.8701Z" fill="black"/>
<path d="M71.2273 111.29H75.679V115.742H71.2273V111.29Z" fill="black"/>
<path d="M80.1306 111.29H84.5823V115.742H80.1306V111.29Z" fill="black"/>
<path d="M62.324 111.29H66.7756V115.742H62.324V111.29Z" fill="black"/>
<path d="M22.2589 60.0959H26.7106V64.5476H22.2589V60.0959Z" fill="black"/>
<path d="M22.2589 68.9993H26.7106V73.4509H22.2589V68.9993Z" fill="black"/>
<path d="M22.2589 77.9026H26.7106V82.3543H22.2589V77.9026Z" fill="black"/>
<path d="M22.2589 86.806H26.7106V91.2577H22.2589V86.806Z" fill="black"/>
<path d="M53.8903 65.1864C55.6309 58.2574 61.8432 53.4185 69.0014 53.4185C75.9817 53.4185 81.9046 58.0348 83.8811 64.3718L81.366 62.6957L78.8975 66.3995L85.575 70.8512C85.9467 71.1005 86.3785 71.2251 86.8081 71.2251C87.2377 71.2251 87.6695 71.1005 88.0435 70.8512L94.721 66.3995L92.2525 62.6957L88.6489 65.0974C86.8259 55.9136 78.7128 48.9668 69.0014 48.9668C59.7999 48.9668 51.8091 55.1925 49.5721 64.1047L53.8903 65.1864Z" fill="black"/>
<path d="M88.3995 74.0206L84.0858 72.9077C82.3141 79.781 76.1085 84.5799 69.0014 84.5799C62.0212 84.5799 56.0982 79.9636 54.1217 73.6266L56.6369 75.3027L59.1053 71.5989L52.4278 67.1472C51.6799 66.6464 50.7072 66.6464 49.9594 67.1472L43.2819 71.5989L45.7503 75.3027L49.3539 72.901C51.1769 82.0848 59.2901 89.0316 69.0014 89.0316C78.1406 89.0316 86.1158 82.8594 88.3995 74.0206Z" fill="black"/>
</svg>
