<svg width="74" height="74" viewBox="0 0 74 74" fill="none" xmlns="http://www.w3.org/2000/svg">
<path d="M16.3166 1.88851C16.1616 1.3101 15.5672 0.966984 14.9888 1.12192L3.75796 4.13121C3.17955 4.28614 2.83643 4.8806 2.99137 5.45902L4.04196 9.38C4.13692 9.73454 4.50143 9.94498 4.85596 9.85002L16.8973 6.6235C17.2518 6.52855 17.4623 6.16404 17.3673 5.8095L16.3166 1.88851Z" fill="#4073C8"/>
<path d="M4.38608 10.6636L5.1534 13.5275C5.30834 14.106 5.90279 14.4491 6.48121 14.2941L17.712 11.2848C18.2904 11.1299 18.6335 10.5355 18.4786 9.95704L17.7113 7.09315C17.6163 6.73861 17.2518 6.52818 16.8973 6.62313L4.85595 9.84965C4.50142 9.94461 4.29113 10.309 4.38608 10.6636Z" fill="#3B66C1"/>
<path d="M70.4155 47.25H30.5189V49.8395C30.5189 50.7576 29.7747 51.5018 28.8567 51.5018H70.4155C70.7636 51.5018 71.0457 51.2196 71.0457 50.8716V47.8803C71.0458 47.5323 70.7637 47.25 70.4155 47.25Z" fill="#9BB9C1"/>
<path d="M28.8567 51.5017C29.7747 51.5017 30.5189 52.2459 30.5189 53.1639V56.9777C30.5189 57.8957 29.7747 58.6399 28.8567 58.6399C29.7747 58.6399 30.5189 59.3841 30.5189 60.3021V64.1158C30.5189 65.0339 29.7747 65.7781 28.8567 65.7781C29.7747 65.7781 30.5189 66.5223 30.5189 67.4403V70.6632C30.5189 71.9075 29.5102 72.9161 28.266 72.9161H55.7719C59.6858 72.9161 63.1116 70.2874 64.1246 66.507L68.1451 51.5019H28.8567V51.5017Z" fill="#86A0AF"/>
<path d="M61.5894 51.5017L59.8855 57.8604C57.9628 65.0359 51.4604 70.0254 44.0319 70.0254H30.5189V70.663C30.5189 71.9073 29.5102 72.916 28.266 72.916H55.7719C59.6858 72.916 63.1116 70.2872 64.1246 66.5068L68.1451 51.5017H61.5894Z" fill="#738B95"/>
<path d="M30.519 49.8394V34.3848C30.519 33.0635 30.3458 31.7479 30.0037 30.4715L28.8692 26.2372C27.7399 22.0232 24.6221 18.8731 20.7959 17.5261C19.4707 17.0596 18.4452 15.9934 18.0816 14.6362L17.219 11.417L6.97418 14.162L7.83673 17.3813C8.20037 18.7384 7.84541 20.1745 6.93096 21.2413C4.29084 24.3209 3.16567 28.6079 4.29474 32.822L6.02462 39.2783C5.43653 39.807 5.07751 40.5714 5.07751 41.4023V49.8397C5.07751 50.7577 5.8217 51.5019 6.73975 51.5019C5.8217 51.5019 5.07751 52.2461 5.07751 53.1642V56.9779C5.07751 57.8959 5.8217 58.6401 6.73975 58.6401C5.8217 58.6401 5.07751 59.3843 5.07751 60.3023V64.116C5.07751 65.0341 5.8217 65.7783 6.73975 65.7783C5.8217 65.7783 5.07751 66.5225 5.07751 67.4405V70.6634C5.07751 71.9076 6.08619 72.9163 7.33045 72.9163H28.2657C29.51 72.9163 30.5187 71.9076 30.5187 70.6634V67.4405C30.5187 66.5225 29.7745 65.7783 28.8564 65.7783C29.7745 65.7783 30.5187 65.0341 30.5187 64.116V60.3023C30.5187 59.3843 29.7745 58.6401 28.8564 58.6401C29.7745 58.6401 30.5187 57.8959 30.5187 56.9779V53.1642C30.5187 52.2461 29.7745 51.5019 28.8564 51.5019C29.7748 51.5016 30.519 50.7574 30.519 49.8394Z" fill="#B1E4F9"/>
<path d="M24.7378 64.5494C24.7378 67.5737 22.2861 70.0252 19.262 70.0252H5.07782V70.6629C5.07782 71.9071 6.08649 72.9158 7.33075 72.9158H28.266C29.5103 72.9158 30.519 71.9071 30.519 70.6629V67.44C30.519 66.5219 29.7748 65.7777 28.8567 65.7777C29.7748 65.7777 30.519 65.0336 30.519 64.1155V60.3018C30.519 59.3837 29.7748 58.6396 28.8567 58.6396C29.7748 58.6396 30.519 57.8954 30.519 56.9773V53.1636C30.519 52.2456 29.7748 51.5014 28.8567 51.5014C29.7748 51.5014 30.519 50.7572 30.519 49.8391V34.3846C30.519 33.0633 30.3458 31.7476 30.0037 30.4713L28.8692 26.237C27.74 22.0229 24.6222 18.8729 20.7959 17.5259C19.4707 17.0593 18.4452 15.9931 18.0816 14.636L17.219 11.4167L12.6561 12.6393C13.1563 13.565 13.997 14.277 15.0147 14.6353C18.841 15.9823 21.9589 19.1323 23.088 23.3464L24.2225 27.5807C24.5645 28.857 24.7378 30.1727 24.7378 31.494V64.5494Z" fill="#90D8F9"/>
<path d="M66.5642 19.2683H35.1989C34.6458 19.2683 34.1973 19.7168 34.1973 20.2699V22.3433C34.1973 22.8964 34.6458 23.3449 35.1989 23.3449H66.5642C67.1173 23.3449 67.5658 22.8964 67.5658 22.3433V20.2699C67.5658 19.7168 67.1173 19.2683 66.5642 19.2683Z" fill="#F1F4F6"/>
<path d="M62.1017 47.2498L64.1932 23.3447H37.5701L39.6614 47.2498H62.1017Z" fill="#DFEAEF"/>
<path d="M58.1591 23.3447L57.1549 34.8234C56.6829 40.2193 52.1647 44.3594 46.7483 44.3594H39.4087L39.6616 47.25H62.1019L64.1934 23.3449H58.1591V23.3447Z" fill="#D0E2E7"/>
<path d="M63.6904 29.0913C64.2918 29.1429 64.8128 28.6984 64.8647 28.1059L65.1864 24.4287H66.5642C67.7141 24.4287 68.6498 23.4932 68.6498 22.3432V20.2697C68.6498 19.1197 67.7141 18.1842 66.5642 18.1842H35.199C34.0489 18.1842 33.1134 19.1197 33.1134 20.2697V22.3432C33.1134 23.4932 34.0489 24.4287 35.199 24.4287H36.5768L38.4785 46.1659H31.6029V34.3847C31.6029 32.9691 31.4172 31.5581 31.0508 30.1908L29.9162 25.9566C28.7363 21.5532 25.4614 18.0194 21.1559 16.5036C20.1522 16.1502 19.3943 15.3472 19.1287 14.3556L18.5267 12.109C19.3481 11.6279 19.7836 10.6396 19.5257 9.67642L18.7583 6.81271C18.6981 6.5884 18.5964 6.38244 18.4595 6.20323C18.4878 5.98383 18.475 5.75547 18.4143 5.52885L17.3637 1.6079C17.2138 1.04857 16.8549 0.581016 16.3534 0.291522C15.8518 0.00188447 15.2677 -0.0751499 14.7082 0.074872L11.8163 0.849552C11.2381 1.00449 10.895 1.59894 11.0499 2.1772C11.2048 2.75547 11.799 3.09844 12.3776 2.94364L15.2695 2.16882L16.2115 5.68465C15.3115 5.92587 6.65908 8.24413 4.98052 8.69391L4.03847 5.17793L7.42986 4.26913C8.00813 4.11419 8.35124 3.51974 8.1963 2.94148C8.04137 2.36336 7.44706 2.02039 6.86865 2.17503L3.47741 3.08398C2.32276 3.39342 1.63508 4.58449 1.94438 5.73943L2.99511 9.66023C3.05581 9.88686 3.15872 10.0912 3.29313 10.2671C3.26422 10.4907 3.27897 10.7199 3.33909 10.9442L4.10654 13.808C4.37176 14.7978 5.26235 15.4118 6.18806 15.4158L6.78988 17.6617C7.05567 18.6535 6.80087 19.7277 6.10828 20.5355C3.13733 24.0011 2.06809 28.6989 3.24804 33.1023L4.82399 38.9837C4.29067 39.6703 3.99395 40.5214 3.99395 41.402V49.8392C3.99395 50.4635 4.20338 51.0397 4.55545 51.5015C4.20323 51.9632 3.99395 52.5395 3.99395 53.1637V56.9774C3.99395 57.6016 4.20323 58.1779 4.55545 58.6395C4.20323 59.1013 3.99395 59.6775 3.99395 60.3018V64.1155C3.99395 64.7397 4.20338 65.3159 4.55545 65.7777C4.20323 66.2395 3.99395 66.8157 3.99395 67.4399V70.6628C3.99395 72.5028 5.49085 73.9997 7.33086 73.9997H55.7722C60.1687 73.9997 64.034 71.0338 65.1718 66.7871L68.9772 52.5854H70.4158C71.361 52.5854 72.1299 51.8166 72.1299 50.8713V47.88C72.1299 46.9348 71.361 46.1659 70.4158 46.1659H63.285L64.4203 33.1888C64.4723 32.5925 64.0314 32.0667 63.4349 32.0145C62.8425 31.9631 62.3128 32.4035 62.2606 32.9999L61.1088 46.1659H40.6548L38.7531 24.4287H63.0103L62.705 27.917C62.653 28.5133 63.0939 29.0391 63.6904 29.0913ZM6.73988 64.6939C6.42104 64.6939 6.16161 64.4344 6.16161 64.1156V60.3019C6.16161 59.9831 6.42104 59.7236 6.73988 59.7236H28.8568C29.1757 59.7236 29.435 59.9831 29.435 60.3019V64.1156C29.435 64.4344 29.1757 64.6939 28.8568 64.6939H6.73988ZM28.8568 52.5856C29.1757 52.5856 29.435 52.845 29.435 53.1639V56.9776C29.435 57.2964 29.1757 57.5557 28.8568 57.5557H6.73988C6.42104 57.5557 6.16161 57.2964 6.16161 56.9776V53.1639C6.16161 52.845 6.42104 52.5856 6.73988 52.5856H28.8568ZM31.0414 65.7778C31.3936 65.3161 31.6029 64.7398 31.6029 64.1156V60.3019C31.6029 59.6777 31.3936 59.1014 31.0414 58.6397C31.3936 58.1779 31.6029 57.6016 31.6029 56.9776V53.1639C31.6029 52.9656 31.5818 52.772 31.5416 52.5856H33.9111V71.8319H31.3916C31.5282 71.468 31.6029 71.074 31.6029 70.6629V67.4401C31.6029 66.8159 31.3936 66.2396 31.0414 65.7778ZM16.7726 7.77889L17.4313 10.2378C-2.14798 15.4838 13.4297 11.3099 6.20035 13.2469L5.54144 10.7881L16.7726 7.77889ZM7.7539 21.9466C8.91245 20.5954 9.33477 18.7837 8.88369 17.1006L8.30167 14.9285L16.4524 12.7445L17.0344 14.9166C17.4855 16.5997 18.757 17.9574 20.4358 18.5484C24.0663 19.8265 26.8275 22.8057 27.822 26.5176L28.9566 30.7519C29.274 31.9362 29.4348 33.1585 29.4348 34.3847V49.8392C29.4348 50.1581 29.1755 50.4175 28.8567 50.4175H6.73988C6.42104 50.4175 6.16161 50.1581 6.16161 49.8392V41.402C6.16161 40.6081 6.69348 39.9002 7.47438 39.6912L23.2923 35.4527C23.8706 35.2978 24.2137 34.7034 24.0589 34.1251C23.904 33.547 23.3094 33.2039 22.7312 33.3587C5.98254 37.8488 6.90493 37.5941 6.71256 37.657L5.34184 32.5413C4.34719 28.8294 5.24891 24.8687 7.7539 21.9466ZM6.16161 70.6629V67.4401C6.16161 67.1212 6.42104 66.8618 6.73988 66.8618H28.8568C29.1757 66.8618 29.435 67.1212 29.435 67.4401V70.6629C29.435 71.3076 28.9106 71.8319 28.266 71.8319H7.33072C6.68611 71.8319 6.16161 71.3076 6.16161 70.6629ZM44.2964 52.5856H50.3312L48.4854 66.3628C48.0267 69.7862 46.548 71.8319 45.3834 71.8319H42.4015C43.0052 70.2508 43.2555 68.1234 43.359 66.5791L44.2964 52.5856ZM58.5342 52.5856L55.7796 66.2931C55.1241 69.5543 52.9849 71.8319 50.5777 71.8319H48.8436C49.7132 70.5525 50.3505 68.7692 50.6343 66.6507L52.5187 52.5856H58.5342ZM63.0776 66.2262C62.1932 69.5267 59.189 71.8319 55.7719 71.8319H55.3461C56.572 70.5567 57.4891 68.7891 57.9049 66.7202L60.7453 52.5856H66.7326L63.0776 66.2262ZM69.9619 48.334V50.4176C66.5654 50.4176 45.3149 50.4176 41.8885 50.4176C41.2897 50.4176 40.8045 50.903 40.8045 51.5016C40.8045 52.1003 41.2897 52.5856 41.8885 52.5856H42.1235L41.1958 66.4342C40.9739 69.7471 40.3386 71.419 40.004 71.8319H36.079V52.5856H36.83C37.4286 52.5856 37.9139 52.1003 37.9139 51.5016C37.9139 50.903 37.4288 50.4176 36.83 50.4176H31.5416C31.5749 50.266 31.5971 50.0916 31.602 49.9077C31.6033 49.8553 31.6029 49.9384 31.6029 48.3338H69.9619V48.334ZM35.2813 20.3521H66.4817V22.2609H35.2813V20.3521Z" fill="black"/>
</svg>
