<svg width="106" height="106" viewBox="0 0 106 106" fill="none" xmlns="http://www.w3.org/2000/svg">
<g clip-path="url(#clip0)">
<path fill-rule="evenodd" clip-rule="evenodd" d="M6.59338 24.4735C8.00865 40.4814 0.415155 38.8131 2.62915 51.3905C3.40427 55.8081 5.91805 59.4856 9.34773 61.8412C11.2036 60.4195 13.5291 59.5736 16.0487 59.5736C16.865 59.5736 17.658 59.6618 18.4213 59.832C20.1537 56.0195 23.9946 53.3641 28.458 53.3641C29.1451 53.3641 29.8204 53.4287 30.4724 53.5463C30.073 52.4066 29.8556 51.1789 29.8556 49.8982C29.8556 46.7613 31.1653 43.9297 33.2677 41.9265C30.484 33.9665 24.9693 35.5292 21.34 21.877L18.1687 22.4351L9.76469 23.9154L6.59338 24.4735Z" fill="#FFDA8F"/>
<path fill-rule="evenodd" clip-rule="evenodd" d="M21.9979 82.895C22.5735 89.1865 25.4336 95.5956 30.3256 100.971C31.2301 101.958 32.4104 102.868 33.6378 103.415C34.3778 103.744 35.0649 103.931 35.7402 103.937H35.7696C36.6388 103.931 37.4845 103.614 38.383 102.868C41.2313 100.501 44.526 100.501 47.3802 102.868C48.2729 103.614 49.1186 103.931 49.9877 103.937H50.0171C50.6925 103.931 51.3856 103.744 52.1255 103.415C53.353 102.868 54.5333 101.958 55.432 100.971C56.172 100.16 56.8651 99.3259 57.5052 98.4681C55.5672 96.6235 54.3573 94.0095 54.3573 91.1192C54.3573 85.7322 58.5563 81.3206 63.8596 80.9916C63.9478 75.7692 62.4266 70.717 59.1321 66.5052C56.0312 62.5399 51.9377 62.3107 47.4158 64.7721C46.1649 65.4537 44.8494 66.1232 42.882 66.1232C40.9088 66.1232 39.5931 65.4535 38.3422 64.7721C34.3664 62.6045 30.7193 62.5221 27.7828 65.2421C29.85 67.0983 31.1539 69.7949 31.1539 72.7967C31.1537 78.0602 27.1366 82.3957 21.9979 82.895Z" fill="#FF7D95"/>
<path fill-rule="evenodd" clip-rule="evenodd" d="M45.3661 6.94973C42.6057 13.8406 42.9347 21.8885 46.9693 28.7969C50.3638 29.6134 55.4264 28.0508 59.8719 25.4484C64.3059 22.8578 68.1292 19.2273 69.0805 15.8788C65.0577 8.97635 58.2215 4.73491 50.8688 3.74799C48.0088 3.36622 46.4408 4.27095 45.3661 6.94973Z" fill="#E7E9EF"/>
<path fill-rule="evenodd" clip-rule="evenodd" d="M77.9018 66.7109C76.1163 71.7629 73.8436 77.0795 74.8185 81.6849C75.8522 86.5313 80.0806 87.9178 82.8819 82.8656C85.5775 78.0192 86.8285 75.9102 88.7314 74.935C90.5108 73.7543 92.9658 73.7013 98.5097 73.7367C104.289 73.7719 105.152 69.4013 101.44 66.1294C97.9047 63.0158 92.1553 62.3815 86.8813 61.4592C84.497 61.042 82.7585 61.236 81.2435 62.1171C79.7282 63.004 78.7063 64.4257 77.9018 66.7109Z" fill="#E7E9EF"/>
<path fill-rule="evenodd" clip-rule="evenodd" d="M7.1631 13.1885L9.76487 23.9152L18.1689 22.4349L16.959 11.4672C19.132 10.6741 20.5179 8.55927 20.0775 6.06268C19.6369 3.56008 16.6302 1.73324 14.4512 2.1208C12.2724 2.50257 11.3973 3.58348 10.7866 5.08156C9.70586 3.88326 8.50798 3.16051 6.33498 3.54828C4.15618 3.93005 1.94799 6.67342 2.38834 9.17021C2.82891 11.6728 4.84912 13.1885 7.1631 13.1885Z" fill="white"/>
<path d="M56.5704 14.5963C55.7549 15.3977 55.7438 16.7088 56.5454 17.5243C56.9508 17.9365 57.4861 18.1433 58.0219 18.1433C58.5459 18.1433 59.0701 17.9456 59.4732 17.5494L59.4792 17.5436C60.2947 16.7422 60.303 15.4341 59.5012 14.6186C58.7 13.8029 57.3861 13.7949 56.5704 14.5963Z" fill="black"/>
<path d="M102.809 64.5753C99.2329 61.4264 94.0529 60.5616 89.0434 59.7256C88.438 59.6246 87.8352 59.5238 87.2383 59.4194C85.2703 59.0753 83.6007 59.1029 82.1238 59.5153L79.7995 55.5274L82.0006 54.2412C82.9879 53.6642 83.3204 52.3961 82.7434 51.4088C82.1662 50.4214 80.8984 50.0889 79.911 50.6659L77.7142 51.9497L75.5255 48.1944L82.4521 44.1492C83.4395 43.5726 83.7726 42.3046 83.196 41.317C82.6192 40.3297 81.3514 39.9966 80.3638 40.5732L73.4403 44.6165L71.2513 40.8607L82.9043 34.0569C83.8918 33.4803 84.2249 32.2124 83.6484 31.2249C83.072 30.2373 81.8035 29.904 80.8164 30.4808L69.1663 37.283L66.9786 33.5296L73.8951 29.4927C74.8827 28.9163 75.216 27.6484 74.6396 26.6607C74.063 25.6731 72.795 25.34 71.8076 25.9162L64.8934 29.9516L62.6809 26.1553C66.7733 23.4111 70.0984 19.8665 71.0725 16.4462C71.2267 15.9044 71.1536 15.3232 70.87 14.8365C66.6538 7.6022 59.4642 2.81274 51.1434 1.69581C47.3222 1.18672 44.8766 2.61006 43.4446 6.17969C40.3209 13.9777 40.9542 22.602 45.182 29.8409C45.4662 30.3276 45.9366 30.6773 46.4844 30.8096C47.2479 30.9936 48.0729 31.0808 48.9429 31.0808C52.0239 31.0808 55.6648 29.9877 59.1069 28.2463L61.3174 32.0389L54.3655 36.0965C53.3779 36.6729 53.0446 37.941 53.621 38.9285C54.0058 39.5879 54.699 39.9556 55.4112 39.9556C55.7656 39.9556 56.1248 39.8645 56.4529 39.673L63.4026 35.6168L65.5905 39.3709L53.9131 46.1891C52.9255 46.7657 52.5924 48.0335 53.169 49.0211C53.5539 49.6805 54.247 50.048 54.959 50.048C55.3137 50.048 55.6729 49.9569 56.001 49.7651L67.6757 42.9486L69.8648 46.7048L62.9218 50.7595C61.9345 51.3361 61.6014 52.6042 62.178 53.5917C62.5631 54.2509 63.256 54.6184 63.9678 54.6184C64.3224 54.6184 64.6818 54.5273 65.01 54.3356L71.9499 50.2827L74.1392 54.0393L71.93 55.3306C70.9429 55.9076 70.6102 57.1756 71.1872 58.163C71.5722 58.8217 72.265 59.1892 72.9767 59.1892C73.3316 59.1892 73.6912 59.0979 74.0196 58.906L76.2246 57.6172L78.5473 61.6026C77.4596 62.688 76.6151 64.1323 75.9499 66.0212C75.7449 66.6013 75.5336 67.185 75.3214 67.7704C73.5945 72.5359 71.8091 77.4636 72.7939 82.1171C73.4956 85.407 75.5091 87.6862 78.0488 88.0651C78.242 88.0939 78.4831 88.1166 78.762 88.1166C80.2133 88.1166 82.6819 87.497 84.692 83.8723C87.2555 79.2636 88.3492 77.4583 89.6763 76.778C89.7452 76.7426 89.8121 76.7034 89.8767 76.6606C91.1094 75.8428 93.3345 75.7747 98.4975 75.8076C103.445 75.8449 104.981 73.2044 105.413 72.0707C106.328 69.6704 105.331 66.7986 102.809 64.5753ZM58.8446 23.6519C58.8396 23.6548 58.8344 23.6569 58.8295 23.6598C58.8206 23.6649 58.8127 23.6711 58.8038 23.6765C54.9352 25.9367 50.9441 27.1522 48.292 26.9176C45.1364 20.9683 44.7619 14.026 47.2875 7.72104C48.0104 5.91883 48.6597 5.54245 50.5933 5.80062C57.3196 6.70348 63.1728 10.4406 66.794 16.1066C65.6977 18.5231 62.6945 21.3946 58.8446 23.6519ZM101.544 70.5948C101.292 71.2554 100.107 71.6757 98.5227 71.6662C92.6915 71.6297 89.9736 71.6755 87.684 73.1462C85.2808 74.423 83.9055 76.766 81.0712 81.8614C80.3036 83.246 79.356 84.0727 78.6593 83.9692C78.0442 83.8775 77.2136 82.9883 76.8443 81.256C76.1048 77.7622 77.6855 73.3998 79.2144 69.1807C79.4303 68.5849 79.6454 67.9907 79.8549 67.3984C80.4973 65.5736 81.2247 64.5288 82.2861 63.906H82.2863C82.2867 63.9058 82.2871 63.9056 82.2873 63.9054C82.2878 63.9052 82.2882 63.905 82.2886 63.9045C83.3533 63.287 84.6206 63.1652 86.5249 63.4988C87.1323 63.605 87.7459 63.7075 88.3616 63.8101C92.7975 64.5507 97.3843 65.3163 100.071 67.6825C101.399 68.8534 101.765 70.013 101.544 70.5948Z" fill="black"/>
<path d="M28.4581 55.4346C29.002 55.4346 29.5562 55.4847 30.1053 55.5839C30.8301 55.7141 31.57 55.4499 32.048 54.8895C32.5261 54.3289 32.6702 53.5566 32.4265 52.8614C32.0946 51.9141 31.9263 50.9172 31.9263 49.898C31.9263 47.4258 32.9099 45.1274 34.6962 43.4254C35.2852 42.8643 35.491 42.0103 35.2225 41.2428C33.9057 37.478 32.0013 35.5462 30.1595 33.6779C27.777 31.261 25.3131 28.7622 23.3413 21.3449C23.0652 20.3062 22.0401 19.6513 20.9814 19.8377L19.9849 20.013L19.1734 12.656C21.4304 11.1631 22.6105 8.50105 22.117 5.70385C21.8209 4.02214 20.7878 2.48762 19.2078 1.3829C17.6293 0.27922 15.7162 -0.206682 14.0941 0.0815052C12.2494 0.404888 11.0561 1.15061 10.2433 2.03236C9.1833 1.4889 7.80095 1.18395 5.97784 1.50899C4.34685 1.79469 2.71171 2.90893 1.60368 4.48961C0.499376 6.06512 0.0540519 7.85511 0.349278 9.52917C0.842634 12.3313 2.85933 14.4317 5.48717 15.0625L7.23245 22.2583L6.23456 22.434C5.176 22.6204 4.43608 23.5858 4.5311 24.6563C4.72219 26.8063 4.75221 28.68 4.62282 30.3851C4.53628 31.5252 5.39049 32.5198 6.53082 32.6063C7.67197 32.6929 8.66572 31.8386 8.75206 30.6981C8.85847 29.2959 8.8711 27.8082 8.78953 26.189L19.8622 24.2396C22.0422 31.3426 24.7765 34.1162 27.2106 36.5853C28.6931 38.0889 29.9084 39.3218 30.8613 41.4642C28.8685 43.816 27.7855 46.7621 27.7855 49.8982C27.7855 50.3713 27.8105 50.8414 27.8602 51.3075C23.5088 51.5072 19.5421 53.8769 17.2869 57.5613C16.877 57.5223 16.4636 57.5031 16.0489 57.5031C13.6831 57.5031 11.419 58.1204 9.41787 59.3005C6.4656 56.8424 4.81556 53.4569 4.38494 48.9943C4.27521 47.856 3.26283 47.0227 2.12519 47.1323C0.986935 47.2422 0.15322 48.2537 0.263153 49.3922C0.86106 55.5884 3.52327 60.351 8.17547 63.5476C8.5295 63.7906 8.939 63.9115 9.34789 63.9115C9.79259 63.9115 10.2365 63.7687 10.6071 63.4846C12.179 62.2805 14.0608 61.6441 16.0489 61.6441C16.7029 61.6441 17.3496 61.7143 17.971 61.853C18.9272 62.0658 19.9015 61.5803 20.3065 60.6885C21.7567 57.4967 24.9564 55.4346 28.4581 55.4346ZM16.2491 9.52234C15.353 9.84924 14.7965 10.7463 14.9011 11.6943L15.8979 20.7325L11.319 21.5386L9.17523 12.7003C8.94998 11.7717 8.11854 11.1179 7.16309 11.1179C5.74783 11.1179 4.67416 10.2126 4.42738 8.81056C4.32718 8.24288 4.53918 7.516 4.99444 6.86654C5.53603 6.09369 6.23745 5.66721 6.69851 5.58667C6.98318 5.53595 7.22996 5.51069 7.44983 5.51069C8.23634 5.51069 8.6767 5.83387 9.24872 6.46801C9.72572 6.99738 10.4418 7.24375 11.1435 7.12119C11.8453 6.99821 12.4347 6.52308 12.7037 5.86327C13.1169 4.85006 13.5005 4.38941 14.8137 4.1594C15.2657 4.07845 16.0652 4.23869 16.8341 4.77635C17.4871 5.23286 17.937 5.84795 18.0382 6.42246C18.2848 7.81888 17.5826 9.03561 16.2491 9.52234Z" fill="black"/>
<path d="M46.4251 62.9538C45.9161 63.2311 45.4498 63.47 44.9718 63.6561C45.0641 60.0256 45.6061 58.1168 48.7944 55.8423C49.7254 55.1784 49.9416 53.8853 49.2774 52.9542C48.6133 52.0232 47.3201 51.8069 46.3893 52.4712C41.6566 55.8477 40.9396 59.2805 40.8309 63.6731C40.3368 63.4849 39.8577 63.2398 39.3331 62.954C33.0234 59.5138 28.8041 61.4734 26.3756 63.723C25.9485 64.1184 25.7077 64.6757 25.7123 65.2579C25.7166 65.8401 25.9661 66.3935 26.3992 66.7825C28.1049 68.3141 29.0832 70.5061 29.0832 72.7965C29.0832 76.975 25.9512 80.4306 21.7977 80.8341C20.664 80.9442 19.8324 81.9492 19.9361 83.0835C20.5622 89.9286 23.7082 96.7759 28.7993 102.369C29.9546 103.63 31.374 104.673 32.7963 105.306C33.8354 105.768 34.8217 106 35.7647 106C37.1663 106 38.4714 105.488 39.7068 104.46C41.7816 102.736 43.9782 102.736 46.0564 104.46C48.1232 106.179 50.3838 106.455 52.9675 105.306C54.3961 104.67 55.8148 103.625 56.9612 102.366C57.7537 101.498 58.4949 100.603 59.1642 99.7066C59.7913 98.8667 59.6917 97.6908 58.9325 96.9683C57.3173 95.4308 56.4277 93.3533 56.4277 91.1188C56.4277 86.8616 59.7484 83.3207 63.9876 83.0578C65.0658 82.9912 65.9113 82.1065 65.9296 81.0264C66.0289 75.1405 64.2423 69.6778 60.7629 65.2295C57.1976 60.6701 52.1057 59.8618 46.4251 62.9538ZM52.287 91.119C52.287 93.8083 53.188 96.4291 54.8033 98.5458C54.5132 98.8918 54.212 99.2359 53.9013 99.5764C53.1414 100.411 52.1874 101.12 51.2842 101.522C50.1167 102.042 49.5621 101.989 48.7025 101.274C45.054 98.2481 40.7018 98.2487 37.0595 101.276C36.2021 101.989 35.6477 102.042 34.4801 101.523C33.5786 101.121 32.6209 100.41 31.857 99.5766C27.8406 95.164 25.2001 89.8961 24.302 84.5667C29.5123 83.1272 33.2242 78.3901 33.2242 72.7963C33.2242 70.2028 32.3953 67.6932 30.8963 65.6235C32.2253 65.0825 34.2964 64.9244 37.3516 66.5899C38.5238 67.2284 40.2949 68.1934 42.8818 68.1934C45.4627 68.1934 47.2338 67.2284 48.4054 66.5903C53.5389 63.7967 56.055 65.9314 57.5011 67.7806C60.0453 71.0332 61.4989 74.9559 61.7527 79.2114C56.3101 80.4643 52.287 85.3581 52.287 91.119Z" fill="black"/>
<path d="M3.76432 42.4886C4.29577 42.4886 4.82784 42.2857 5.23279 41.8808C6.04125 41.0721 6.04125 39.7612 5.23279 38.9525C4.42413 38.1441 3.1132 38.1441 2.30454 38.9525L2.29874 38.9583C1.49029 39.767 1.49318 41.075 2.30164 41.8835C2.70535 42.2874 3.23452 42.4886 3.76432 42.4886Z" fill="black"/>
</g>
<defs>
<clipPath id="clip0">
<rect width="106" height="106" fill="white"/>
</clipPath>
</defs>
</svg>
