<svg width="29" height="29" viewBox="0 0 29 29" fill="none" xmlns="http://www.w3.org/2000/svg">
<path d="M14.5 1.8125C11.9907 1.8125 9.53766 2.55661 7.45121 3.95073C5.36476 5.34485 3.73857 7.32637 2.77828 9.6447C1.818 11.963 1.56674 14.5141 2.05629 16.9752C2.54584 19.4363 3.75421 21.697 5.52859 23.4714C7.30297 25.2458 9.56366 26.4542 12.0248 26.9437C14.4859 27.4333 17.037 27.182 19.3553 26.2217C21.6736 25.2614 23.6552 23.6352 25.0493 21.5488C26.4434 19.4623 27.1875 17.0094 27.1875 14.5C27.1837 11.1362 25.8457 7.91136 23.4672 5.53282C21.0886 3.15428 17.8638 1.81634 14.5 1.8125ZM3.64313 14.8571L4.85569 15.2613L6.34376 17.4933V18.6561C6.34381 18.8964 6.43932 19.1269 6.60929 19.2968L9.06251 21.75V23.9042C7.4656 22.9801 6.1302 21.6647 5.1821 20.0819C4.23399 18.4991 3.70437 16.7011 3.64313 14.8571ZM14.5 25.375C13.716 25.3734 12.9345 25.2868 12.1691 25.1167L12.6875 23.5625L14.3233 19.4735C14.3778 19.337 14.3983 19.1892 14.383 19.0431C14.3676 18.8969 14.317 18.7566 14.2354 18.6343L12.9567 16.7158C12.8739 16.5917 12.7617 16.49 12.6302 16.4196C12.4987 16.3493 12.3518 16.3125 12.2027 16.3125H7.73485L6.60385 14.6151L8.53144 12.6875H9.96876V14.5H11.7813V12.0223L15.2866 5.887L13.7134 4.988L12.9385 6.34375H10.4536L9.47032 4.86747C10.7915 4.17029 12.2434 3.75614 13.7336 3.65144C15.2237 3.54674 16.7193 3.75379 18.125 4.25937V7.25C18.125 7.49035 18.2205 7.72086 18.3904 7.89082C18.5604 8.06077 18.7909 8.15625 19.0313 8.15625H20.3589C20.5081 8.15627 20.6549 8.11948 20.7865 8.04913C20.918 7.97878 21.0301 7.87705 21.1129 7.75297L21.9077 6.56034C22.9428 7.52574 23.78 8.68341 24.3727 9.96875H20.6806C20.4712 9.96888 20.2683 10.0415 20.1064 10.1744C19.9445 10.3072 19.8336 10.492 19.7925 10.6974L19.1373 14.7483C19.1063 14.939 19.137 15.1347 19.2251 15.3067C19.3131 15.4787 19.4538 15.618 19.6267 15.7044L22.6563 17.2188L23.277 20.8945C22.2712 22.2807 20.9516 23.4092 19.4262 24.1879C17.9007 24.9666 16.2127 25.3734 14.5 25.375Z" fill="black"/>
</svg>
