<svg id="Layer_3" enable-background="new 0 0 64 64" height="512" viewBox="0 0 64 64" width="512" xmlns="http://www.w3.org/2000/svg"><g><path d="m57 49-1.073 2.146c-.61 1.219-.927 2.564-.927 3.927 0 1.9.616 3.749 1.756 5.269l1.244 1.658h-16l1.244-1.658c1.14-1.52 1.756-3.369 1.756-5.269 0-1.363-.317-2.708-.927-3.927l-1.073-2.146c.942 0 1.815-.27 2.564-.726l3.436 5.726 6.348-5.29v.001c.516.186 1.071.289 1.652.289z" fill="#c18e59"/><path d="m13 24 3-3 5-1v-4l3-3-3-3v-4l-5-1-3-3-3 3-5 1v4l-3 3 3 3v4l5 1z" fill="#f7d881"/><circle cx="13" cy="13" fill="#c16b3f" r="6"/><path d="m2 62 1.586-1.586c.905-.905 2.133-1.414 3.414-1.414 1.281 0 2.509.509 3.414 1.414l.172.172c.905.905 2.133 1.414 3.414 1.414 1.281 0 2.509-.509 3.414-1.414l.172-.172c.905-.905 2.133-1.414 3.414-1.414 1.281 0 2.509.509 3.414 1.414l1.586 1.586v-15l-1.586-1.586c-.905-.905-2.133-1.414-3.414-1.414-1.281 0-2.509.509-3.414 1.414l-.172.172c-.905.905-2.133 1.414-3.414 1.414-1.281 0-2.509-.509-3.414-1.414l-.172-.172c-.905-.905-2.133-1.414-3.414-1.414-1.281 0-2.509.509-3.414 1.414l-1.586 1.586z" fill="#c7e2fc"/><path d="m2 62 1.586-1.586c.905-.905 2.133-1.414 3.414-1.414 1.281 0 2.509.509 3.414 1.414l.172.172c.905.905 2.133 1.414 3.414 1.414 1.281 0 2.509-.509 3.414-1.414l.172-.172c.905-.905 2.133-1.414 3.414-1.414 1.281 0 2.509.509 3.414 1.414l1.586 1.586v-15l-1.586-1.586c-.905-.905-2.133-1.414-3.414-1.414-1.281 0-2.509.509-3.414 1.414l-.172.172c-.905.905-2.133 1.414-3.414 1.414-1.281 0-2.509-.509-3.414-1.414l-.172-.172c-.905-.905-2.133-1.414-3.414-1.414-1.281 0-2.509.509-3.414 1.414l-1.586 1.586z" fill="#c7e2fc"/><path d="m25.121 50.706c-1.102-1.101-2.565-1.707-4.123-1.707-1.556 0-3.02.606-4.121 1.707l-.171.171c-.274.274-.586.504-.928.684l-1.197-.022-.038 1.999 1.438.027c.195.015.298-.028.434-.09.637-.29 1.211-.688 1.706-1.183l.171-.171c1.447-1.445 3.965-1.448 5.415 0l1.586 1.585c.188.188.441.292.707.292v-2.413z" fill="#ebf7fe"/><path d="m12 53-1.586 1.586c-.905.905-2.133 1.414-3.414 1.414-1.281 0-2.509-.509-3.414-1.414l-1.586-1.586 1.586-1.586c.905-.905 2.133-1.414 3.414-1.414 1.281 0 2.509.509 3.414 1.414z" fill="#e39854"/><path d="m12 53 .891-1.336c.693-1.04 1.86-1.664 3.109-1.664v6c-1.249 0-2.416-.624-3.109-1.664z" fill="#efbe9a"/><path d="m28 59-1.586 1.586c-.905.905-2.133 1.414-3.414 1.414-1.281 0-2.509-.509-3.414-1.414l-1.586-1.586 1.586-1.586c.905-.905 2.133-1.414 3.414-1.414 1.281 0 2.509.509 3.414 1.414z" fill="#e39854"/><path d="m28 59 .891-1.336c.693-1.04 1.86-1.664 3.109-1.664v6c-1.249 0-2.416-.624-3.109-1.664z" fill="#efbe9a"/><path d="m57.609 39.061c-.506-1.202-1.469-2.165-2.671-2.671-.303-2.47-2.385-4.39-4.938-4.39s-4.635 1.92-4.939 4.391c-1.202.506-2.165 1.469-2.671 2.671-2.47.303-4.39 2.385-4.39 4.938 0 2.761 2.239 5 5 5 1.132 0 2.164-.39 3.002-1.025.912 1.223 2.356 2.025 3.998 2.025s3.086-.802 3.998-2.025c.838.635 1.87 1.025 3.002 1.025 2.761 0 5-2.239 5-5 0-2.553-1.92-4.635-4.391-4.939z" fill="#78b75b"/><path d="m56.999 46.998v-1.999c.551 0 1-.449 1-1h1.999c0 1.653-1.346 2.999-2.999 2.999z" fill="#96cc7f"/><path d="m52.998 36.998h-1.999c0-.551-.449-.999-1-.999v-2c1.653 0 2.999 1.346 2.999 2.999z" fill="#96cc7f"/><path d="m59 4-2.4 3.2c-.389.519-.6 1.151-.6 1.8 0 1.657 1.343 3 3 3 1.657 0 3-1.343 3-3 0-.649-.211-1.281-.6-1.8z" fill="#c7e2fc"/><path d="m47 4-2.4 3.2c-.389.519-.6 1.151-.6 1.8 0 1.657 1.343 3 3 3 1.657 0 3-1.343 3-3 0-.649-.211-1.281-.6-1.8z" fill="#c7e2fc"/><path d="m53 12-2.4 3.2c-.389.519-.6 1.151-.6 1.8 0 1.657 1.343 3 3 3 1.657 0 3-1.343 3-3 0-.649-.211-1.281-.6-1.8z" fill="#c7e2fc"/><g fill="#c1c8d1"><path d="m27 10.999h1.999v1.999h-1.999z"/><path d="m31 10.999h1.999v1.999h-1.999z"/><path d="m35 10.999h1.999v1.999h-1.999z"/><path d="m39 10.999h1.999v1.999h-1.999z"/><path d="m50.999 22.999h1.999v1.999h-1.999z"/><path d="m50.999 26.999h1.999v1.999h-1.999z"/><path d="m33 50.999h1.999v1.999h-1.999z"/><path d="m37 50.999h1.999v1.999h-1.999z"/><path d="m29 50.999h1.999v1.999h-1.999z"/><path d="m10.999 27.999h1.999v1.999h-1.999z"/><path d="m10.999 31.999h1.999v1.999h-1.999z"/><path d="m10.999 35.999h1.999v1.999h-1.999z"/><path d="m10.999 39.999h1.999v1.999h-1.999z"/></g><path d="m31.998 25c3.136 0 5.797 2.072 6.684 4.919l-1.129-.753-1.11 1.665 3 2c.168.111.361.167.556.167.193 0 .387-.056.555-.167l3-2-1.11-1.665-1.62 1.081c-.818-4.126-4.463-7.247-8.826-7.247-4.132 0-7.722 2.796-8.729 6.8l1.94.487c.783-3.113 3.575-5.287 6.789-5.287z" fill="#96cc7f"/><path d="m31.999 38.998c-3.136 0-5.798-2.073-6.685-4.921l1.13.753 1.11-1.663-2.999-2c-.336-.225-.773-.224-1.109-.001l-3.001 2 1.108 1.665 1.62-1.08c.818 4.126 4.463 7.247 8.826 7.247 4.106 0 7.69-2.772 8.715-6.744l-1.937-.499c-.797 3.087-3.584 5.243-6.778 5.243z" fill="#78b75b"/><path d="m7 13c0 1.305.421 2.509 1.129 3.494 3.755-1.268 6.462-4.812 6.462-8.995 0-.096-.011-.188-.014-.283-.504-.137-1.031-.216-1.577-.216-3.314 0-6 2.686-6 6z" fill="#e39854"/><path d="m13 20c3.859 0 7-3.141 7-7s-3.141-7-7-7-7 3.141-7 7 3.141 7 7 7zm0-12c2.757 0 5 2.243 5 5s-2.243 5-5 5-5-2.243-5-5 2.243-5 5-5z"/><path d="m4 16.414v3.586c0 .477.337.887.804.98l4.703.94 2.786 2.786c.195.196.451.294.707.294s.512-.098.707-.293l2.786-2.786 4.703-.94c.467-.094.804-.504.804-.981v-3.586l2.707-2.707c.391-.391.391-1.023 0-1.414l-2.707-2.707v-3.586c0-.477-.337-.887-.804-.98l-4.703-.94-2.786-2.786c-.391-.391-1.023-.391-1.414 0l-2.786 2.785-4.703.941c-.467.093-.804.503-.804.98v3.586l-2.707 2.707c-.391.391-.391 1.023 0 1.414zm1.707-5.707c.188-.187.293-.441.293-.707v-3.181l4.196-.839c.193-.039.371-.134.511-.273l2.293-2.293 2.293 2.293c.14.14.317.234.511.273l4.196.839v3.181c0 .266.105.52.293.707l2.293 2.293-2.293 2.293c-.188.187-.293.441-.293.707v3.181l-4.196.839c-.193.039-.371.134-.511.273l-2.293 2.293-2.293-2.293c-.14-.14-.317-.234-.511-.273l-4.196-.839v-3.181c0-.266-.105-.52-.293-.707l-2.293-2.293z"/><path d="m2.879 44.707-1.586 1.586 1.414 1.414 1.586-1.586c.713-.713 1.699-1.121 2.707-1.121s1.994.408 2.707 1.121l.172.172c1.085 1.085 2.587 1.707 4.121 1.707s3.036-.622 4.121-1.707l.172-.172c.713-.713 1.699-1.121 2.707-1.121s1.994.408 2.707 1.121l1.586 1.586 1.414-1.414-1.586-1.586c-1.085-1.085-2.587-1.707-4.121-1.707s-3.036.622-4.121 1.707l-.172.172c-.713.713-1.699 1.121-2.707 1.121s-1.994-.408-2.707-1.121l-.172-.172c-1.085-1.085-2.587-1.707-4.121-1.707s-3.036.622-4.121 1.707z"/><path d="m2.879 55.293c1.085 1.085 2.587 1.707 4.121 1.707s3.036-.622 4.121-1.707l.723-.723.214.321c.881 1.321 2.354 2.109 3.942 2.109.553 0 1-.447 1-1v-2.856c.403-.243.786-.515 1.121-.851l.172-.172c.713-.713 1.699-1.121 2.707-1.121s1.994.408 2.707 1.121l1.586 1.586 1.414-1.414-1.586-1.586c-1.085-1.085-2.587-1.707-4.121-1.707-1.48 0-2.925.583-4 1.598v-.598c0-.553-.447-1-1-1-1.588 0-3.061.788-3.941 2.109l-.214.321-.723-.723c-1.086-1.085-2.588-1.707-4.122-1.707s-3.036.622-4.121 1.707l-1.586 1.586c-.391.391-.391 1.023 0 1.414zm10.844-3.074c.315-.474.764-.829 1.277-1.03v3.623c-.514-.201-.962-.557-1.277-1.03l-.521-.782zm-9.43-.098c.713-.713 1.699-1.121 2.707-1.121s1.994.408 2.707 1.121l.879.879-.879.879c-.713.713-1.699 1.121-2.707 1.121s-1.994-.408-2.707-1.121l-.879-.879z"/><path d="m32 55c-1.588 0-3.061.788-3.941 2.109l-.214.321-.723-.723c-1.086-1.085-2.588-1.707-4.122-1.707s-3.036.622-4.121 1.707l-1.586 1.586c-.323.323-.363.805-.152 1.185-.087.077-.18.147-.262.229l-.172.172c-.713.713-1.699 1.121-2.707 1.121s-1.994-.408-2.707-1.121l-.172-.172c-1.085-1.085-2.587-1.707-4.121-1.707s-3.036.622-4.121 1.707l-1.586 1.586 1.414 1.414 1.586-1.586c.713-.713 1.699-1.121 2.707-1.121s1.994.408 2.707 1.121l.172.172c1.085 1.085 2.587 1.707 4.121 1.707s3.036-.622 4.121-1.707l.172-.172c.069-.069.147-.129.221-.193l.365.365c1.085 1.085 2.587 1.707 4.121 1.707s3.036-.622 4.121-1.707l.723-.723.214.321c.881 1.321 2.354 2.109 3.942 2.109.553 0 1-.447 1-1v-6c0-.553-.447-1-1-1zm-6.293 4.879c-.713.713-1.699 1.121-2.707 1.121s-1.994-.408-2.707-1.121l-.879-.879.879-.879c.713-.713 1.699-1.121 2.707-1.121s1.994.408 2.707 1.121l.879.879zm5.293.933c-.514-.201-.962-.557-1.277-1.03l-.521-.782.521-.781c.315-.474.764-.829 1.277-1.03z"/><path d="m58.287 38.164c-.558-1.033-1.418-1.894-2.451-2.451-.596-2.723-3.013-4.713-5.836-4.713s-5.24 1.99-5.836 4.713c-1.033.558-1.894 1.418-2.451 2.451-2.723.596-4.713 3.013-4.713 5.836 0 3.094 2.354 5.647 5.365 5.966l.814 1.627c.537 1.075.821 2.278.821 3.48 0 1.672-.553 3.33-1.556 4.668l-1.244 1.658c-.228.304-.264.709-.095 1.048.17.339.516.553.895.553h16c.379 0 .725-.214.895-.553.169-.339.133-.744-.095-1.048l-1.244-1.657c-1.003-1.339-1.556-2.997-1.556-4.669 0-1.202.284-2.405.821-3.48l.814-1.627c3.011-.319 5.365-2.872 5.365-5.966 0-2.823-1.99-5.24-4.713-5.836zm-14.287 22.836.044-.059c1.262-1.682 1.956-3.766 1.956-5.868 0-1.511-.356-3.023-1.032-4.375l-.451-.901c.225-.06.446-.132.663-.219l2.962 4.936c.15.25.402.423.69.472.057.009.112.014.168.014.232 0 .459-.081.641-.231l5.754-4.796-.363.725c-.676 1.352-1.032 2.864-1.032 4.375 0 2.102.694 4.186 1.956 5.869l.044.058zm4.198-10.28c.574.182 1.18.28 1.802.28.401 0 .794-.04 1.177-.116l-1.92 1.601zm8.802-2.72c-.858 0-1.688-.284-2.398-.822-.213-.161-.481-.232-.744-.192-.264.037-.501.179-.661.392-.77 1.03-1.935 1.622-3.197 1.622s-2.427-.592-3.196-1.623c-.16-.213-.397-.354-.661-.392-.047-.007-.094-.01-.141-.01-.217 0-.429.07-.604.202-.711.539-1.54.823-2.398.823-2.206 0-4-1.794-4-4 0-2.003 1.51-3.7 3.513-3.946.355-.043.661-.274.8-.604.402-.956 1.181-1.734 2.137-2.137.33-.139.562-.444.604-.8.246-2.003 1.943-3.513 3.946-3.513s3.7 1.51 3.946 3.513c.043.355.274.661.604.8.956.402 1.734 1.181 2.137 2.137.139.33.444.562.8.604 2.003.246 3.513 1.943 3.513 3.946 0 2.206-1.794 4-4 4z"/><path d="m57 45v2c1.654 0 3-1.346 3-3h-2c0 .552-.448 1-1 1z"/><path d="m50 34v2c.552 0 1 .448 1 1h2c0-1.654-1.346-3-3-3z"/><path d="m59 13c2.206 0 4-1.794 4-4 0-.858-.284-1.71-.8-2.399l-2.4-3.2c-.377-.504-1.223-.504-1.6 0l-2.401 3.201c-.515.688-.799 1.54-.799 2.398 0 2.206 1.794 4 4 4zm-1.601-5.2 1.601-2.133 1.6 2.132c.257.346.4.771.4 1.201 0 1.103-.897 2-2 2s-2-.897-2-2c0-.43.143-.855.399-1.2z"/><path d="m47 13c2.206 0 4-1.794 4-4 0-.858-.284-1.71-.8-2.399l-2.4-3.2c-.377-.504-1.223-.504-1.6 0l-2.401 3.201c-.515.688-.799 1.54-.799 2.398 0 2.206 1.794 4 4 4zm-1.601-5.2 1.601-2.133 1.6 2.132c.257.346.4.771.4 1.201 0 1.103-.897 2-2 2s-2-.897-2-2c0-.43.143-.855.399-1.2z"/><path d="m49 17c0 2.206 1.794 4 4 4s4-1.794 4-4c0-.858-.284-1.71-.8-2.399l-2.4-3.2c-.377-.504-1.223-.504-1.6 0l-2.401 3.201c-.515.688-.799 1.54-.799 2.398zm2.399-1.2 1.601-2.133 1.6 2.132c.257.346.4.771.4 1.201 0 1.103-.897 2-2 2s-2-.897-2-2c0-.43.143-.855.399-1.2z"/><path d="m27 11h2v2h-2z"/><path d="m31 11h2v2h-2z"/><path d="m35 11h2v2h-2z"/><path d="m39 11h2v2h-2z"/><path d="m51 23h2v2h-2z"/><path d="m51 27h2v2h-2z"/><path d="m33 51h2v2h-2z"/><path d="m37 51h2v2h-2z"/><path d="m29 51h2v2h-2z"/><path d="m11 28h2v2h-2z"/><path d="m11 32h2v2h-2z"/><path d="m11 36h2v2h-2z"/><path d="m11 40h2v2h-2z"/><path d="m25.211 30.287c.782-3.113 3.573-5.287 6.789-5.287 3.136 0 5.797 2.074 6.685 4.921l-1.13-.753-1.109 1.664 3 2c.167.112.361.168.554.168s.387-.056.555-.168l3-2-1.109-1.664-1.619 1.079c-.819-4.126-4.464-7.247-8.827-7.247-4.134 0-7.724 2.797-8.729 6.801z"/><path d="m40.715 34.256-1.938-.5c-.796 3.088-3.584 5.244-6.777 5.244-3.136 0-5.797-2.074-6.685-4.921l1.13.753 1.109-1.664-3-2c-.336-.225-.773-.225-1.109 0l-3 2 1.109 1.664 1.619-1.079c.819 4.126 4.464 7.247 8.827 7.247 4.106 0 7.689-2.773 8.715-6.744z"/></g></svg>