<svg width="53" height="42" viewBox="0 0 53 42" fill="none" xmlns="http://www.w3.org/2000/svg">
<path d="M38.9975 6.61438C43.3156 12.5342 45.3816 18.5474 45.1387 24.655C45.1296 24.8801 45.0258 25.0917 44.8539 25.237C36.1352 32.6361 26.0595 36.0395 14.627 35.4481C14.3968 35.4357 14.1811 35.3263 14.0364 35.1464C9.81125 29.8975 7.78597 23.8782 7.90459 17.1055C7.90925 16.8648 8.0221 16.6378 8.21077 16.4887C17.5391 9.0669 27.5983 5.66528 38.3879 6.28209C38.6301 6.29617 38.855 6.41859 38.9975 6.61438Z" fill="#A7EEDC"/>
<path d="M36.0946 31.0963C29.5672 34.4001 22.4106 35.8513 14.6244 35.4486C14.3942 35.4362 14.1786 35.3268 14.0339 35.147C9.80943 29.8991 7.78451 23.8808 7.90326 17.1092C7.90792 16.8685 8.02076 16.6416 8.20941 16.4925C9.57346 15.4072 10.9533 14.4087 12.3486 13.4954C12.4311 18.2382 15.4212 25.2733 17.4199 29.4631C18.4531 31.629 20.6877 32.9635 23.0856 32.8514C26.9896 32.6687 32.8683 32.2151 36.0946 31.0963Z" fill="#86E8D0"/>
<path d="M45.3346 5.71772L45.1041 5.51736C44.1401 4.67885 42.8672 4.33383 41.6118 4.57083C40.6816 4.74637 39.86 5.22336 39.2567 5.91898C39.0217 5.73649 38.7363 5.62566 38.4311 5.60825C37.1877 5.53739 35.9314 5.51951 34.6972 5.55511C34.3249 5.56577 34.0317 5.87616 34.0426 6.2482C34.0537 6.62033 34.3647 6.91321 34.7372 6.90247C35.9331 6.86814 37.1505 6.88539 38.3555 6.95398C38.3956 6.95628 38.4337 6.977 38.4574 7.00949C38.7807 7.45264 39.0895 7.89676 39.3869 8.34141C29.0379 9.8457 18.6901 13.37 8.59637 18.8291C8.57456 18.264 8.56826 17.6948 8.57846 17.1233C8.57916 17.0842 8.59851 17.0458 8.63031 17.0205C12.2597 14.1336 16.0518 11.8347 19.9011 10.1874C23.7421 8.5438 27.7507 7.50196 31.8149 7.09141C32.1857 7.05365 32.4557 6.72329 32.4178 6.35305C32.3799 5.98268 32.0487 5.71286 31.678 5.75033C23.2819 6.59848 15.2444 10.0354 7.78873 15.966C7.53124 16.1708 7.35312 16.4503 7.27445 16.761C6.35228 16.5547 5.38477 16.6675 4.51887 17.1019C3.37754 17.6747 2.57672 18.7203 2.32172 19.9705L2.26076 20.2694C2.00124 21.5424 2.36345 22.8816 3.22984 23.8515C3.22984 23.8515 12.4096 34.1268 12.4208 34.1377C12.7658 34.6224 13.1271 35.1002 13.5057 35.5704C13.7705 35.8992 14.1648 36.1003 14.5877 36.1221C20.3619 36.4194 25.873 35.6974 30.9683 33.976L30.9721 33.9747C36.0685 32.2525 40.8863 29.4839 45.292 25.7459C45.6073 25.4782 45.7977 25.0889 45.8142 24.6778C45.8491 23.8051 45.8357 22.9323 45.7776 22.06L46.7466 9.15045C46.8442 7.85473 46.3161 6.57165 45.3346 5.71772ZM44.3776 21.4881C36.4195 26.0174 28.2437 29.1418 19.3941 31.034C19.0297 31.1116 18.7978 31.4702 18.8761 31.8341C18.9543 32.198 19.3132 32.43 19.6777 32.3521C23.0507 31.631 26.3256 30.7342 29.5301 29.6516C34.662 27.918 39.61 25.7051 44.4729 22.9813C44.4898 23.5286 44.4875 24.0758 44.4657 24.6227C44.4642 24.6582 44.4463 24.6939 44.4176 24.7183C40.1424 28.3457 35.4729 31.0304 30.5386 32.6979C30.5371 32.6984 30.5364 32.6986 30.5349 32.6991C25.6019 34.3655 20.2591 35.0645 14.6562 34.7759C14.6177 34.774 14.5807 34.7554 14.5574 34.7264C14.2167 34.3032 13.8917 33.8733 13.5795 33.438C14.6617 33.2829 15.7443 33.1101 16.8109 32.9179C16.8444 32.9119 16.8769 32.9035 16.9082 32.8929C17.2195 32.7877 17.4149 32.4679 17.3546 32.1351C17.288 31.7687 16.9369 31.5253 16.5703 31.5915C15.3063 31.8192 14.0195 32.0211 12.7382 32.1958C11.8001 30.728 11.0185 29.198 10.3964 27.6147L29.5316 21.1503C29.8846 21.031 30.0736 20.6486 29.9539 20.2959C29.8342 19.9433 29.4511 19.7541 29.0981 19.8734L9.93602 26.3469C9.73585 25.7463 9.55598 25.1392 9.40083 24.525C9.30963 24.164 8.94279 23.9449 8.58139 24.0356C8.21925 24.1278 8.001 24.4927 8.09206 24.8535C8.4256 26.1743 8.85849 27.4654 9.38841 28.7228L4.2368 22.9548C3.65261 22.3009 3.4084 21.3979 3.5835 20.5396L3.64442 20.2407C3.8163 19.3978 4.35621 18.6927 5.12585 18.3065C5.78759 17.9749 6.53613 17.92 7.22872 18.142C7.24802 19.4308 7.34478 20.7041 7.52015 21.9392C7.57241 22.3077 7.91392 22.5644 8.28298 22.5125C8.32552 22.5066 8.36653 22.4967 8.40572 22.4835C8.70695 22.3817 8.90269 22.0772 8.85632 21.7512C8.78906 21.2772 8.73508 20.7967 8.69175 20.312C19.0154 14.6508 29.6066 11.0446 40.1861 9.58856C41.3265 11.4497 42.2425 13.3221 42.93 15.2009L32.0522 18.8757C31.6991 18.995 31.5101 19.3774 31.6298 19.7301C31.7495 20.0827 32.1326 20.2719 32.4856 20.1526L43.3615 16.4784C43.8795 18.1456 44.2186 19.8168 44.3776 21.4881ZM45.4009 9.04835L44.8287 16.6726C43.8984 13.4242 42.3235 10.1959 40.113 7.01249C40.5278 6.43085 41.1472 6.0306 41.8635 5.89535C42.7099 5.73561 43.5683 5.96828 44.2182 6.53354L44.4487 6.73398C45.1106 7.30962 45.4665 8.17487 45.4009 9.04835Z" fill="#393939"/>
</svg>
