<svg id="Capa_1" enable-background="new 0 0 512 512" height="512" viewBox="0 0 512 512" width="512" xmlns="http://www.w3.org/2000/svg"><g><path d="m346.77 172.055h-21.37v31.342h49.015v-3.698c0-15.267-12.377-27.644-27.645-27.644z" fill="#fac600"/><path d="m319.803 146.309h-68.281c-3.091 0-5.597 2.506-5.597 5.597v25.017c8.919 5.822 15.17 15.388 16.511 26.474h62.964v-51.491c0-3.091-2.505-5.597-5.597-5.597z" fill="#fe9901"/><path d="m251.522 146.309c-3.091 0-5.597 2.506-5.597 5.597v25.017c8.919 5.822 15.17 15.388 16.511 26.474h11.088v-51.491c0-3.091 2.506-5.597 5.597-5.597z" fill="#fb8801"/><path d="m205.399 177.071c-6.774-7.865-16.798-12.852-27.993-12.852-20.401 0-36.939 16.538-36.939 36.939 0 .752.029 1.498.074 2.239h48.577c1.328-10.991 7.484-20.49 16.281-26.326z" fill="#80d261"/><path d="m163.074 203.397c-.044-.741-.074-1.486-.074-2.239 0-16.471 10.783-30.419 25.673-35.183-3.552-1.137-7.337-1.756-11.266-1.756-20.401 0-36.939 16.538-36.939 36.939 0 .752.029 1.498.074 2.239z" fill="#68ca44"/><path d="m262.436 203.397c-2.211-18.288-17.775-32.462-36.66-32.462-18.884 0-34.448 14.174-36.659 32.462z" fill="#00a7d3"/><path d="m214.269 203.397c1.693-14.01 11.229-25.603 24.089-30.261-3.927-1.423-8.163-2.201-12.581-2.201-18.884 0-34.448 14.174-36.659 32.462z" fill="#0096d3"/><g><path d="m124.306 58.863h11.639c1.789 0 3.499.34 5.088.931 2.569-2.378 4.658-5.77 5.771-9.796 2.527-9.139-.929-18.07-7.718-19.947-6.638-1.835-13.993 3.762-16.679 12.555 3.809 5.48 4.589 11.889 1.899 16.257z" fill="#fff"/><path d="m117.833 58.863h6.474c3.223-5.233 1.479-13.406-4.501-19.386-6.705-6.705-16.178-8.103-21.159-3.122s-3.583 14.454 3.122 21.159c2.072 2.072 4.409 3.634 6.796 4.661 2.534-2.066 5.762-3.312 9.268-3.312z" fill="#fff"/><g><path d="m117.833 88.296h18.113c8.094 0 14.716-6.622 14.716-14.716 0-8.094-6.622-14.716-14.716-14.716h-18.113c-8.094 0-14.716 6.622-14.716 14.716-.001 8.093 6.622 14.716 14.716 14.716z" fill="#5a5a5a"/></g><g><path d="m119.999 73.579c0-8.094 6.622-14.717 14.717-14.717h-16.883c-8.094 0-14.716 6.623-14.716 14.717 0 8.094 6.622 14.717 14.716 14.717h16.883c-8.094 0-14.717-6.623-14.717-14.717z" fill="#444"/></g></g><g><path d="m422.628 242.251c1.59-.591 3.299-.931 5.088-.931h11.788c2.684-3.885 3.581-9.723 1.939-15.662-2.527-9.139-10.079-15.027-16.868-13.15s-10.245 10.807-7.718 19.947c1.113 4.025 3.202 7.418 5.771 9.796z" fill="#fff"/><path d="m465.015 218.812c-4.981-4.981-14.454-3.583-21.159 3.122-5.98 5.98-7.724 14.153-4.501 19.386h6.474c3.506 0 6.733 1.246 9.269 3.313 2.387-1.027 4.724-2.589 6.796-4.661 6.704-6.706 8.102-16.179 3.121-21.16z" fill="#fff"/><g><path d="m445.829 270.753h-18.113c-8.094 0-14.716-6.622-14.716-14.716 0-8.094 6.622-14.716 14.716-14.716h18.113c8.094 0 14.716 6.622 14.716 14.716 0 8.093-6.622 14.716-14.716 14.716z" fill="#5a5a5a"/></g><g><path d="m429.999 256.036c0-8.094 6.622-14.717 14.717-14.717h-17c-8.094 0-14.717 6.622-14.717 14.717 0 8.094 6.622 14.716 14.717 14.716h17c-8.094.001-14.717-6.622-14.717-14.716z" fill="#444"/></g></g><g><path d="m374.415 333.244v72.759h34.378c3.091 0 5.597 2.506 5.597 5.597v70.693h54.052v-149.049z" fill="#ffe5c2"/><path d="m374.415 333.244h25.584v72.759h-25.584z" fill="#fed2a4"/><g><path d="m140.467 203.397v107.734c26.597.122 50.32 15.47 61.653 38.736 10.76-9.924 25.078-15.84 40.499-15.84h14.397c26.982 0 50.613 18.09 57.656 44.137l7.527 27.839h52.217v-202.606z" fill="#ffb392"/></g><path d="m174.051 320.051v-116.654h-33.584v107.734c12.088.055 23.577 3.26 33.584 8.92z" fill="#ffa381"/><g><path d="m122.917 311.138c.204-.002.407-.013.611-.013h16.621c.181 0 .359.01.54.011l17.329-30.014c1.155-2-.289-4.5-2.598-4.5h-47.234c-2.309 0-3.753 2.5-2.598 4.5z" fill="#838383"/><path d="m122.917 311.138c.204-.002.407-.013.611-.013h16.621c.181 0 .359.01.54.011l1.402-2.428-15.927-27.587c-1.155-2 .289-4.5 2.598-4.5h-20.576c-2.309 0-3.753 2.5-2.598 4.5z" fill="#5a5a5a"/><path d="m164.42 454.547 20.523-76.306c3.01-11.193 9.09-20.914 17.177-28.373-11.378-23.359-35.244-38.742-61.971-38.742h-16.621c-31.184 0-58.486 20.929-66.585 51.043l-23.693 88.092c-4.345 16.155 7.826 32.032 24.555 32.032h127.884c-14.491 0-25.033-13.753-21.269-27.746z" fill="#5a5a5a"/><g><path d="m67.036 450.261 23.693-88.093c7.346-27.315 30.493-47.072 58.003-50.509-2.82-.352-5.685-.534-8.584-.534h-16.621c-31.184 0-58.486 20.929-66.585 51.043l-23.692 88.093c-4.345 16.155 7.826 32.032 24.555 32.032h33.786c-16.729 0-28.9-15.877-24.555-32.032z" fill="#444"/></g></g><g><path d="m242.089 334.038c.177-.002.352-.011.53-.011h14.397c.156 0 .311.009.468.01l14.663-25.396c1.155-2-.289-4.5-2.598-4.5h-39.523c-2.309 0-3.753 2.5-2.598 4.5z" fill="#838383"/><path d="m242.089 334.038c.177-.002.352-.011.53-.011h14.397c.156 0 .311.009.468.01l1.526-2.644-13.136-22.752c-1.155-2 .289-4.5 2.598-4.5h-18.447c-2.309 0-3.753 2.5-2.598 4.5z" fill="#5a5a5a"/><path d="m305.811 406.003h16.387l-7.527-27.839c-7.042-26.047-30.674-44.137-57.656-44.137h-14.397c-27.011 0-50.661 18.129-57.676 44.214l-20.523 76.306c-3.764 13.994 6.779 27.746 21.27 27.746h114.525v-70.693c.001-3.091 2.506-5.597 5.597-5.597z" fill="#5a5a5a"/><g><path d="m197.768 454.547 20.523-76.306c6.181-22.981 25.274-39.779 48.201-43.453-3.097-.496-6.262-.761-9.476-.761h-14.397c-27.011 0-50.661 18.129-57.676 44.214l-20.523 76.306c-3.764 13.994 6.779 27.746 21.27 27.746h33.348c-14.492 0-25.034-13.753-21.27-27.746z" fill="#444"/></g></g><g><path d="m414.39 482.293h-114.175v-70.693c0-3.091 2.506-5.597 5.597-5.597h102.982c3.091 0 5.597 2.506 5.597 5.597v70.693z" fill="#fd4755"/></g><g><path d="m335.421 406.003h-29.609c-3.091 0-5.597 2.506-5.597 5.597v70.693h29.609v-70.693c0-3.091 2.506-5.597 5.597-5.597z" fill="#fb2b3a"/></g></g><g><path d="m97.776 64.032c-1.383 2.894-2.16 6.132-2.16 9.548 0 12.25 9.966 22.216 22.216 22.216h18.113c12.25 0 22.216-9.966 22.216-22.216 0-6.098-2.47-11.629-6.462-15.647.95-1.832 1.746-3.812 2.334-5.936 3.686-13.333-2.002-26.147-12.949-29.174-5.543-1.534-11.611-.165-16.642 3.758-1.425 1.111-2.729 2.408-3.909 3.842-9.201-6.205-20.346-6.214-27.192.631-8.03 8.031-6.659 21.984 3.122 31.766.428.424.871.817 1.313 1.212zm35.889-25.623c.506-.394 1.688-1.206 2.842-1.206.196 0 .391.023.581.076 2.065.571 4.062 5.03 2.489 10.719-.364 1.317-.862 2.472-1.433 3.474-.723-.071-1.456-.109-2.198-.109h-2.552c-.214-3.123-1.103-6.322-2.637-9.397.789-1.447 1.783-2.68 2.908-3.557zm2.281 27.953c3.979 0 7.216 3.237 7.216 7.217 0 3.979-3.237 7.216-7.216 7.216h-18.113c-3.979 0-7.216-3.237-7.216-7.216s3.237-7.217 7.216-7.217zm-31.997-24.703c.507-.506 1.387-.792 2.49-.792 2.198 0 5.284 1.134 8.063 3.913 2.201 2.201 3.362 4.59 3.753 6.583h-.422c-3.347 0-6.521.748-9.371 2.08-.468-.37-.933-.775-1.39-1.231-4.174-4.175-4.637-9.039-3.123-10.553z"/><path d="m411.962 240.389c-3.991 4.018-6.462 9.549-6.462 15.647 0 12.25 9.967 22.216 22.217 22.216h18.112c12.25 0 22.217-9.966 22.217-22.216 0-3.416-.777-6.654-2.16-9.548.442-.394.885-.787 1.312-1.214 4.374-4.374 7.236-9.855 8.06-15.435.931-6.31-.869-12.262-4.938-16.331-4.068-4.068-10.02-5.87-16.331-4.938-3.761.555-7.469 2.055-10.832 4.302-5.318-6.5-13.066-9.674-20.579-7.595-5.547 1.534-10.048 5.824-12.35 11.772-2.035 5.26-2.248 11.44-.599 17.402.587 2.127 1.383 4.106 2.333 5.938zm37.198-13.152c2.081-2.081 4.639-3.476 7.018-3.827.256-.038.641-.081 1.075-.081.825 0 1.828.154 2.46.786.964.964.813 2.793.704 3.534-.351 2.379-1.745 4.937-3.827 7.018-.457.457-.923.861-1.391 1.231-2.849-1.331-6.023-2.08-9.37-2.08h-.422c.391-1.991 1.552-4.379 3.753-6.581zm-24.943-4.773c.271-.699 1.041-2.364 2.355-2.728.176-.049.366-.073.567-.073 1.656 0 4.079 1.642 5.77 4.747-1.538 3.079-2.429 6.282-2.643 9.409h-2.551c-.742 0-1.475.038-2.198.109-.571-1.002-1.069-2.157-1.433-3.474-.783-2.835-.735-5.747.133-7.99zm3.499 26.356h18.112c3.979 0 7.217 3.237 7.217 7.216s-3.237 7.216-7.217 7.216h-18.112c-3.979 0-7.217-3.237-7.217-7.216s3.238-7.216 7.217-7.216z"/><path d="m104.55 200.553c0-4.142-3.357-7.5-7.5-7.5s-7.5 3.358-7.5 7.5v4c0 4.142 3.357 7.5 7.5 7.5s7.5-3.358 7.5-7.5z"/><path d="m36.979 162.536c1.53.37 3.097.667 4.656.883.351.048.698.072 1.042.072 3.684 0 6.897-2.716 7.419-6.469.57-4.103-2.294-7.891-6.396-8.461-1.071-.149-2.148-.353-3.199-.607-4.026-.973-8.079 1.504-9.051 5.53-.972 4.027 1.503 8.08 5.529 9.052z"/><path d="m12.223 95.033c1.404 1.177 3.114 1.751 4.813 1.751 2.142 0 4.269-.913 5.752-2.683.696-.831 1.441-1.636 2.216-2.396 2.959-2.899 3.007-7.647.107-10.606-2.9-2.96-7.649-3.006-10.605-.107-1.124 1.101-2.205 2.27-3.214 3.474-2.661 3.176-2.244 7.907.931 10.567z"/><path d="m21.273 135.005c-2.422-3.361-7.108-4.122-10.469-1.701s-4.123 7.108-1.701 10.469c.916 1.271 1.907 2.515 2.946 3.696 1.482 1.685 3.553 2.546 5.634 2.546 1.76 0 3.526-.616 4.951-1.869 3.11-2.736 3.413-7.476.677-10.585-.719-.817-1.405-1.677-2.038-2.556z"/><path d="m41.685 82.711c.401 0 .81-.032 1.22-.099 1.072-.176 2.165-.3 3.248-.371 4.133-.269 7.266-3.838 6.997-7.972-.27-4.133-3.839-7.27-7.972-6.997-1.565.102-3.145.282-4.695.536-4.088.669-6.859 4.524-6.19 8.612.601 3.679 3.781 6.291 7.392 6.291z"/><path d="m7.593 123.518c4.142-.049 7.459-3.447 7.409-7.589l-.002-.396c.001-.963.042-1.931.122-2.877.349-4.127-2.714-7.756-6.842-8.105-4.12-.359-7.756 2.714-8.105 6.841-.115 1.36-.174 2.75-.175 4.135l.004.581c.049 4.112 3.396 7.411 7.497 7.411.03-.001.062-.001.092-.001z"/><path d="m66.188 164.402c1.033.199 2.068.458 3.077.769.738.229 1.484.337 2.218.337 3.202 0 6.168-2.067 7.163-5.286 1.224-3.957-.992-8.157-4.949-9.381-1.532-.474-3.106-.868-4.679-1.169-4.08-.781-7.999 1.883-8.78 5.951s1.882 7.998 5.95 8.779z"/><path d="m97.05 222.053c-4.143 0-7.5 3.358-7.5 7.5v4c0 4.142 3.357 7.5 7.5 7.5s7.5-3.358 7.5-7.5v-4c0-4.142-3.358-7.5-7.5-7.5z"/><path d="m86.401 179.603c1.327 2.595 3.957 4.087 6.684 4.087 1.149 0 2.315-.265 3.408-.824 3.688-1.886 5.149-6.404 3.264-10.092-.729-1.426-1.548-2.829-2.433-4.169-2.282-3.457-6.937-4.409-10.391-2.126-3.457 2.282-4.409 6.934-2.127 10.391.581.879 1.118 1.799 1.595 2.733z"/><path d="m70.662 82.17h4c4.143 0 7.5-3.358 7.5-7.5s-3.357-7.5-7.5-7.5h-4c-4.143 0-7.5 3.358-7.5 7.5s3.358 7.5 7.5 7.5z"/><path d="m468.442 407.497c4.143 0 7.5-3.358 7.5-7.5v-64.509l34.824-52.973c2.275-3.461 1.314-8.112-2.146-10.387-3.46-2.274-8.111-1.314-10.387 2.147l-33.836 51.469h-82.481v-38.747c0-4.142-3.357-7.5-7.5-7.5s-7.5 3.358-7.5 7.5v111.506h-38.976l-6.029-22.296c-6.775-25.061-27.339-43.633-52.146-48.443l8.876-15.374c1.869-3.238 1.868-7.262-.002-10.5-1.869-3.238-5.354-5.25-9.093-5.25h-39.523c-3.74 0-7.225 2.012-9.094 5.251s-1.869 7.262.001 10.499l8.881 15.383c-9.26 1.802-17.925 5.517-25.5 10.778-11.531-17.77-30.111-30.188-51.265-33.822l11.464-19.856c1.871-3.238 1.871-7.262.002-10.5s-5.354-5.251-9.094-5.251h-7.453v-58.225h218.949v41.1c0 4.142 3.357 7.5 7.5 7.5s7.5-3.358 7.5-7.5v-47.468l25.647-82.867c1.225-3.957-.99-8.157-4.947-9.382-3.962-1.225-8.158.99-9.383 4.947l-18.82 60.808c-6.44-8.199-16.433-13.481-27.643-13.481h-13.869v-12.648c0-7.222-5.876-13.097-13.098-13.097h-68.281c-7.222 0-13.097 5.875-13.097 13.097v13.368c-4.011-1.193-8.255-1.838-12.648-1.838-6.84 0-13.323 1.556-19.116 4.329-7.822-6.865-18.054-11.045-29.255-11.045-15.594 0-29.328 8.081-37.261 20.268l-18.496-59.76c-1.225-3.957-5.427-6.172-9.383-4.947-3.957 1.225-6.172 5.425-4.947 9.382l25.647 82.867v64.593h-24.781c-3.738 0-7.223 2.011-9.092 5.249-1.87 3.238-1.871 7.262-.001 10.501l11.47 19.867c-28.937 4.993-53.043 26.41-60.861 55.482l-23.693 88.093c-2.458 9.138-.918 18.646 4.189 26.479h-15.98c-4.143 0-7.5 3.358-7.5 7.5s3.357 7.5 7.5 7.5h90.784c4.143 0 7.5-3.358 7.5-7.5s-3.357-7.5-7.5-7.5h-47.211c-5.615-.005-10.794-2.563-14.211-7.021-3.42-4.461-4.545-10.134-3.085-15.563l23.693-88.092c7.204-26.785 31.607-45.491 59.344-45.491h16.62c21.965 0 41.836 11.755 52.731 29.953-7.032 7.726-12.335 17.14-15.179 27.714l-20.523 76.306c-2.044 7.6-1.002 15.485 2.812 22.194h-19.99c-4.143 0-7.5 3.358-7.5 7.5s3.357 7.5 7.5 7.5h346.59c4.143 0 7.5-3.358 7.5-7.5s-3.357-7.5-7.5-7.5h-10.647v-39.795c0-4.142-3.357-7.5-7.5-7.5s-7.5 3.358-7.5 7.5v39.795h-39.053v-63.194c0-7.222-5.875-13.097-13.097-13.097h-26.878v-57.759h79.026v59.253c.001 4.142 3.358 7.5 7.501 7.5zm-135.541-227.942h13.869c9.807 0 17.989 7.048 19.773 16.342h-33.642zm-79.476-25.746h64.476v42.088h-49.341c-2.554-9.101-7.931-17.032-15.134-22.775v-19.313zm-27.648 24.627c11.97 0 22.293 7.181 26.89 17.461h-53.78c4.596-10.28 14.92-17.461 26.89-17.461zm-48.371-6.717c6.15 0 11.86 1.902 16.586 5.141-5.13 5.256-8.974 11.773-11.012 19.036h-34.532c2.488-13.729 14.522-24.177 28.958-24.177zm-41.041 131.906h-9.125l-11.26-19.503h31.645zm125.388 8.015-8.595 14.887h-6.745l-8.594-14.887zm30.961 99.96v63.193h-107.025c-4.555 0-8.757-2.073-11.527-5.688-2.771-3.615-3.683-8.211-2.5-12.61l20.523-76.306c6.123-22.763 26.861-38.661 50.434-38.661h14.397c23.54 0 44.271 15.871 50.415 38.595l4.97 18.381h-6.59c-7.222-.001-13.097 5.874-13.097 13.096zm114.176 1.903v61.29h-99.176v-61.29z"/></g></g></svg>