<svg id="Capa_1" enable-background="new 0 0 512.409 512.409" height="512" viewBox="0 0 512.409 512.409" width="512" xmlns="http://www.w3.org/2000/svg"><g id="XMLID_582_"><g id="XMLID_1378_"><path id="XMLID_644_" d="m502.205 30.659c-51.215-27.472-112.785-27.472-164 0-51.215 27.472-112.785 27.472-164 0-51.215-27.472-112.785-27.472-164 0v471.75h492z" fill="#c68a65"/></g><g id="XMLID_1415_"><g id="XMLID_1417_"><path id="XMLID_639_" d="m289.421 451.061-47.491 47.491c-5.088 5.088-13.337 5.088-18.425 0l-112.842-112.843c-5.088-5.088-5.088-13.337 0-18.425l47.491-47.491c5.088-5.088 13.337-5.088 18.425 0l112.843 112.843c5.087 5.088 5.087 13.337-.001 18.425z" fill="#ffcd69"/></g><g id="XMLID_1416_"><path d="m118.222 298.585-28.768 28.768c-2.41 2.41-2.41 6.318 0 8.728l26.206 26.206 37.495-37.495-26.206-26.206c-2.409-2.411-6.317-2.411-8.727-.001z" fill="#fff"/></g></g><g id="XMLID_33_"><path id="XMLID_528_" d="m502.205 200.566-23.81-23.809-44.831 44.832-59.432-59.432 44.832-44.831-23.795-23.795-52.677 36.986-78.875 78.876v28.3l94.426 94.426h28.3l78.876-78.875z" fill="#a0c8ff"/></g><g id="XMLID_949_"><path id="XMLID_964_" d="m512.205 30.659c0-3.685-2.026-7.07-5.273-8.813-54.306-29.129-119.148-29.129-173.454 0-48.386 25.955-106.16 25.955-154.546 0-54.306-29.129-119.148-29.129-173.454 0-3.247 1.742-5.273 5.128-5.273 8.813v471.75c0 5.522 4.477 10 10 10h492c5.523 0 10-4.478 10-10zm-249.99 461.75 34.277-34.277c4.349-4.35 6.745-10.133 6.745-16.284 0-6.15-2.396-11.934-6.745-16.283l-26.07-26.07c-3.905-3.903-10.237-3.904-14.142 0-3.905 3.905-3.906 10.237 0 14.143l26.07 26.07c.733.732.887 1.569.887 2.141s-.154 1.409-.887 2.142l-47.492 47.491c-1.181 1.182-3.102 1.182-4.282 0l-112.843-112.844c-.733-.732-.887-1.569-.887-2.142 0-.571.154-1.408.887-2.141l47.492-47.491c1.181-1.182 3.102-1.182 4.282 0l23.296 23.297c3.906 3.904 10.238 3.905 14.142 0 3.905-3.905 3.906-10.237 0-14.143l-23.296-23.297c-8.276-8.275-21.322-8.903-30.347-1.926l-19.282-19.282c-6.306-6.305-16.564-6.305-22.87 0l-28.768 28.768c-6.305 6.306-6.305 16.564 0 22.87l19.281 19.281c-3.112 4.013-4.818 8.903-4.818 14.064 0 6.151 2.396 11.935 6.745 16.284l99.629 99.629h-183.014v-455.645c34.912-17.145 74.237-21.118 111.203-11.952l-29.183 46.298h-51.02c-5.523 0-10 4.478-10 10s4.477 10 10 10h51.627l17.802 23.045-19.853 34.837c-1.798 3.155-1.745 7.037.14 10.141l23.153 38.134c1.882 3.1 5.179 4.812 8.557 4.812 1.768 0 3.559-.469 5.181-1.453 4.721-2.866 6.224-9.017 3.358-13.737l-20.099-33.104 12.811-22.48 13.25 17.152c1.894 2.451 4.816 3.887 7.914 3.887h24.954c5.523 0 10-4.478 10-10s-4.477-10-10-10h-20.045l-40.026-51.813 31.195-49.49c6.237 2.417 12.368 5.223 18.353 8.434 27.156 14.566 56.937 21.85 86.727 21.848 29.784-.002 59.578-7.284 86.727-21.848 46.641-25.019 102.003-25.921 149.273-2.708v139.66l-6.738-6.738c-1.875-1.875-4.419-2.929-7.071-2.929s-5.196 1.054-7.071 2.929l-37.76 37.761-45.289-45.289 37.761-37.761c1.875-1.876 2.929-4.419 2.929-7.071s-1.054-5.195-2.929-7.071l-23.796-23.798c-3.435-3.434-8.841-3.903-12.817-1.113l-52.677 36.986c-.473.332-.917.705-1.325 1.113l-78.876 78.875c-1.875 1.876-2.929 4.419-2.929 7.071v28.3c0 2.652 1.054 5.195 2.929 7.071l94.427 94.427c1.875 1.875 4.419 2.929 7.071 2.929h28.3c2.652 0 5.196-1.054 7.071-2.929l78.875-78.876c.408-.409.781-.853 1.113-1.325l18.802-26.778v176.388h-88.923c-5.523 0-10 4.478-10 10s4.477 10 10 10h23.362l10.641 31.036c1.423 4.15 5.304 6.76 9.459 6.76 1.075 0 2.169-.175 3.244-.544 5.225-1.791 8.007-7.478 6.216-12.702l-8.417-24.55h44.419v63.811h-229.99zm-146.554-144.265-16.428-16.428 23.353-23.353 16.427 16.427zm251.4-178.915 59.431 59.432c1.875 1.875 4.419 2.929 7.071 2.929s5.196-1.054 7.071-2.929l37.76-37.761 10.797 10.797-31.659 45.09-75.333 75.333h-20.016l-88.569-88.569v-20.015l75.333-75.333 45.09-31.659 10.782 10.782-37.761 37.761c-3.902 3.904-3.902 10.236.003 14.142z"/><path id="XMLID_1083_" d="m75.375 219.988c-2.64 0-5.21 1.061-7.07 2.92-1.86 1.87-2.93 4.45-2.93 7.08s1.07 5.2 2.93 7.07c1.86 1.86 4.44 2.93 7.07 2.93s5.21-1.069 7.07-2.93 2.93-4.44 2.93-7.07c0-2.64-1.07-5.21-2.93-7.08-1.861-1.859-4.441-2.92-7.07-2.92z"/><path id="XMLID_1104_" d="m194.354 246.408c-2.63 0-5.21 1.07-7.07 2.931-1.86 1.859-2.92 4.439-2.92 7.069 0 2.631 1.06 5.21 2.92 7.07 1.87 1.86 4.44 2.93 7.07 2.93 2.64 0 5.21-1.069 7.08-2.93 1.86-1.86 2.93-4.439 2.93-7.07 0-2.63-1.07-5.21-2.93-7.069-1.86-1.86-4.439-2.931-7.08-2.931z"/><path id="XMLID_1160_" d="m263.274 120.379c1.86-1.86 2.93-4.431 2.93-7.061 0-2.64-1.07-5.21-2.93-7.069-1.86-1.87-4.44-2.931-7.07-2.931s-5.21 1.061-7.07 2.931c-1.86 1.859-2.93 4.43-2.93 7.069 0 2.63 1.07 5.21 2.93 7.061 1.86 1.87 4.44 2.939 7.07 2.939s5.211-1.069 7.07-2.939z"/><path id="XMLID_1161_" d="m347.354 390.979c-2.63 0-5.21 1.07-7.07 2.93s-2.93 4.44-2.93 7.07 1.07 5.2 2.93 7.07c1.86 1.859 4.44 2.93 7.07 2.93s5.21-1.07 7.07-2.93c1.86-1.87 2.93-4.44 2.93-7.07s-1.07-5.21-2.93-7.07-4.44-2.93-7.07-2.93z"/><path id="XMLID_1162_" d="m231.694 364.908c-2.63 0-5.21 1.07-7.07 2.931-1.86 1.859-2.93 4.439-2.93 7.069 0 2.641 1.07 5.21 2.93 7.07 1.86 1.87 4.44 2.93 7.07 2.93s5.21-1.06 7.07-2.93c1.87-1.86 2.93-4.43 2.93-7.07 0-2.63-1.06-5.21-2.93-7.069-1.86-1.86-4.43-2.931-7.07-2.931z"/></g></g></svg>