<svg width="32" height="32" viewBox="0 0 32 32" fill="none" xmlns="http://www.w3.org/2000/svg">
<path d="M15.1813 2.94664C15.4154 2.76456 15.7035 2.66571 16 2.66571C16.2965 2.66571 16.5846 2.76456 16.8187 2.94664L27.7893 11.48C28.2705 11.8542 28.6597 12.3335 28.9273 12.8812C29.1949 13.4288 29.3338 14.0304 29.3333 14.64V26.6666C29.3333 27.3739 29.0524 28.0522 28.5523 28.5523C28.0522 29.0524 27.3739 29.3333 26.6667 29.3333H21.3333C20.6261 29.3333 19.9478 29.0524 19.4477 28.5523C18.9476 28.0522 18.6667 27.3739 18.6667 26.6666V18.6666H13.3333V26.6666C13.3333 27.3739 13.0524 28.0522 12.5523 28.5523C12.0522 29.0524 11.3739 29.3333 10.6667 29.3333H5.33334C4.62609 29.3333 3.94782 29.0524 3.44772 28.5523C2.94762 28.0522 2.66667 27.3739 2.66667 26.6666V14.64C2.66667 13.4026 3.23734 12.24 4.21334 11.48L15.1813 2.94664ZM16 5.68797L5.84801 13.584C5.68728 13.709 5.55732 13.8692 5.46811 14.0522C5.37889 14.2353 5.33279 14.4363 5.33334 14.64V26.6666H10.6667V18.6666C10.6667 17.9594 10.9476 17.2811 11.4477 16.781C11.9478 16.2809 12.6261 16 13.3333 16H18.6667C19.3739 16 20.0522 16.2809 20.5523 16.781C21.0524 17.2811 21.3333 17.9594 21.3333 18.6666V26.6666H26.6667V14.64C26.6672 14.4363 26.6211 14.2353 26.5319 14.0522C26.4427 13.8692 26.3127 13.709 26.152 13.584L16 5.69064V5.68797Z" fill="black"/>
</svg>
