<svg width="11" height="11" viewBox="0 0 11 11" fill="none" xmlns="http://www.w3.org/2000/svg">
<path d="M5.49996 10.0834C2.96865 10.0834 0.916626 8.03133 0.916626 5.50002C0.916626 2.96872 2.96865 0.916687 5.49996 0.916687C8.03126 0.916687 10.0833 2.96872 10.0833 5.50002C10.0805 8.03017 8.03011 10.0806 5.49996 10.0834ZM1.83329 5.57885C1.85498 7.59609 3.50213 9.2169 5.51946 9.2061C7.53678 9.19521 9.16641 7.55679 9.16641 5.53944C9.16641 3.52209 7.53678 1.88367 5.51946 1.87277C3.50213 1.86198 1.85498 3.48279 1.83329 5.50002V5.57885ZM6.41663 7.79169H5.04163V5.95835H4.58329V5.04169H5.95829V6.87502H6.41663V7.79169ZM5.95829 4.12502H5.04163V3.20835H5.95829V4.12502Z" fill="white"/>
</svg>
