<svg width="147" height="87" viewBox="0 0 147 87" fill="none" xmlns="http://www.w3.org/2000/svg">
<path d="M125.489 13.4257C132.348 35.368 132.418 55.3261 125.531 73.2464C125.277 73.9068 124.755 74.4318 124.097 74.6915C90.7153 87.9404 57.3333 87.9433 23.9512 74.7028C23.2795 74.4347 22.7488 73.8927 22.5005 73.2125C15.2409 53.3588 15.2974 33.4233 22.4863 13.4003C22.7432 12.689 23.3077 12.1273 24.019 11.8733C59.2357 -0.830883 92.5669 -0.844995 124.013 11.8253C124.718 12.1104 125.263 12.7003 125.489 13.4257Z" fill="#A7EEDC"/>
<path d="M92.1662 83.3237C69.4282 86.5944 46.6902 83.7225 23.9522 74.7037C23.2805 74.4356 22.7498 73.8936 22.5014 73.2134C15.2419 53.3597 15.2983 33.4242 22.4873 13.4012C22.7442 12.6899 23.3087 12.1282 24.02 11.8742C29.1702 10.0161 34.2798 8.43184 39.3494 7.11682C34.8068 21.3074 36.5926 45.237 38.3042 59.7076C39.1891 67.1879 44.4841 73.4019 51.7251 75.4771C63.5142 78.8553 81.4466 83.4109 92.1662 83.3237Z" fill="#86E8D0"/>
<path d="M145.208 17.1272L144.726 16.2996C142.707 12.8367 139.272 10.5312 135.303 9.97463C132.361 9.56198 129.439 10.1553 126.945 11.6182C126.43 10.8392 125.694 10.2227 124.805 9.86427C121.181 8.4039 117.466 7.08832 113.763 5.95394C112.646 5.61157 111.461 6.24015 111.119 7.35787C110.776 8.47587 111.405 9.65964 112.523 10.002C116.111 11.1017 119.711 12.3763 123.222 13.7913C123.339 13.8384 123.432 13.9383 123.469 14.0588C123.983 15.7018 124.452 17.3333 124.888 18.9548C92.6178 13.0297 58.3133 13.1144 22.8124 19.2099C23.3176 17.5071 23.8731 15.8077 24.48 14.1178C24.5215 14.0024 24.6177 13.9075 24.7377 13.8644C38.4348 8.92409 52.0225 5.89636 65.1224 4.86445C78.1944 3.83535 91.1571 4.76453 103.648 7.62742C104.788 7.88766 105.924 7.17638 106.185 6.03692C106.446 4.89719 105.733 3.76168 104.594 3.5006C78.7891 -2.41373 51.4382 -0.267192 23.3007 9.88177C22.3289 10.2323 21.5177 10.8846 20.9704 11.73C18.4383 10.1894 15.4496 9.55267 12.4382 9.97492C8.46889 10.5318 5.03444 12.8372 3.01549 16.2999L2.53283 17.1278C0.477468 20.6537 0.202836 25.0012 1.79898 28.7569C1.79898 28.7569 18.7116 68.5466 18.7339 68.5904C19.2701 70.3787 19.8617 72.1631 20.5123 73.9422C20.9676 75.1863 21.9366 76.1807 23.1712 76.6704C40.0296 83.3573 57.1344 86.748 74.0117 86.7477H74.0244C90.9059 86.746 108.015 83.3522 124.878 76.6603C126.085 76.181 127.043 75.2143 127.507 74.0079C128.491 71.447 129.332 68.8373 130.039 66.1842L145.941 28.7571C147.538 25.0009 147.264 20.6537 145.208 17.1272ZM126.456 63.0763C98.2388 68.552 70.792 69.6299 42.5862 66.3654C41.4253 66.2302 40.3745 67.0637 40.2398 68.2248C40.1052 69.386 40.9378 70.4366 42.0993 70.5712C52.8498 71.8157 63.4859 72.4392 74.1006 72.4392C91.099 72.4392 108.034 70.8289 125.233 67.6138C124.731 69.2587 124.172 70.884 123.555 72.4888C123.515 72.593 123.426 72.6813 123.316 72.7248C106.953 79.2189 90.3688 82.5122 74.0244 82.5139C74.0193 82.5139 74.017 82.5139 74.0119 82.5139C57.6723 82.5136 41.0908 79.2237 24.7326 72.735C24.6202 72.6906 24.5291 72.5981 24.489 72.4883C23.9036 70.8873 23.3713 69.2819 22.883 67.6733C26.2551 68.2994 29.6463 68.8732 33.0099 69.3733C33.1155 69.3891 33.2205 69.3968 33.3241 69.3968C34.3551 69.3968 35.2586 68.6417 35.415 67.5912C35.5869 66.4345 34.789 65.3577 33.6329 65.1861C29.6472 64.5934 25.6197 63.9007 21.636 63.1327C20.3292 57.8238 19.5499 52.4873 19.2987 47.1524L82.6808 47.1524C83.8502 47.1524 84.7977 46.2049 84.7977 45.0355C84.7977 43.8661 83.8502 42.9186 82.6808 42.9186L19.2095 42.9186C19.2205 40.931 19.2984 38.9445 19.457 36.9614C19.5501 35.796 18.6811 34.7756 17.5157 34.6822C16.3466 34.5924 15.3299 35.4587 15.2365 36.6235C14.8952 40.8875 14.8791 45.1631 15.1854 49.4358L5.69576 27.1015C4.61953 24.5691 4.80469 21.6379 6.19083 19.2608L6.67348 18.4326C8.03451 16.0981 10.3501 14.5435 13.0267 14.1681C15.3276 13.8466 17.6074 14.4354 19.4415 15.7919C18.1987 19.6449 17.2018 23.5295 16.477 27.3798C16.2605 28.5285 17.0164 29.6352 18.1654 29.8517C18.2978 29.8768 18.4296 29.8887 18.5594 29.8887C19.5572 29.8887 20.446 29.1797 20.6371 28.1633C20.9154 26.6857 21.2397 25.2022 21.5999 23.717C57.9879 17.2514 93.0982 17.1676 126.005 23.4677C127.516 30.1498 128.349 36.6399 128.497 42.9195H92.4653C91.296 42.9195 90.3485 43.867 90.3485 45.0364C90.3485 46.2057 91.296 47.1533 92.4653 47.1533H128.49C128.347 52.6329 127.669 57.9449 126.456 63.0763ZM142.046 27.1012L132.654 49.2052C133.166 38.6078 131.743 27.4221 128.386 15.7315C130.205 14.4181 132.45 13.85 134.715 14.1675C137.391 14.5429 139.707 16.0975 141.068 18.4321L141.551 19.2599C142.937 21.6373 143.122 24.5688 142.046 27.1012Z" fill="black"/>
</svg>
