<svg height="512" viewBox="0 0 512 512" width="512" xmlns="http://www.w3.org/2000/svg"><g id="Filled_outline" data-name="Filled outline"><path d="m360 296h128v192h-128z" fill="#7eb457"/><path d="m360 432h128v56h-128z" fill="#69a340"/><path d="m214.209 221.578a25.456 25.456 0 0 0 -2.1 37.878l35.891 35.889h-200a24 24 0 0 0 -24 24 24 24 0 0 0 24 24h112v144h200v-192h-40l-71.889-71.889a25.456 25.456 0 0 0 -33.902-1.878z" fill="#feb784"/><g fill="#fec093"><path d="m320 295.345-71.889-71.889c-.035-.035-.076-.058-.111-.092a25.449 25.449 0 0 0 -35.889 36.092l35.889 35.889v8.655a96 96 0 0 0 96 96h16v-104.655z"/><rect height="48" rx="24" width="96" x="136" y="344"/><rect height="48" rx="24" width="96" x="136" y="392"/><rect height="48" rx="24" width="96" x="136" y="440"/></g><path d="m224 124a99.274 99.274 0 0 1 -114.29 98.86l-61.71 89.14 26.92-100.93a99.982 99.982 0 1 1 149.08-87.07z" fill="#4db7e5"/><circle cx="408" cy="440" fill="#e0e0de" r="24"/><path d="m224 124a99.742 99.742 0 0 1 -14.57 52h-93.43a52 52 0 1 1 0-104h93.43a99.446 99.446 0 0 1 14.57 52z" fill="#fec093"/><path d="m220.62 149.84a98.943 98.943 0 0 1 -11.19 26.16h-93.43a52.029 52.029 0 0 1 -50.37-64.95 63.3 63.3 0 0 0 58.36 38.79z" fill="#feb784"/><path d="m488 288h-164.688l-69.578-69.578a33.455 33.455 0 0 0 -47.312 47.312l22.265 22.266h-148.687v16h160.155a113.085 113.085 0 0 0 77.314 103.59l5.062-15.18a97.171 97.171 0 0 1 -66.531-92.305v-4.105h-.075a7.932 7.932 0 0 0 -2.269-5.656l-35.922-35.922a17.152 17.152 0 0 1 -5.05-13.258 17.47 17.47 0 0 1 29.738-11.43l71.922 71.922a8 8 0 0 0 5.656 2.344h32v176h-116.452a31.348 31.348 0 0 0 -6.607-40 31.572 31.572 0 0 0 0-48 31.865 31.865 0 0 0 -20.941-56h-160a15.98 15.98 0 0 1 -6.527-30.575l-1.2 4.513a8 8 0 0 0 14.308 6.617l58.949-85.149a96.736 96.736 0 0 0 10.47.594 108.14 108.14 0 1 0 -58.363-17.191l-19.57 73.391a31.932 31.932 0 0 0 1.933 63.8h84.452a31.348 31.348 0 0 0 6.607 40 31.572 31.572 0 0 0 0 48 31.865 31.865 0 0 0 20.941 56h328a8 8 0 0 0 8-8v-192a8 8 0 0 0 -8-8zm-283.231-120h-88.769a44 44 0 0 1 0-88h88.769a91.806 91.806 0 0 1 0 88zm-172.769-44a91.9 91.9 0 0 1 161.591-60h-77.591a60 60 0 0 0 0 120h77.591a90.311 90.311 0 0 1 -82.743 30.945 7.989 7.989 0 0 0 -7.715 3.364l-35.571 51.382 15.083-56.558a8.006 8.006 0 0 0 -3.793-9.028 92.2 92.2 0 0 1 -46.852-80.105zm112 244a16.016 16.016 0 0 1 16-16h48a16 16 0 0 1 0 32h-48a16.016 16.016 0 0 1 -16-16zm0 48a16.016 16.016 0 0 1 16-16h48a16 16 0 0 1 0 32h-48a16.016 16.016 0 0 1 -16-16zm16 64a16 16 0 0 1 0-32h48a16 16 0 0 1 0 32zm320 0h-112v-176h112z"/><path d="m116.686 128.001h22.627v15.998h-22.627z" transform="matrix(.707 -.707 .707 .707 -58.676 130.343)"/><path d="m88 112h16v16h-16z"/><path d="m152 136h16v16h-16z"/><path d="m136.001 92.686h15.998v22.627h-15.998z" transform="matrix(.707 -.707 .707 .707 -31.362 132.284)"/><path d="m408 464a24 24 0 1 0 -24-24 24.027 24.027 0 0 0 24 24zm0-32a8 8 0 1 1 -8 8 8.011 8.011 0 0 1 8-8z"/></g></svg>