<?xml version="1.0" encoding="iso-8859-1"?>
<!-- Generator: Adobe Illustrator 19.0.0, SVG Export Plug-In . SVG Version: 6.00 Build 0)  -->
<svg version="1.1" id="Capa_1" xmlns="http://www.w3.org/2000/svg" xmlns:xlink="http://www.w3.org/1999/xlink" x="0px" y="0px"
	 viewBox="0 0 512 512" style="enable-background:new 0 0 512 512;" xml:space="preserve">
<path style="fill:#EA7786;" d="M485.671,396.117h-28.905c-6.812,0-12.334-5.522-12.334-12.334V304.07
	c0-6.812,5.522-12.334,12.334-12.334h28.905c10.399,0,18.829,8.43,18.829,18.829v66.722
	C504.5,387.688,496.07,396.117,485.671,396.117z"/>
<path style="fill:#60C28E;" d="M190.946,195.594c-4.422,0-8.844-1.687-12.218-5.061l-44.843-44.843
	c-6.748-6.747-6.748-17.688,0-24.435c6.747-6.747,17.688-6.747,24.435,0l44.843,44.842c6.748,6.747,6.748,17.688,0,24.436
	C199.79,193.907,195.368,195.594,190.946,195.594z"/>
<path style="fill:#80D3AE;" d="M190.946,266.231c-9.543,0-17.279-7.736-17.279-17.279v-77.961c0-21.709,8.454-42.118,23.804-57.469
	l35.361-35.362c6.747-6.747,17.688-6.749,24.435,0c6.748,6.747,6.748,17.687,0,24.436l-35.361,35.362
	c-8.823,8.824-13.682,20.555-13.682,33.033v77.961C208.225,258.495,200.489,266.231,190.946,266.231z"/>
<path style="fill:#A67E74;" d="M273.727,249.76c-7.047-0.165-13.795,1.018-20.012,3.303c-3.873,1.423-8.265,0.343-10.83-2.889
	c-12.142-15.301-30.89-25.12-51.94-25.12c-21.051,0-39.799,9.819-51.941,25.12c-2.565,3.232-6.957,4.312-10.83,2.889
	c-6.217-2.285-12.965-3.468-20.012-3.303c-28.522,0.667-51.968,23.788-53.004,52.298c-1.123,30.932,23.619,56.362,54.301,56.362
	c15.215,0,28.962-6.261,38.826-16.338c11.531,9.706,26.408,15.563,42.66,15.563c16.251,0,31.129-5.857,42.66-15.563
	c9.864,10.077,23.61,16.338,38.826,16.338c30.682,0,55.424-25.43,54.301-56.362C325.696,273.549,302.249,250.428,273.727,249.76z"/>
<g>
	<circle style="fill:#946450;" cx="115.87" cy="272.87" r="7.233"/>
	<circle style="fill:#946450;" cx="181.22" cy="251.211" r="7.233"/>
	<circle style="fill:#946450;" cx="257.9" cy="280.101" r="7.233"/>
</g>
<path style="fill:#E0F7FF;" d="M378.979,291.529l-11.796-25.86c-4.644-10.182-14.805-16.716-25.997-16.716h-11.51
	c-7.45,0-13.993,4.95-16.02,12.119l-7.046,24.924c-2.304,8.15-9.743,13.777-18.212,13.777H93.493
	c-8.47,0-15.908-5.627-18.213-13.777l-7.046-24.924c-2.027-7.169-8.57-12.119-16.02-12.119H34.146
	c-14.716,0-26.646,11.93-26.646,26.646v9.452c0,5.275,2.981,10.098,7.699,12.457l0,0c7.417,3.708,7.417,14.293,0,18.001l0,0
	c-4.718,2.359-7.699,7.182-7.699,12.457v31.92c0,5.275,2.981,10.098,7.699,12.457l0,0c7.417,3.708,7.417,14.293,0,18.001l0,0
	c-4.718,2.359-7.699,7.182-7.699,12.457v9.453c0,14.716,11.93,26.647,26.646,26.647h307.04c11.191,0,21.353-6.534,25.997-16.716
	l11.796-25.86c4.649-10.193,14.821-16.733,26.024-16.733h39.429V308.26h-39.429C393.8,308.261,383.629,301.721,378.979,291.529z"/>
<g>
	<rect x="413.43" y="308.26" style="fill:#BDECFF;" width="31.01" height="71.33"/>
	<path style="fill:#BDECFF;" d="M351.68,436.893c-138.742-12.305-209.718-76.349-240.601-137.12H93.492
		c-8.47,0-15.908-5.627-18.212-13.778l-7.046-24.924c-2.027-7.169-8.57-12.119-16.02-12.119H34.146
		c-14.716,0-26.646,11.93-26.646,26.646v9.452c0,5.276,2.981,10.098,7.699,12.457l0,0c7.417,3.709,7.417,14.293,0,18.001l0,0
		c-4.718,2.359-7.699,7.182-7.699,12.457v31.92c0,5.276,2.981,10.098,7.699,12.457l0,0c7.417,3.709,7.417,14.293,0,18.001l0,0
		c-4.718,2.359-7.699,7.182-7.699,12.457v9.453c0,14.716,11.93,26.647,26.646,26.647h307.04
		C344.849,438.903,348.395,438.192,351.68,436.893z"/>
</g>
<g>
	<rect x="129.46" y="299.771" style="fill:#7FAFE3;" width="15" height="139.13"/>
	<rect x="183.44" y="299.771" style="fill:#7FAFE3;" width="15" height="139.13"/>
	<rect x="237.43" y="299.771" style="fill:#7FAFE3;" width="15" height="139.13"/>
</g>
<path d="M485.671,284.237h-28.904c-9.807,0-17.952,7.161-19.535,16.524h-32.228c-8.243,0-15.78-4.846-19.201-12.346l-11.796-25.86
	c-5.848-12.819-18.73-21.103-32.82-21.103h-11.51c-8.896,0-16.959,4.953-21.141,12.519c-10.063-7.318-22.021-11.415-34.633-11.71
	c-7.832-0.186-15.483,1.082-22.775,3.762c-0.892,0.327-1.867,0.118-2.367-0.512c-8.754-11.033-20.198-19.14-33.036-23.705v-50.817
	c0-10.476,4.079-20.323,11.486-27.73l35.359-35.361c4.681-4.681,7.259-10.903,7.259-17.521c0-6.618-2.578-12.841-7.258-17.521
	c-4.68-4.681-10.902-7.259-17.521-7.259c-6.619,0.001-12.841,2.578-17.521,7.259l-35.36,35.361
	c-6.235,6.235-11.424,13.237-15.488,20.789l-13.055-13.056c-4.68-4.68-10.902-7.257-17.521-7.257
	c-6.619,0-12.842,2.577-17.521,7.257c-4.681,4.68-7.259,10.902-7.259,17.521c0,6.619,2.578,12.842,7.258,17.521l37.585,37.585
	v33.229c-12.838,4.564-24.283,12.672-33.037,23.705c-0.5,0.63-1.472,0.842-2.367,0.511c-0.836-0.307-1.681-0.597-2.533-0.868
	c-3.942-1.257-8.164,0.923-9.423,4.87c-1.257,3.946,0.924,8.165,4.87,9.423c0.643,0.205,1.281,0.423,1.91,0.654
	c6.999,2.574,14.751,0.457,19.293-5.266c11.237-14.161,28.027-22.283,46.065-22.283s34.828,8.122,46.066,22.284
	c4.542,5.723,12.293,7.837,19.291,5.266c5.515-2.026,11.31-2.98,17.25-2.845c11.172,0.261,21.678,4.483,30.007,11.962l-4.165,14.734
	c-1.385,4.897-5.906,8.317-10.996,8.317H93.492c-5.089,0-9.61-3.42-10.995-8.317l-4.161-14.719c4.367-3.903,9.43-7.006,14.86-9.045
	c3.877-1.456,5.841-5.78,4.385-9.658c-1.455-3.877-5.776-5.841-9.658-4.385c-5.157,1.937-10.057,4.607-14.55,7.858
	c-4.176-7.585-12.249-12.553-21.158-12.553H34.146C15.318,241.454,0,256.771,0,275.599v9.452c0,8.168,4.539,15.512,11.845,19.165
	c1.233,0.616,1.417,1.701,1.417,2.293c0,0.592-0.184,1.677-1.417,2.293C4.539,312.456,0,319.799,0,327.968v31.92
	c0,8.168,4.539,15.512,11.846,19.165c1.232,0.616,1.416,1.701,1.416,2.293c0,0.591-0.184,1.676-1.417,2.292
	C4.539,387.291,0,394.635,0,402.804v9.452c0,18.828,15.318,34.147,34.146,34.147h293.917c4.143,0,7.5-3.358,7.5-7.5
	c0-4.143-3.357-7.5-7.5-7.5H34.146c-10.558,0-19.146-8.589-19.146-19.147v-9.452c0-2.451,1.361-4.654,3.553-5.75
	c5.989-2.993,9.709-9.013,9.709-15.708c0-6.696-3.72-12.716-9.708-15.709c-2.193-1.096-3.554-3.299-3.554-5.749v-31.92
	c0-2.45,1.361-4.653,3.554-5.749c5.988-2.994,9.708-9.014,9.708-15.709s-3.72-12.715-9.708-15.709
	c-2.192-1.096-3.554-3.299-3.554-5.749v-9.452c0-10.558,8.589-19.147,19.146-19.147h18.068c4.074,0,7.693,2.738,8.803,6.658
	l7.046,24.924c3.201,11.326,13.658,19.237,25.429,19.237h194.906c11.771,0,22.229-7.911,25.43-19.237l7.046-24.924
	c1.108-3.92,4.729-6.658,8.803-6.658h11.51c8.232,0,15.758,4.839,19.174,12.327l11.796,25.86
	c5.852,12.831,18.745,21.121,32.848,21.121h31.929v56.332h-31.929c-14.103,0-26.996,8.29-32.848,21.121l-11.797,25.86
	c-0.949,2.081-2.221,3.982-3.781,5.65c-2.829,3.024-2.671,7.771,0.354,10.601c1.446,1.353,3.286,2.022,5.121,2.022
	c2.004,0,4.003-0.798,5.479-2.377c2.672-2.856,4.851-6.111,6.474-9.673l11.796-25.859c3.421-7.5,10.958-12.346,19.201-12.346h32.228
	c1.583,9.363,9.728,16.524,19.535,16.524h28.904c14.518,0,26.329-11.811,26.329-26.329v-66.723
	C512,296.049,500.189,284.237,485.671,284.237z M166.253,167.451l-27.065-27.064c-1.847-1.847-2.864-4.302-2.864-6.914
	s1.018-5.067,2.865-6.914c3.813-3.814,10.018-3.812,13.828-0.001l17.357,17.357C167.968,151.458,166.569,159.357,166.253,167.451z
	 M200.725,218.202c-3.216-0.425-6.48-0.648-9.779-0.648c-3.299,0-6.563,0.223-9.778,0.647v-47.21
	c0-19.705,7.674-38.231,21.608-52.166l35.36-35.361c1.847-1.848,4.303-2.864,6.914-2.865c2.612,0,5.067,1.017,6.915,2.865
	c1.847,1.847,2.864,4.303,2.864,6.914s-1.018,5.067-2.865,6.915l-35.36,35.361c-10.239,10.24-15.879,23.855-15.879,38.337
	L200.725,218.202L200.725,218.202z M497,377.289c0,6.247-5.082,11.329-11.329,11.329h-28.904c-2.665,0-4.834-2.169-4.834-4.834
	v-15.494h22.533c4.143,0,7.5-3.357,7.5-7.5c0-4.142-3.357-7.5-7.5-7.5h-22.533v-18.726h22.533c4.143,0,7.5-3.357,7.5-7.5
	s-3.357-7.5-7.5-7.5h-22.533v-15.493c0-2.665,2.169-4.834,4.834-4.834h28.904c6.247,0,11.329,5.082,11.329,11.329V377.289z"/>
<g>
</g>
<g>
</g>
<g>
</g>
<g>
</g>
<g>
</g>
<g>
</g>
<g>
</g>
<g>
</g>
<g>
</g>
<g>
</g>
<g>
</g>
<g>
</g>
<g>
</g>
<g>
</g>
<g>
</g>
</svg>
