<svg id="_x33_0" enable-background="new 0 0 64 64" height="512" viewBox="0 0 64 64" width="512" xmlns="http://www.w3.org/2000/svg"><g><g><g><path d="m35 4v6h-16v-6c0-1.1.9-2 2-2h12c1.1 0 2 .9 2 2z" fill="#fcd770"/></g><g><path d="m40 15.26v7.49c-.12.14-.23.29-.34.44-.61.84-1.07 1.79-1.34 2.81h-.01-36.3c.04-1.22.82-2.29 1.98-2.71l7.3-2.61c2.88-1.03 4.92-3.61 5.26-6.65l.25-2.25c.11-1.01.97-1.78 1.99-1.78h.21 16l3.06 1.83c1.2.73 1.94 2.03 1.94 3.43z" fill="#a0d468"/></g><g><path d="m2.01 26h36.3.01c-.18.64-.29 1.31-.31 2-.01.11-.01.21-.01.32v7.68h-4v-4h-26v22h20v2 3c0 .35.06.69.18 1h-.01-22.17c-2.21 0-4-1.79-4-4v-29.89c0-.04 0-.07.01-.11z" fill="#b4dd7f"/></g><g><path d="m28 52v2h-20v-22h26v4h-7c-.55 0-1 .45-1 1v2c0 .55.45 1 1 1h1v4 4z" fill="#e6e9ed"/></g><g><path d="m55 12h-10c-.55 0-1 .45-1 1v7h12v-7c0-.55-.45-1-1-1z" fill="#4fc1e9"/></g><g><path d="m61.99 28h-23.98c.02-.69.13-1.36.31-2 .27-1.02.73-1.97 1.34-2.81.11-.15.22-.3.34-.44 1.02-1.25 2.4-2.21 4-2.75h4 4 4c3.48 1.16 5.86 4.36 5.99 8z" fill="#ccd1d9"/></g><g><path d="m62 28.32v27.68c0 2.21-1.79 4-4 4h-12.17-.01c.12-.31.18-.65.18-1v-3-2h12v-22h-16v4h-4v-7.68c0-.11 0-.21.01-.32h23.98c.01.11.01.21.01.32z" fill="#e6e9ed"/></g><g><path d="m46 40h1c.55 0 1-.45 1-1v-2c0-.55-.45-1-1-1h-5v-4h16v22h-12v-2-4-4z" fill="#ff826e"/></g><g><path d="m28 40v19c0 .35.06.69.18 1 .4 1.17 1.51 2 2.82 2h12c1.31 0 2.42-.83 2.82-2 .12-.31.18-.65.18-1v-19z" fill="#ffeaa7"/></g><g><path d="m48 37v2c0 .55-.45 1-1 1h-1-18-1c-.55 0-1-.45-1-1v-2c0-.55.45-1 1-1h7 4 4 5c.55 0 1 .45 1 1z" fill="#fcd770"/></g></g><path d="m57 19.31v-6.31c0-1.103-.897-2-2-2h-10c-1.103 0-2 .897-2 2v6.31c-.719.3-1.388.68-2 1.128v-5.173c0-1.746-.93-3.389-2.427-4.287l-2.573-1.544v-5.434c0-1.654-1.346-3-3-3h-12c-1.654 0-3 1.346-3 3v5.118c-1.16.318-2.052 1.303-2.191 2.551l-.25 2.252c-.294 2.641-2.101 4.925-4.604 5.819l-7.3 2.607c-1.588.568-2.655 2.082-2.655 3.767v29.886c0 2.757 2.243 5 5 5h21.556c.694 1.19 1.97 2 3.444 2h12c1.474 0 2.75-.81 3.444-2h11.556c2.757 0 5-2.243 5-5v-27.676c0-3.968-2.383-7.503-6-9.014zm-2-.31h-2v-6h2zm-6 0v-6h2v6zm-2-6v6h-2v-6zm-2.833 8h11.665c2.675.951 4.576 3.263 5.047 6h-21.758c.471-2.737 2.372-5.049 5.046-6zm-11.167 14h-6c-1.103 0-2 .897-2 2v2c0 1.103.897 2 2 2v12h-18v-20h24zm12 16h-16v-2h16zm0-4h-16v-2h16zm0-4h-16v-2h16zm-16 10h16v2h-16zm18-12c1.103 0 2-.897 2-2v-2c0-1.103-.897-2-2-2h-4v-2h14v20h-10zm0-4 .001 2h-20.001v-2zm-26-34h12c.551 0 1 .448 1 1v5h-14v-5c0-.552.449-1 1-1zm-16.672 21.23 7.3-2.607c3.218-1.149 5.541-4.086 5.918-7.481l.25-2.252c.057-.507.484-.89.994-.89h15.933l2.82 1.692c.899.539 1.457 1.525 1.457 2.573v7.141c-.597.785-1.074 1.658-1.412 2.594h-34.24c.233-.346.569-.623.98-.77zm1.672 34.77c-1.654 0-3-1.346-3-3v-29h34.096c-.059.435-.096.876-.096 1.324v6.676h-2v-4h-28v24h20v4zm37 2h-12c-1.103 0-2-.897-2-2v-2h16v2c0 1.103-.897 2-2 2zm15-2h-11v-4h12v-24h-18v4h-2v-6h22v27c0 1.654-1.346 3-3 3z"/></g></svg>