<svg id="Capa_1" enable-background="new 0 0 512 512" height="512" viewBox="0 0 512 512" width="512" xmlns="http://www.w3.org/2000/svg"><g><path d="m477.43 504.474h-442.86c-14.95 0-27.07-12.12-27.07-27.07v-235.974c0-.837.678-1.515 1.515-1.515h493.971c.837 0 1.515.678 1.515 1.515v235.974c-.001 14.951-12.121 27.07-27.071 27.07z" fill="#aa7a63"/><path d="m464.5 239.916v142.176c0 56.544-45.838 102.382-102.382 102.382h-353.685c3.109 11.522 13.633 20 26.137 20h442.86c14.95 0 27.07-12.12 27.07-27.07v-235.974c0-.837-.678-1.515-1.515-1.515h-38.485z" fill="#986b54"/><path d="m156.681 288.991-20.17 5.405c-1.099.294-1.75 1.423-1.456 2.522l6.614 24.683c1.917 7.155-2.329 14.51-9.484 16.427-6.181 1.656-12.535-2.012-14.192-8.193-.329-1.23-1.593-1.959-2.823-1.63l-26.479 7.095c-1.23.329-1.959 1.593-1.63 2.823 1.656 6.181-2.012 12.535-8.193 14.192-7.155 1.917-14.51-2.329-16.427-9.484l-6.614-24.683c-.294-1.099-1.423-1.75-2.522-1.456l-20.17 5.405c-1.099.294-1.75 1.423-1.456 2.522l38.47 143.571c.294 1.099 1.423 1.75 2.522 1.456l123.547-33.104c1.099-.294 1.75-1.423 1.456-2.522l-38.47-143.571c-.295-1.1-1.424-1.752-2.523-1.458z" fill="#f1f4f6"/><path d="m421.76 300.953 30.759 17.759c1.584.915 3.609.372 4.524-1.212l12.759-22.099c.915-1.584.372-3.609-1.212-4.524l-30.759-17.759c-1.584-.914-3.609-.372-4.524 1.212l-12.759 22.099c-.914 1.584-.372 3.609 1.212 4.524z" fill="#ffd064"/><path d="m468.59 290.877-4.09-2.361v16.069l5.302-9.184c.915-1.584.372-3.61-1.212-4.524z" fill="#ffc250"/><path d="m418.03 310.532 5.08-8.799 28.059 16.2-5.08 8.799c-2.094 3.626-2.365 8.081-.526 11.842 5.492 11.228 5.478 24.898-1.242 36.537l-53.788 93.164c-1.901 3.292-6.11 4.42-9.402 2.519l-55.385-31.976c-3.292-1.901-4.42-6.11-2.519-9.401l53.788-93.164c6.72-11.639 18.551-18.486 31.021-19.343 4.179-.29 7.901-2.752 9.994-6.378z" fill="#b1e4f9"/><g fill="#86a0af"><ellipse cx="353.624" cy="292.159" rx="18.741" ry="13.914"/><ellipse cx="94.55" cy="282.356" rx="14.682" ry="13.914" transform="matrix(.707 -.707 .707 .707 -171.963 149.557)"/><circle cx="266.717" cy="463.757" r="13.914"/></g><path d="m412.479 13.515c-17.736-17.736-89.24 6.117-121.771 38.648-25.93 25.93-28.481 56.412-18.532 77.63l78.896-73.883c5.379-5.037 13.831-4.819 18.941.549 4.967 5.218 4.696 13.524-.228 18.782l-73.584 78.577c21.219 9.948 51.701 7.398 77.631-18.532 32.531-32.531 56.383-104.035 38.647-121.771z" fill="#78c2a4"/><path d="m264.948 239.916v-35.522c0-11.052 4.204-21.69 11.758-29.758l93.079-99.395c4.924-5.258 5.195-13.564.228-18.782-5.11-5.368-13.562-5.586-18.941-.549l-98.069 91.837c-2.933 2.747-7.461 2.855-10.522.252l-21.276-18.094c-8.548-7.27-21.245-6.757-29.18 1.177-2.463 2.463-2.622 6.406-.365 9.059l29.643 34.855c6.695 7.872 10.372 17.87 10.372 28.205v36.714z" fill="#ccf49f"/><path d="m264.948 239.916h-33.273v6.164c0 18.962 2.486 37.842 7.393 56.158l7.804 29.123c.395 1.473 2.485 1.473 2.879 0l7.803-29.123c4.908-18.316 7.393-37.196 7.393-56.158v-6.164z" fill="#b3e59f"/><path d="m502.985 232.416h-28.915c-4.142 0-7.5 3.357-7.5 7.5s3.358 7.5 7.5 7.5h22.93v229.988c0 10.791-8.779 19.57-19.57 19.57h-442.86c-10.791 0-19.57-8.779-19.57-19.57v-229.988h209.18c.035 5.903.303 11.8.803 17.675l-10.519 10.519c-4.639 4.64-10.946 7.418-17.909 7.418h-8.383c-4.142 0-7.5 3.357-7.5 7.5s3.358 7.5 7.5 7.5c7.084-.087 9.821.247 14.48-.455v3.99c0 6.563-2.556 12.733-7.195 17.373l-2.727 2.726c-2.93 2.929-2.931 7.678-.002 10.607 2.927 2.928 7.677 2.931 10.606.002l2.728-2.728c7.474-7.474 11.589-17.411 11.589-27.98v-9.474c2.662-1.64 5.151-3.604 7.418-5.87l2.316-2.316c2.446 14.31 5.341 23.245 7.319 31.028l-3.21 5.56c-3.459 5.991-5.731 12.443-6.782 19.076l-6.846 6.846c-3.68 3.68-8.572 5.706-13.775 5.706-4.142 0-7.5 3.357-7.5 7.5s3.358 7.5 7.5 7.5c7.78 0 15.166-2.559 21.198-7.279.51 2.369.792 3.15 4.007 15.228 1.076 4.016 5.204 6.374 9.186 5.303 4.001-1.071 6.375-5.185 5.304-9.186l-3.344-12.481c-2.014-7.517-1.843-15.311.472-22.621 1.645 2.378 4.386 3.884 7.397 3.884 4.062 0 7.633-2.74 8.685-6.663l7.088-26.451 6.513 6.512c1.541 1.541 3.207 2.912 4.974 4.105v1.313c0 11.764 4.581 22.824 12.897 31.141 2.85 3.497 8.128 4.047 11.368.765 3.283-3.237 2.738-8.516-.76-11.37-4.487-4.486-7.324-10.183-8.209-16.354 2.53.246 3.936.127 8.156.159 4.142 0 7.5-3.357 7.5-7.5s-3.358-7.5-7.5-7.5h-4.873c-4.881 0-9.483-1.9-12.947-5.364l-13.039-13.038c.636-3.209 1.201-6.431 1.696-9.663l16.123 4.321 11.597 11.597c2.93 2.929 7.678 2.928 10.606 0 2.929-2.93 2.929-7.678 0-10.607l-7.714-7.714 7.413-7.413c2.929-2.929 2.929-7.678 0-10.606s-7.678-2.929-10.606.001l-9.655 9.654-15.978-4.282c.495-5.847.761-11.715.796-17.59h166.627c4.142 0 7.5-3.357 7.5-7.5s-3.358-7.5-7.5-7.5h-166.621v-28.022c0-9.182 3.457-17.929 9.733-24.631l15.95-17.033c7.213 2.62 15.01 3.956 22.934 3.956 21.959 0 42.229-10.256 58.07-26.097 16.246-16.246 31.202-42.201 40.007-69.43 4.525-13.993 13.451-48.139-1.359-62.947-14.809-14.812-48.955-5.886-62.948-1.36-27.229 8.806-53.184 23.761-69.43 40.008-3.485 3.485-6.683 7.161-9.503 10.923-2.484 3.314-1.812 8.016 1.502 10.5 3.314 2.483 8.015 1.812 10.5-1.502 2.396-3.196 5.124-6.33 8.108-9.314 14.428-14.429 38.736-28.354 63.438-36.342 26.117-8.444 42.788-7.245 47.726-2.306 4.938 4.937 6.139 21.608-2.307 47.726-7.988 24.702-21.913 49.01-36.341 63.438-20.336 20.337-42.242 24.187-58.925 20.497l65.656-70.112c7.75-8.275 7.832-21.049.187-29.079-7.903-8.303-21.137-8.685-29.5-.854l-70.441 65.965c-1.378-6.233-1.597-12.836-.617-19.521.601-4.099-2.235-7.908-6.333-8.509-4.103-.596-7.908 2.235-8.509 6.333-1.682 11.475-.569 22.83 3.212 33.165l-15.383 14.405c-.15.14-.38.144-.537.013-6.986-5.942 9.598 8.163-21.275-18.095-11.441-9.731-28.723-9.033-39.342 1.587-5.188 5.189-5.528 13.633-.775 19.222 6.248 7.346 24.453 28.752 29.644 34.855 5.536 6.509 8.584 14.8 8.584 23.345v29.215h-215.159c-4.971-.003-9.015 4.041-9.015 9.011v235.974c0 19.062 15.508 34.57 34.57 34.57h442.86c19.062 0 34.57-15.508 34.57-34.57v-235.974c0-4.97-4.044-9.014-9.015-9.014zm-254.673 75.34c-.985-4.639-8.922-27.39-9.132-60.34h18.264c-.212 33.147-8.182 55.842-9.132 60.34zm9.817-154.534c135.279-126.684 45.029-42.168 98.069-91.838 2.376-2.225 6.137-2.113 8.383.246 2.133 2.241 2.012 6.047-.271 8.483-17.219 18.388-75.835 80.981-93.079 99.395-8.889 9.492-13.784 21.881-13.784 34.885v28.022h-18.273v-29.215c0-12.103-4.318-23.845-12.158-33.063l-1.793-2.108c3.816-5.255 6.896-11.001 9.158-17.071l3.239 2.755c5.973 5.078 14.79 4.867 20.509-.491zm-41.783-17.604 5.662 4.816c-1.475 5.573-3.793 10.884-6.863 15.745l-17.273-20.309c5.165-4.635 13.135-4.793 18.474-.252z"/><path d="m204.917 432.076-38.469-143.567c-1.365-5.102-6.602-8.13-11.708-6.762l-20.173 5.405c-5.089 1.366-8.12 6.618-6.756 11.707l6.614 24.684c.846 3.156-1.024 6.394-4.181 7.241-2.176.586-4.423-.714-5.006-2.889-1.401-5.233-6.774-8.34-12.009-6.935l-26.483 7.096c-5.22 1.401-8.329 6.788-6.93 12.008.583 2.177-.713 4.422-2.89 5.006-3.185.848-6.403-1.048-7.242-4.182l-6.614-24.683c-1.364-5.09-6.615-8.123-11.708-6.76l-20.168 5.404c-5.103 1.366-8.128 6.603-6.761 11.708l18.651 69.607c1.072 4.001 5.185 6.378 9.186 5.303 4.001-1.071 6.375-5.185 5.304-9.186l-17.243-64.352 9.659-2.588 5.206 19.427c1.446 5.396 4.906 9.906 9.744 12.699 4.837 2.793 10.473 3.536 15.869 2.089 8.428-2.258 14.03-9.85 14.147-18.173l17.831-4.777c4.264 7.147 12.912 10.928 21.339 8.664 5.396-1.445 9.906-4.905 12.699-9.744 2.793-4.837 3.535-10.473 2.089-15.868l-5.206-19.429 9.659-2.588 35.654 133.061-113.037 30.29-8.928-33.321c-1.072-4.001-5.187-6.378-9.186-5.303-4.001 1.071-6.375 5.185-5.304 9.186l10.337 38.578c1.364 5.082 6.61 8.121 11.707 6.757l123.55-33.105c5.09-1.367 8.121-6.619 6.757-11.708z"/><path d="m472.34 284.382-30.758-17.758c-5.184-2.996-11.788-1.21-14.771 3.956l-12.759 22.099c-1.872 3.243-1.896 7.07-.3 10.262l-2.218 3.842c-.878 1.521-2.416 2.534-4.012 2.644-15.44 1.062-29.272 9.688-37.001 23.076l-53.789 93.163c-3.964 6.867-1.603 15.681 5.265 19.647l55.384 31.975c6.873 3.971 15.668 1.632 19.647-5.263l53.789-93.164c7.729-13.388 8.283-29.68 1.483-43.582-.703-1.438-.594-3.276.284-4.797l2.222-3.848c3.507-.211 6.848-2.12 8.732-5.384l12.759-22.1c2.987-5.173 1.22-11.782-3.957-14.768zm-34.513 86.978-53.479 92.629-54.315-31.358 53.479-92.629c5.229-9.057 14.589-14.893 25.04-15.611 6.61-.454 12.581-4.233 15.974-10.108l1.33-2.304 15.069 8.7-1.331 2.304c-3.391 5.875-3.678 12.936-.768 18.887 4.603 9.409 4.23 20.433-.999 29.49zm14.816-61.237c-8.138-4.698-15.142-8.742-23.505-13.571l8.571-14.845 23.505 13.57z"/><path d="m379.865 292.159c0-12.008-11.526-21.414-26.241-21.414s-26.241 9.406-26.241 21.414 11.526 21.413 26.241 21.413 26.241-9.405 26.241-21.413zm-37.483 0c0-3.027 4.808-6.414 11.241-6.414s11.241 3.387 11.241 6.414-4.808 6.413-11.241 6.413-11.241-3.386-11.241-6.413z"/><path d="m109.691 297.498c8.641-8.64 8.946-22.425.543-30.827-8.491-8.488-22.269-8.013-30.827.544-8.648 8.649-8.892 22.478-.543 30.826 8.545 8.544 22.349 7.936 30.827-.543zm-19.676-19.677c2.873-2.874 7.182-2.975 9.614-.542 2.379 2.379 2.383 6.685-.545 9.613-2.942 2.943-7.252 2.904-9.613.543-2.5-2.501-2.257-6.813.544-9.614z"/><path d="m251.576 448.615c-8.349 8.35-8.349 21.935 0 30.283 8.368 8.369 21.913 8.37 30.283.001 8.349-8.35 8.349-21.935 0-30.284-8.369-8.368-21.914-8.369-30.283 0zm19.676 19.677c-2.505 2.506-6.563 2.508-9.07 0-2.5-2.5-2.5-6.569 0-9.07 2.505-2.505 6.562-2.507 9.069.001 2.502 2.499 2.502 6.569.001 9.069z"/><circle cx="451.17" cy="452.951" r="7.5"/><circle cx="471.682" cy="408.48" r="7.5"/><circle cx="289.565" cy="394.224" r="7.5"/><circle cx="175.635" cy="477.215" r="7.5"/><circle cx="40.529" cy="278.245" r="7.5"/></g></svg>