<svg id="_x33_0" enable-background="new 0 0 64 64" height="512" viewBox="0 0 64 64" width="512" xmlns="http://www.w3.org/2000/svg"><g><g><g><path d="m60 31c0-2.209-1.791-4-4-4s-4 1.791-4 4c-2.761 0-5 2.239-5 5s2.239 5 5 5 5-2.239 5-5c0-.379-.05-.746-.13-1.101 1.789-.398 3.13-1.989 3.13-3.899z" fill="#ccd1d9"/></g><g><path d="m4 31c0-2.209 1.791-4 4-4s4 1.791 4 4c2.761 0 5 2.239 5 5s-2.239 5-5 5-5-2.239-5-5c0-.379.05-.746.13-1.101-1.789-.398-3.13-1.989-3.13-3.899z" fill="#ccd1d9"/></g><g><path d="m21.974 22.486c.452-1.003 1.049-1.922 1.765-2.737.169-.554.261-1.14.261-1.749 0-2.26-1.251-4.226-3.096-5.249.69-1.085 1.096-2.37 1.096-3.751 0-3.866-3.134-7-7-7s-7 3.134-7 7c0 .386.039.761.099 1.13-.354-.08-.72-.13-1.099-.13-2.761 0-5 2.239-5 5s2.239 5 5 5c2.658 0 4.81-2.08 4.969-4.697.183.088.369.168.56.241-.337.75-.529 1.58-.529 2.456 0 3.314 2.686 6 6 6 1.526 0 2.915-.575 3.974-1.514z" fill="#ccd1d9"/></g><g><path d="m57 10c-.379 0-.745.05-1.099.13.06-.369.099-.744.099-1.13 0-3.866-3.134-7-7-7s-7 3.134-7 7c0 1.381.406 2.666 1.096 3.751-1.845 1.023-3.096 2.989-3.096 5.249 0 .609.092 1.195.261 1.749.716.815 1.313 1.735 1.765 2.737 1.059.939 2.448 1.514 3.974 1.514 3.314 0 6-2.686 6-6 0-.876-.192-1.706-.53-2.457.191-.072.378-.152.56-.241.16 2.618 2.312 4.698 4.97 4.698 2.761 0 5-2.239 5-5s-2.239-5-5-5z" fill="#ccd1d9"/></g><g><path d="m32 16c6.08 0 11 4.92 11 11v4.17c0 3.62 1.9 6.97 5 8.83-.53 1.6-1.67 2.9-3.16 3.65-.46-.33-.98-.59-1.54-.76l-.2-.06-6.1-1.83-.57-2.3c-.09-.35-.25-.66-.48-.92 1.84-1.26 3.05-3.38 3.05-5.78v-4.59c0-.85-.32-1.67-.89-2.29-.54.54-1.28.88-2.11.88h-4c-.83 0-1.58-.34-2.12-.88s-.88-1.29-.88-2.12l-1.79.89c-1.35.68-2.21 2.07-2.21 3.58v4.53c0 2.4 1.21 4.52 3.05 5.78-.23.26-.39.57-.48.92l-.57 2.3-6.1 1.83-.2.06c-.56.17-1.08.43-1.54.76-1.49-.75-2.63-2.05-3.16-3.65 3.1-1.86 5-5.21 5-8.83v-4.17c0-6.08 4.92-11 11-11z" fill="#b27946"/></g><g><path d="m59.315 54.239c.432-.639.685-1.409.685-2.239 0-2.209-1.791-4-4-4s-4 1.791-4 4c0 .035.009.068.01.102-.326-.067-.664-.102-1.01-.102-2.761 0-5 2.239-5 5s2.239 5 5 5c1.492 0 2.817-.667 3.733-1.703.724 1.027 1.914 1.703 3.267 1.703 2.209 0 4-1.791 4-4 0-1.746-1.126-3.215-2.685-3.761z" fill="#ccd1d9"/></g><g><path d="m4.685 54.239c-.432-.639-.685-1.409-.685-2.239 0-2.209 1.791-4 4-4s4 1.791 4 4c0 .035-.009.068-.01.102.326-.067.664-.102 1.01-.102 2.761 0 5 2.239 5 5s-2.239 5-5 5c-1.492 0-2.817-.667-3.733-1.703-.724 1.027-1.914 1.703-3.267 1.703-2.209 0-4-1.791-4-4 0-1.746 1.126-3.215 2.685-3.761z" fill="#ccd1d9"/></g><g><path d="m25.25 44.49.75 1.51v6l-5.1-9.17 6.1-1.83-.71.35c-.79.4-1.29 1.21-1.29 2.1 0 .36.08.72.25 1.04z" fill="#ff826e"/></g><g><path d="m38.75 44.49c.17-.32.25-.68.25-1.04 0-.89-.5-1.7-1.29-2.1l-.71-.35 6.1 1.83-5.1 9.17v-6z" fill="#ff826e"/></g><g><path d="m26 52v-6l-.75-1.51c-.17-.32-.25-.68-.25-1.04 0-.89.5-1.7 1.29-2.1l.71-.35.57-2.3c.09-.35.25-.66.48-.92.41-.48 1.03-.78 1.7-.78 1.24 0 2.25 1.01 2.25 2.25v17.26c0 1.51-.62 2.89-1.61 3.88s-2.37 1.61-3.88 1.61c-2.14 0-4.08-1.24-4.98-3.19l-4.05-8.78c-.32-.68-.48-1.42-.48-2.17 0-1.7.83-3.26 2.16-4.21.46-.33.98-.59 1.54-.76l.2-.06z" fill="#f0d0b4"/></g><g><path d="m38 52 5.1-9.17.2.06c.56.17 1.08.43 1.54.76 1.33.95 2.16 2.51 2.16 4.21 0 .75-.16 1.49-.48 2.17l-4.05 8.78c-.9 1.95-2.84 3.19-4.98 3.19-1.51 0-2.89-.62-3.88-1.61s-1.61-2.37-1.61-3.88v-17.26c0-1.24 1.01-2.25 2.25-2.25.67 0 1.29.3 1.7.78.23.26.39.57.48.92l.57 2.3.71.35c.79.4 1.29 1.21 1.29 2.1 0 .36-.08.72-.25 1.04l-.75 1.51z" fill="#f0d0b4"/></g><g><path d="m39 27.41v4.59c0 2.4-1.21 4.52-3.05 5.78-.41-.48-1.03-.78-1.7-.78-1.24 0-2.25 1.01-2.25 2.25 0-1.24-1.01-2.25-2.25-2.25-.67 0-1.29.3-1.7.78-1.84-1.26-3.05-3.38-3.05-5.78v-4.53c0-1.51.86-2.9 2.21-3.58l1.79-.89c0 .83.34 1.58.88 2.12s1.29.88 2.12.88h4c.83 0 1.57-.34 2.11-.88.57.62.89 1.44.89 2.29z" fill="#f0d0b4"/></g></g><g><path d="m36.707 32.293-1.293-1.293 1.293-1.293-1.414-1.414-2.707 2.707 2.707 2.707z"/><path d="m27.293 29.707 1.293 1.293-1.293 1.293 1.414 1.414 2.707-2.707-2.707-2.707z"/><path d="m13 61c-2.206 0-4-1.794-4-4s1.794-4 4-4v-2c-2.581 0-4.78 1.641-5.625 3.932-1.355-.288-2.375-1.492-2.375-2.932 0-1.654 1.346-3 3-3v-2c-2.757 0-5 2.243-5 5 0 .629.13 1.226.343 1.781-1.429.902-2.343 2.479-2.343 4.219 0 2.757 2.243 5 5 5 1.235 0 2.415-.463 3.322-1.269 1.017.792 2.292 1.269 3.678 1.269 1.905 0 3.654-.875 4.8-2.399l-1.6-1.201c-.763 1.017-1.93 1.6-3.2 1.6zm-7 0c-1.654 0-3-1.346-3-3 0-1.046.55-1.994 1.41-2.535.69.715 1.585 1.229 2.595 1.434 0 .034-.005.067-.005.101 0 1.202.359 2.32.97 3.26-.541.471-1.24.74-1.97.74z"/><path d="m13 31h-2c0 1.654-1.346 3-3 3s-3-1.346-3-3 1.346-3 3-3v-2c-2.757 0-5 2.243-5 5 0 2.054 1.247 3.82 3.023 4.588-.01.138-.023.274-.023.412 0 3.309 2.691 6 6 6v-2c-2.206 0-4-1.794-4-4 2.757 0 5-2.243 5-5z"/><path d="m7 21v-2c-2.206 0-4-1.794-4-4s1.794-4 4-4c.097 0 .19.024.286.031.571 2.144 2.01 3.985 3.992 5.034-.177.616-.278 1.263-.278 1.935 0 3.86 3.14 7 7 7v-2c-2.757 0-5-2.243-5-5s2.243-5 5-5c1.678 0 3.236.836 4.168 2.236l1.665-1.107c-1.303-1.96-3.483-3.129-5.833-3.129-2.479 0-4.656 1.299-5.9 3.249-1.882-1.046-3.1-3.058-3.1-5.249 0-3.309 2.691-6 6-6s6 2.691 6 6h2c0-4.411-3.589-8-8-8s-8 3.589-8 8c-3.309 0-6 2.691-6 6s2.691 6 6 6z"/><path d="m1 41h2v2h-2z"/><path d="m7 43h2v2h-2z"/><path d="m3 45h2v2h-2z"/><path d="m48 47.86c0-1.546-.573-2.962-1.53-4.058 1.149-.881 2.011-2.082 2.479-3.486l.253-.761-.688-.413c-2.784-1.67-4.514-4.725-4.514-7.973v-4.169c0-6.617-5.383-12-12-12s-12 5.383-12 12v4.169c0 3.248-1.73 6.303-4.515 7.974l-.688.413.253.761c.468 1.404 1.33 2.605 2.479 3.486-.956 1.095-1.529 2.512-1.529 4.057 0 .889.197 1.786.569 2.593l4.051 8.777c1.057 2.29 3.369 3.77 5.892 3.77 2.311 0 4.339-1.219 5.488-3.043 1.15 1.824 3.177 3.043 5.488 3.043 2.522 0 4.835-1.479 5.892-3.77l4.051-8.777c.372-.807.569-1.704.569-2.593zm-26-16.691v-4.169c0-5.514 4.486-10 10-10s10 4.486 10 10v4.169c0 3.657 1.805 7.113 4.762 9.215-.432.866-1.097 1.58-1.919 2.099-.394-.22-.806-.416-1.254-.55l-5.757-1.727-.436-1.746c-.037-.148-.09-.288-.146-.426 1.735-1.512 2.75-3.705 2.75-6.034v-4.586c0-.812-.232-1.583-.639-2.261.4-.623.639-1.359.639-2.153h-2c0 1.103-.897 2-2 2h-4c-1.103 0-2-.897-2-2s.897-2 2-2v-2c-1.983 0-3.621 1.454-3.934 3.349l-1.302.651c-1.705.852-2.764 2.566-2.764 4.472v4.528c0 2.329 1.015 4.522 2.75 6.033-.056.138-.109.278-.146.426l-.436 1.746-5.758 1.727c-.448.135-.86.33-1.254.55-.821-.519-1.487-1.232-1.918-2.099 2.957-2.101 4.762-5.557 4.762-9.214zm9 1.831v3.25c-.384-.16-.805-.25-1.246-.25-.628 0-1.216.188-1.719.503-1.286-1.133-2.035-2.768-2.035-4.503v-4.528c0-1.144.635-2.172 1.658-2.683l.631-.316c.589 1.477 2.027 2.527 3.711 2.527h4c.662 0 1.278-.177 1.829-.463.109.278.171.576.171.877v4.586c0 1.735-.749 3.37-2.035 4.503-.503-.315-1.091-.503-1.719-.503-.442 0-.862.09-1.246.25v-3.25zm-6.647 11.942.647 1.294v1.905l-2.618-4.712 1.66-.498c-.026.169-.042.341-.042.516 0 .516.122 1.033.353 1.495zm15.294 0c.231-.462.353-.979.353-1.495 0-.175-.016-.347-.042-.516l1.66.498-2.618 4.712v-1.905zm-13.135 16.058c-1.745 0-3.345-1.023-4.075-2.607l-4.051-8.777c-.253-.547-.386-1.154-.386-1.756 0-1.667.964-3.127 2.445-3.801l4.555 8.2v4.741h2v-11.236l-.858-1.716c-.093-.186-.142-.393-.142-.601 0-.512.284-.971.742-1.2l1.117-.559.687-2.744c.138-.556.635-.944 1.208-.944.687 0 1.246.559 1.246 1.246v17.266c0 2.474-2.014 4.488-4.488 4.488zm19.102-11.384-4.051 8.777c-.73 1.584-2.33 2.607-4.075 2.607-2.474 0-4.488-2.014-4.488-4.488v-17.266c0-.687.559-1.246 1.246-1.246.573 0 1.07.388 1.209.944l.687 2.744 1.117.559c.457.229.741.688.741 1.2 0 .208-.049.415-.142.6l-.858 1.717v11.236h2v-4.741l4.555-8.2c1.481.674 2.445 2.134 2.445 3.801 0 .602-.133 1.209-.386 1.756z"/><path d="m60.657 53.781c.213-.555.343-1.152.343-1.781 0-2.757-2.243-5-5-5v2c1.654 0 3 1.346 3 3 0 1.44-1.02 2.644-2.375 2.932-.845-2.291-3.044-3.932-5.625-3.932v2c2.206 0 4 1.794 4 4s-1.794 4-4 4c-1.27 0-2.437-.583-3.2-1.601l-1.6 1.201c1.146 1.525 2.895 2.4 4.8 2.4 1.386 0 2.661-.477 3.678-1.269.907.806 2.087 1.269 3.322 1.269 2.757 0 5-2.243 5-5 0-1.74-.914-3.317-2.343-4.219zm-2.657 7.219c-.73 0-1.429-.269-1.97-.74.611-.94.97-2.058.97-3.26 0-.034-.005-.067-.005-.101 1.01-.205 1.905-.719 2.595-1.434.86.541 1.41 1.489 1.41 2.535 0 1.654-1.346 3-3 3z"/><path d="m56 26v2c1.654 0 3 1.346 3 3s-1.346 3-3 3-3-1.346-3-3h-2c0 2.757 2.243 5 5 5 0 2.206-1.794 4-4 4v2c3.309 0 6-2.691 6-6 0-.138-.013-.274-.023-.412 1.776-.768 3.023-2.534 3.023-4.588 0-2.757-2.243-5-5-5z"/><path d="m51.9 14.249c-1.244-1.95-3.421-3.249-5.9-3.249-2.35 0-4.53 1.169-5.833 3.129l1.665 1.107c.932-1.4 2.49-2.236 4.168-2.236 2.757 0 5 2.243 5 5s-2.243 5-5 5v2c3.86 0 7-3.14 7-7 0-.672-.101-1.319-.278-1.935 1.982-1.049 3.421-2.89 3.992-5.034.096-.007.189-.031.286-.031 2.206 0 4 1.794 4 4s-1.794 4-4 4v2c3.309 0 6-2.691 6-6s-2.691-6-6-6c0-4.411-3.589-8-8-8s-8 3.589-8 8h2c0-3.309 2.691-6 6-6s6 2.691 6 6c0 2.191-1.218 4.203-3.1 5.249z"/><path d="m61 41h2v2h-2z"/><path d="m55 43h2v2h-2z"/><path d="m59 45h2v2h-2z"/><path d="m28 9h2v2h-2z"/><path d="m34 7h2v2h-2z"/><path d="m30 3h2v2h-2z"/></g></g></svg>