<svg id="Capa_1" enable-background="new 0 0 511.997 511.997" height="512" viewBox="0 0 511.997 511.997" width="512" xmlns="http://www.w3.org/2000/svg"><g><path d="m487.418 156.421h-306.689c-1.792 0-3.2 1.536-3.044 3.322l17.504 200.071c15.119 7.947 26.518 22.014 30.906 38.907 2.364 9.104 10.549 15.48 19.955 15.48 43.846 0 79.391 35.544 79.391 79.391v8.802c0 1.162-.942 2.104-2.104 2.104h134.163c1.584 0 2.906-1.211 3.044-2.789l29.918-341.966c.156-1.786-1.251-3.322-3.044-3.322z" fill="#d0e2e7"/><path d="m487.418 156.421h-38.416l-20.708 236.699c-4.524 51.706-47.818 91.378-99.721 91.378h-3.648c.34 2.984.515 6.019.515 9.094v8.802c0 1.162-.942 2.104-2.104 2.104h134.164c1.584 0 2.906-1.211 3.044-2.789l29.918-341.966c.156-1.786-1.251-3.322-3.044-3.322z" fill="#b4d0d5"/><path d="m450.03 207.813-15.49 247.756c-.649 10.387-9.263 18.48-19.671 18.48h-.747c-11.175 0-20.115-9.281-19.696-20.449l9.299-247.756c.398-10.59 9.098-18.97 19.696-18.97h6.938c11.369-.001 20.381 9.592 19.671 20.939z" fill="#b4d0d5"/><path d="m428.294 393.12c-2.311 26.414-14.739 49.686-33.265 66.135 2.178 8.479 9.875 14.794 19.092 14.794h.747c10.408 0 19.022-8.092 19.671-18.48l15.49-247.756c.321-5.139-1.351-9.917-4.333-13.608z" fill="#9bb9c1"/><path d="m430.84 36.2 31.22 18.025c1.608.928 3.663.377 4.592-1.23l12.95-22.43c.928-1.608.377-3.663-1.23-4.592l-31.22-18.025c-1.608-.928-3.663-.377-4.592 1.23l-12.95 22.43c-.928 1.608-.377 3.664 1.23 4.592z" fill="#78c2a4"/><path d="m450.122 117.733-22.337 38.688h32.992c.001-14.141-3.888-27.374-10.655-38.688z" fill="#986b54"/><path d="m359.988 116.088 20.293-35.149h-1.616c-4.184 0-8.116-1.852-10.908-4.968-12.16-13.573-29.823-22.114-49.481-22.114-29.298 0-54.165 18.971-62.987 45.299-.486 1.45-1.858 2.416-3.387 2.416-30.292 0-54.848 24.556-54.848 54.848h191.021c-.001-18.501-11.69-34.272-28.087-40.332z" fill="#aa7a63"/><path d="m359.988 116.088 20.293-35.149h-1.616c-4.184 0-8.116-1.852-10.908-4.968-7.018-7.834-15.87-13.991-25.88-17.798l-15.57 26.968c-3.203 5.547-1.525 12.527 3.692 16.244.686.489 1.357.997 2.012 1.524 13.857 11.147 6.023 33.512-11.761 33.512h-119.436c-2.428 6.197-3.761 12.943-3.761 20h191.021c0-18.502-11.689-34.273-28.086-40.333z" fill="#986b54"/><path d="m455.533 62.364 5.156-8.931-28.479-16.442-5.156 8.931c-2.125 3.68-5.902 6.18-10.142 6.472-12.657.871-24.665 7.82-31.485 19.633l-25.439 44.061c16.396 6.06 28.086 21.831 28.086 40.333h39.711l25.954-44.954c6.82-11.813 6.834-25.687 1.26-37.083-1.866-3.818-1.59-8.339.534-12.02z" fill="#b1e4f9"/><path d="m455.533 62.364 5.156-8.931-28.479-16.443-5.156 8.931c-.852 1.476-1.97 2.761-3.277 3.791.096 1.602.498 3.189 1.222 4.67 5.574 11.396 5.56 25.271-1.26 37.083l-20.162 34.922c-3.584 6.208-10.208 10.032-17.377 10.032h-3.053c3.146 5.974 4.926 12.779 4.926 20h39.711l25.954-44.954c6.82-11.813 6.834-25.687 1.26-37.084-1.865-3.815-1.589-8.336.535-12.017z" fill="#90d8f9"/><path d="m230.586 407.197c3.817 4.341 9.385 7.004 15.464 7.004 9.242 0 18.115 1.579 26.363 4.482l-7.989-212.839c-.397-10.59-9.098-18.97-19.696-18.97h-6.938c-11.369 0-20.381 9.593-19.671 20.939z" fill="#b4d0d5"/><path d="m337.568 186.873h-6.987c-10.981 0-19.845 8.975-19.708 19.955l3.064 245.58c3.353 5.515 6.052 11.471 7.991 17.76 3.461 2.603 7.928 4.033 12.54 3.88 10.789 0 19.573-8.675 19.708-19.463l3.1-247.756c.138-10.98-8.726-19.956-19.708-19.956z" fill="#b4d0d5"/><path d="m138.501 332.98h-73.441c-8.484 0-15.91 5.698-18.106 13.893l-8.513 31.769h126.678l-8.513-31.769c-2.195-8.195-9.621-13.893-18.105-13.893z" fill="#f1f4f6"/><path d="m138.501 424.305h-73.441c-8.484 0-15.91-5.698-18.106-13.893l-8.513-31.769h126.678l-8.513 31.769c-2.195 8.195-9.621 13.893-18.105 13.893z" fill="#dfeaef"/><path d="m246.05 414.201c-9.406 0-17.59-6.376-19.955-15.48-6.861-26.418-30.871-45.924-59.436-45.924-2.82 0-5.596.19-8.316.559l6.776 25.287-8.513 31.769c-2.196 8.195-9.622 13.893-18.106 13.893h-47.29c-38.742 1.513-69.687 33.398-69.687 72.512v5.577c0 1.162.942 2.104 2.104 2.104h299.71c1.162 0 2.104-.942 2.104-2.104v-8.802c0-43.847-35.545-79.391-79.391-79.391z" fill="#aa7a63"/><path d="m260.099 415.44c15.589 14.496 25.341 35.185 25.341 58.151 0 6.023-4.883 10.906-10.906 10.906h-251.969c-.685 4.004-1.042 8.12-1.042 12.319v5.577c0 1.162.942 2.104 2.104 2.104h299.71c1.162 0 2.104-.942 2.104-2.104v-8.802c0-39.052-28.197-71.518-65.342-78.151z" fill="#986b54"/><circle cx="271.528" cy="26.816" r="7.5"/><path d="m414.122 481.548h.747c14.333 0 26.262-11.206 27.157-25.512l8.104-129.612c.258-4.134-2.883-7.695-7.018-7.953-4.117-.25-7.695 2.884-7.953 7.018l-8.104 129.612c-.401 6.419-5.754 11.447-12.186 11.447h-.747c-6.917 0-12.461-5.73-12.201-12.667l9.299-247.756c.248-6.589 5.607-11.751 12.201-11.751h6.938c7.024 0 12.627 5.908 12.186 12.972l-5.147 82.329c-.258 4.134 2.883 7.695 7.018 7.953 4.13.265 7.695-2.883 7.953-7.018l5.147-82.329c.978-15.647-11.478-28.908-27.157-28.908h-6.938c-14.696 0-26.639 11.503-27.19 26.189l-9.299 247.756c-.578 15.403 11.718 28.23 27.19 28.23z"/><path d="m202.713 426.409c-29.066 0-52.714 23.647-52.714 52.714 0 4.142 3.358 7.5 7.5 7.5s7.5-3.358 7.5-7.5c0-20.795 16.918-37.714 37.714-37.714s37.714 16.918 37.714 37.714c0 4.142 3.358 7.5 7.5 7.5s7.5-3.358 7.5-7.5c0-29.066-23.648-52.714-52.714-52.714z"/><path d="m52.895 189.363h57.701c9.681 0 17.558 7.876 17.558 17.558s-7.876 17.558-17.558 17.558h-11.714c-17.281 0-31.34 14.059-31.34 31.339v11.159c0 4.142 3.358 7.5 7.5 7.5s7.5-3.358 7.5-7.5v-11.159c0-9.01 7.33-16.339 16.34-16.339h11.714c17.952 0 32.558-14.605 32.558-32.558 0-17.952-14.605-32.558-32.558-32.558h-57.701c-8.476 0-15.371-6.895-15.371-15.371s6.895-15.371 15.371-15.371h6.887c4.142 0 7.5-3.358 7.5-7.5s-3.358-7.5-7.5-7.5h-6.887c-16.747 0-30.371 13.624-30.371 30.371s13.625 30.371 30.371 30.371z"/><path d="m85.92 34.316h160.572c4.142 0 7.5-3.358 7.5-7.5s-3.358-7.5-7.5-7.5h-160.572c-14.589 0-26.458 11.869-26.458 26.458s11.869 26.458 26.458 26.458h76.839c6.803 0 12.337 5.535 12.337 12.337 0 6.803-5.535 12.338-12.337 12.338h-14.122c-4.142 0-7.5 3.358-7.5 7.5s3.358 7.5 7.5 7.5h14.122c15.074 0 27.337-12.264 27.337-27.338s-12.264-27.337-27.337-27.337h-76.839c-6.318 0-11.458-5.14-11.458-11.458s5.14-11.458 11.458-11.458z"/><circle cx="75.042" cy="292.351" r="7.5"/><path d="m23.627 511.997h433.873c5.514 0 10.034-4.142 10.516-9.635l29.918-341.965c.257-2.94-.739-5.875-2.733-8.051s-4.83-3.424-7.782-3.424h-19.48c-.984-10.89-4.104-21.477-9.188-31.133l1.484-2.571c7.826-13.555 8.388-30.052 1.502-44.129-1.662-2.812 1.238-6.516 2.577-8.931 3.545-.193 6.929-2.114 8.833-5.412l12.95-22.43c2.994-5.186 1.21-11.842-3.976-14.836l-31.22-18.025c-5.185-2.993-11.841-1.21-14.836 3.976l-12.95 22.43c-1.904 3.297-1.875 7.188-.27 10.355-1.427 2.374-3.177 6.726-6.446 6.698-15.634 1.075-29.64 9.81-37.466 23.365l-2.712 4.697c-1.072-.416-2.063-1.099-2.876-2.007-14.011-15.64-34.083-24.609-55.067-24.609-11.53 0-22.579 2.583-32.838 7.679-3.71 1.843-5.224 6.344-3.381 10.053 1.843 3.71 6.343 5.224 10.053 3.381 8.167-4.057 16.971-6.113 26.166-6.113 16.727 0 32.726 7.15 43.896 19.619 1.875 2.092 4.092 3.791 6.521 5.036l-12.246 21.211c-3.652-.843-7.455-1.289-11.359-1.289-4.142 0-7.5 3.358-7.5 7.5s3.358 7.5 7.5 7.5c16.995 0 31.238 12.009 34.689 27.987h-174.631c3.605-22.557 23.198-39.848 46.754-39.848 4.77 0 8.989-3.027 10.499-7.533 1.495-4.461 3.533-8.745 6.057-12.732 2.216-3.5 1.174-8.133-2.325-10.349-3.501-2.217-8.134-1.174-10.349 2.325-2.667 4.214-4.903 8.694-6.664 13.35-30.583 1.348-55.51 24.834-59.117 54.787h-9.273c-2.952 0-5.788 1.248-7.782 3.424s-2.99 5.111-2.733 8.051l16.435 187.854c-7.21-2.184-14.852-3.205-22.686-2.901l-.112-.418c-3.069-11.454-13.494-19.453-25.351-19.453h-73.441c-11.857 0-22.282 7.999-25.351 19.452l-7.023 26.21h-2.661c-4.142 0-7.5 3.358-7.5 7.5s3.358 7.5 7.5 7.5h2.661l7.023 26.21c1.884 7.031 6.54 12.759 12.597 16.135-5.746 3.525-11.079 7.8-15.868 12.767-14.455 14.996-22.415 34.728-22.415 55.561v5.577c.001 5.296 4.309 9.604 9.604 9.604zm294.746-305.262c-.085-6.808 5.4-12.362 12.209-12.362h6.987c6.809 0 12.293 5.554 12.208 12.362l-3.1 247.756c-.083 6.648-5.56 12.057-12.208 12.057-2.175.078-4.36-.306-6.271-1.291-1.799-5.2-4.078-10.178-6.785-14.88zm134.492-57.814h-12.089l8.675-15.025c1.699 4.85 2.847 9.891 3.414 15.025zm-5.879-132.409 24.051 13.886-8.811 15.261-24.051-13.886zm-76.455 96.315c.058-.101 21.45-37.152 21.391-37.051 5.326-9.225 14.86-15.169 25.505-15.9 6.671-.459 12.698-4.274 16.122-10.204l1.406-2.436 15.489 8.942-1.406 2.436c-3.424 5.931-3.714 13.058-.775 19.065 4.688 9.584 4.308 20.814-1.018 30.038-4.671 8.087 5.396-9.346-23.789 41.204h-28.438c-2.302-15.387-11.573-28.527-24.487-36.094zm-184.951 51.094h296.988l-29.141 333.076h-120.486c.061-5.135-.1-10.503-.838-15.494.917.052 1.487.044 2.366.044 14.817 0 27.022-12.053 27.208-26.869l3.1-247.756c.189-15.173-12.035-27.55-27.208-27.55h-6.987c-15.173 0-27.397 12.377-27.208 27.549l2.795 223.99c-7.622-7.314-16.571-13.254-26.444-17.421l-7.805-207.929c-.551-14.686-12.495-26.189-27.19-26.189h-6.938c-15.676 0-28.135 13.259-27.156 28.907l10.211 163.322c-5.149-6.542-11.437-12.085-18.529-16.372zm52.311 239.914-12.285-196.491c-.438-7.012 5.111-12.971 12.186-12.971h6.938c6.594 0 11.954 5.162 12.201 11.751l7.603 202.555c-5.958-1.296-12.142-1.979-18.483-1.979-3.047.001-5.898-1.057-8.16-2.865zm-172.831-63.355h73.44c5.08 0 9.546 3.427 10.861 8.335 3.181 11.87 2.458 9.173 5.983 22.328h-50.511c-4.142 0-7.5 3.358-7.5 7.5s3.358 7.5 7.5 7.5h50.511l-5.983 22.329c-1.314 4.907-5.781 8.334-10.861 8.334-14.381 0-55.403 0-73.44 0-5.081 0-9.547-3.427-10.862-8.334l-5.983-22.328h21.619c4.142 0 7.5-3.358 7.5-7.5s-3.358-7.5-7.5-7.5h-21.618l5.983-22.328c1.314-4.909 5.781-8.336 10.861-8.336zm-36.036 156.337c0-35.044 27.372-63.573 62.34-65.012h47.137c11.857 0 22.282-7.999 25.351-19.452l7.023-26.21h2.661c4.142 0 7.5-3.358 7.5-7.5s-3.358-7.5-7.5-7.5h-2.661l-2.902-10.829c24.006.579 44.809 16.983 50.863 40.293 3.248 12.505 14.505 21.095 27.214 21.095 39.641 0 71.891 32.25 71.891 71.891v3.406h-288.917z"/></g></svg>