<svg width="126" height="126" viewBox="0 0 126 126" fill="none" xmlns="http://www.w3.org/2000/svg">
<g clip-path="url(#clip0)">
<path d="M112.722 71.709C118.479 71.709 123.144 76.3747 123.144 82.131C123.144 87.8874 118.479 92.553 112.722 92.553H106.538V71.7092H112.722V71.709Z" fill="#FBB0AD"/>
<path d="M106.538 71.7088V92.5526H102.646C95.6191 92.5526 89.1575 90.0855 84.0808 85.9741L84.0894 85.9655L97.7008 70.1641C99.1055 71.1376 100.81 71.7088 102.646 71.7088H106.538Z" fill="#FBCDCB"/>
<path d="M97.7006 70.1641L84.0892 85.9654L84.0805 85.9741C78.6468 81.5769 74.7979 75.2951 73.5416 68.1311L73.5616 68.1281L93.6688 59.0225C93.8458 60.3245 93.9373 61.6522 93.9373 62.9998C93.9371 65.9667 95.4276 68.5908 97.7006 70.1641Z" fill="#FBB0AD"/>
<path d="M93.6688 59.0225L73.5616 68.1281L73.5416 68.1311C73.2476 66.4636 73.0933 64.7505 73.0933 63.0001C73.0933 60.67 72.1739 58.5487 70.6776 56.9838L70.6862 56.9752L84.0806 40.9883C89.1944 45.5654 92.7066 51.8956 93.6688 59.0225Z" fill="#FBCDCB"/>
<path d="M70.6776 56.9836C69.0901 55.3247 66.8573 54.2911 64.3845 54.2911H63.7078V33.4473H64.3845C71.9425 33.4473 78.8496 36.2997 84.0805 40.9883L70.6862 56.9752L70.6776 56.9836Z" fill="#FBB0AD"/>
<path d="M63.7077 33.4473V54.2911H63.0054C60.5383 54.2911 58.3084 55.322 56.7236 56.9723L43.3236 40.9767C48.5516 36.2968 55.453 33.4473 63.0054 33.4473H63.7077Z" fill="#FBCDCB"/>
<path d="M43.3236 40.9771L56.7236 56.9726C55.2217 58.5372 54.2966 60.6645 54.2966 63.0001C54.2966 64.7476 54.1453 66.4636 53.8512 68.1282L33.7213 59.0139C34.6865 51.8844 38.2041 45.5514 43.3236 40.9771Z" fill="#FBB0AD"/>
<path d="M33.7213 59.0142L53.8512 68.1285C52.5949 75.2868 48.7517 81.5656 43.3236 85.9628L29.7065 70.1558C31.9679 68.5795 33.4528 65.9614 33.4528 63.0004C33.4528 61.6496 33.5441 60.3189 33.7213 59.0142Z" fill="#FBCDCB"/>
<path d="M29.7069 70.1553L43.324 85.9623C38.2444 90.0826 31.78 92.5524 24.7444 92.5524H13.2773C7.5209 92.5524 2.85522 87.8868 2.85522 82.1304C2.85522 76.374 7.5209 71.7084 13.2773 71.7084H24.7442C26.586 71.7086 28.299 71.1347 29.7069 70.1553Z" fill="#FBB0AD"/>
<path d="M112.722 95.4077H102.646C95.2601 95.4077 88.0286 92.8454 82.2836 88.1923C76.1797 83.2529 72.0761 76.303 70.7293 68.624C70.4032 66.7768 70.2378 64.8838 70.2378 62.9998C70.2378 61.4878 69.661 60.0523 68.6136 58.9569C67.4966 57.7897 65.9942 57.1464 64.384 57.1464H63.0049C61.3989 57.1464 59.8995 57.7868 58.7827 58.9498C57.7309 60.0454 57.1514 61.4838 57.1514 62.9998C57.1514 64.8961 56.987 66.7888 56.6626 68.6247C55.3162 76.2954 51.2171 83.2419 45.1206 88.1807C39.3753 92.8402 32.1382 95.4075 24.7436 95.4075H13.2772C5.95618 95.4077 0 89.4518 0 82.1305C0 74.8093 5.95618 68.8533 13.2772 68.8533H24.7441C25.9443 68.8533 27.0963 68.493 28.0757 67.8116C29.6542 66.7116 30.5975 64.9124 30.5975 62.9998C30.5975 61.5394 30.6966 60.069 30.8918 58.6296C31.9219 51.0195 35.6613 43.9935 41.4211 38.8475C47.3679 33.5242 55.0337 30.5918 63.0054 30.5918H64.3845C72.3643 30.5918 80.036 33.5287 85.986 38.862C91.7375 44.0093 95.4715 51.0342 96.4981 58.6405C96.6931 60.0735 96.792 61.5412 96.792 63C96.792 64.9178 97.7387 66.7182 99.3253 67.816C100.305 68.495 101.452 68.8533 102.646 68.8533H112.722C114.299 68.8533 115.577 70.132 115.577 71.7087C115.577 73.2854 114.299 74.5641 112.722 74.5641H102.646C100.284 74.5641 98.0116 73.8544 96.0736 72.511C92.9483 70.3478 91.0814 66.7918 91.0814 63.0002C91.0814 61.7981 90.9999 60.5895 90.839 59.4078C89.9934 53.1445 86.917 47.3598 82.176 43.1162C77.2734 38.7222 70.9552 36.3031 64.384 36.3031H63.0049C56.4411 36.3031 50.1274 38.7188 45.2274 43.1049C40.4791 47.3473 37.3982 53.1327 36.5502 59.3977C36.3892 60.5841 36.3075 61.7959 36.3075 63.0005C36.3075 66.7792 34.4498 70.3301 31.3387 72.4984C29.3955 73.8505 27.1157 74.5646 24.7434 74.5646H13.2772C9.10494 74.5646 5.71058 77.959 5.71058 82.1313C5.71058 86.3035 9.10494 89.6979 13.2772 89.6979H24.7441C30.9213 89.6979 36.7242 87.6395 41.5252 83.7454C46.5519 79.6728 49.9307 73.9519 51.0392 67.6352C51.3064 66.1227 51.4418 64.5647 51.4418 63.0007C51.4418 60.0038 52.5861 57.1607 54.6643 54.9958C56.8684 52.7005 59.8308 51.4366 63.0059 51.4366H64.385C67.5682 51.4366 70.5356 52.7057 72.7411 55.0104C74.81 57.174 75.9492 60.0117 75.9492 63.0007C75.9492 64.5531 76.0857 66.1126 76.354 67.6354C77.4629 73.9588 80.8452 79.6824 85.8775 83.7547C90.6094 87.5874 96.5646 89.6974 102.647 89.6974H112.723C116.895 89.6974 120.29 86.303 120.29 82.1308C120.29 80.554 121.568 79.2753 123.145 79.2753C124.722 79.2753 126 80.554 126 82.1308C126 89.4518 120.043 95.4077 112.722 95.4077Z" fill="black"/>
<path d="M120.557 78.111C119.764 78.111 118.976 77.7832 118.412 77.1414C118.278 76.9898 118.137 76.8414 117.992 76.7002C116.861 75.6009 116.835 73.7931 117.934 72.6625C119.033 71.5317 120.841 71.5061 121.972 72.6052C122.224 72.8493 122.468 73.107 122.699 73.3698C123.741 74.554 123.625 76.3581 122.441 77.3995C121.899 77.8765 121.226 78.111 120.557 78.111Z" fill="black"/>
<path d="M17.3547 86.4139C15.7777 86.4139 14.4993 85.1352 14.4993 83.5584V80.8945C14.4993 79.3178 15.7775 78.0391 17.3547 78.0391C18.9316 78.0391 20.2101 79.3178 20.2101 80.8945V83.5584C20.2099 85.1352 18.9316 86.4139 17.3547 86.4139Z" fill="black"/>
<path d="M43.3236 88.8195C42.4251 88.8195 41.6234 88.4048 41.0999 87.7561L27.5591 72.0372C26.5743 70.9157 26.6156 69.2054 27.6861 68.1349C28.8012 67.0201 30.6075 67.0181 31.723 68.1334C31.773 68.1836 31.8239 68.2382 31.8702 68.2919L45.4873 84.0989C45.9334 84.6169 46.179 85.2784 46.179 85.9623C46.179 87.5393 44.9008 88.8195 43.3236 88.8195Z" fill="black"/>
<path d="M53.8495 70.9847C53.4557 70.9847 53.0556 70.9027 52.6734 70.7295L32.5435 61.6152C31.1071 60.965 30.4697 59.2729 31.1201 57.8365C31.7708 56.4003 33.4624 55.7624 34.8989 56.4133L55.0288 65.5276C56.4652 66.1778 57.1026 67.8699 56.4522 69.3063C55.975 70.3604 54.9362 70.9847 53.8495 70.9847Z" fill="black"/>
<path d="M63.7082 57.1464C62.1312 57.1464 60.8528 55.8677 60.8528 54.291V33.4472C60.8528 31.8705 62.131 30.5918 63.7082 30.5918C65.2849 30.5918 66.5636 31.8705 66.5636 33.4472V54.291C66.5634 55.8677 65.2849 57.1464 63.7082 57.1464Z" fill="black"/>
<path d="M56.7251 59.83C55.9494 59.83 55.1769 59.5158 54.6136 58.8961L54.6107 58.8929C54.5846 58.8644 54.5593 58.8356 54.5346 58.8058L41.1346 42.8103C40.122 41.6017 40.2809 39.8005 41.4898 38.7876C42.6983 37.7752 44.4992 37.9339 45.5121 39.1427L58.9035 55.1277C59.8926 56.2959 59.787 58.0483 58.6454 59.0858C58.0986 59.5844 57.4105 59.83 56.7251 59.83Z" fill="black"/>
<path d="M84.0879 88.8211C83.4281 88.8211 82.7652 88.5934 82.226 88.129C81.031 87.0999 80.8971 85.2973 81.9262 84.1022L95.5202 68.3206C96.4799 67.1836 98.1728 66.9631 99.3912 67.8542C100.664 68.7854 100.945 70.5661 100.014 71.8387C99.969 71.8997 99.9134 71.9704 99.8642 72.0275L86.2528 87.8288C85.6878 88.4846 84.8904 88.8211 84.0879 88.8211Z" fill="black"/>
<path d="M73.5633 70.9847C72.4766 70.9847 71.4381 70.3608 70.9606 69.3063C70.3102 67.8699 70.9471 66.178 72.3838 65.5276L92.4911 56.4219C92.5462 56.3968 92.6025 56.3737 92.6591 56.3522C94.1347 55.7948 95.7934 56.5339 96.351 58.0089C96.8983 59.457 96.2031 61.0669 94.7824 61.6536L74.7399 70.7297C74.3575 70.9027 73.9571 70.9842 73.5633 70.9847Z" fill="black"/>
<path d="M70.6847 59.8308C70.0375 59.8308 69.3871 59.612 68.8525 59.1641C67.644 58.1514 67.4848 56.3505 68.4977 55.1417L81.8812 39.1676C82.8493 37.9959 84.5833 37.7796 85.8069 38.7049C87.0646 39.6561 87.3179 41.4412 86.3667 42.699C86.3379 42.7369 86.2998 42.7856 86.269 42.8221L72.8747 58.809C72.3104 59.4833 71.5003 59.8308 70.6847 59.8308Z" fill="black"/>
<path d="M106.538 95.4077C104.961 95.4077 103.683 94.129 103.683 92.5523V71.7084C103.683 70.1317 104.961 68.853 106.538 68.853C108.115 68.853 109.393 70.1317 109.393 71.7084V92.5523C109.393 94.129 108.115 95.4077 106.538 95.4077Z" fill="black"/>
</g>
<defs>
<clipPath id="clip0">
<rect width="126" height="126" fill="white"/>
</clipPath>
</defs>
</svg>
